<?xml version="1.0" encoding="utf-8"?>
<!-- Generator: Adobe Illustrator 19.2.0, SVG Export Plug-In . SVG Version: 6.00 Build 0)  -->
<svg version="1.1" id="Calque_1" xmlns="http://www.w3.org/2000/svg" xmlns:xlink="http://www.w3.org/1999/xlink" x="0px" y="0px"
	 viewBox="0 0 495 544" style="enable-background:new 0 0 495 544;" xml:space="preserve">
<style type="text/css">
	.st0{stroke:#FFFFFF;stroke-width:0.25;}
	.st1{stroke:#FFFFFF;stroke-miterlimit:10;}
</style>
<g id="departements">
	<path id="dep2a" class="st0" d="M438.1,483.8v2.2l2,1.4l3.3,1.9l0.2,1.6l-2,0.6l-3.1,0.6v1.3l1.2,1.2l0.2,3.9l4.3,1.4l1.6,0.4
		l1.4,2.2l-1,1.4l-1.6,0.6l-1.2,2.2l-1.2,1.4l0.6,3.5l2.9-0.2l0.8,0.6l2.8-1.4l0.8,0.8l-1.4,2.9l1.4,1.4l-2.3,1.8l-1.6,3.5l4.3,1
		l6.1,0.6l-2.5,2.9c0,0-1.2-0.5-1.7-0.2c0,0,0,0-0.1,0l0,0l0,0l0,0l0,0l0,0v0.1l0,0c0,0,0,0,0,0.1c0,0,0,0,0,0.1
		c0,1-1.3,3.3-1.3,3.3l1.9,2.1l3.5,2.2l6.6,1.8l1.9,0.8l1.8,0.8l-1.2,2.2l3.1-0.2l0.6,1.4h3.1l0.8-3.7l-2-0.4l2.8-2.9l-1-1l0.2-1.8
		l3.5-1.9l0.2-2.2l-2.3-0.2l-1.6,1.3V525l3.1-0.2l1-2.3l0.8-6.8l-0.6-2.9l-0.1-2.8l-3.4,2.2l-4.1,0.2l-0.3-2.8l0.5-0.7l-1.2-0.9
		l-0.3-4.8l-0.5-0.9h-2.1l-1.1-0.9V498l-1.4-0.9l-1.1-0.5l-2.1-2.7l0.2-1.6h-2.6l-0.9-2.7H453l-1.9-2.7l0.5-0.9l-1.2-0.7l-2.8,0.5
		l-1.1-0.7h-3.9l-0.4-1.1l-2.2-0.4h-1.9V483.8z"/>
	<path id="dep2b" class="st0" d="M470.7,444.7l-2.9,2l0.4,1.9l1.6,2L468,452l0.8,1.6l-1.2,1.4v1.8l2,1.8v2.7l-1.2,2.5l-1.3,0.6
		l-1.6-2.2l-2.8,0.2l-0.6-0.4h-2.3l-2.1,2l-0.8,3.3l-5.1,1l-3.9,3.3l-0.8,2.2l-1.9-0.2l-1-1.2l-0.6,3.3l-1.4,0.6l-0.4,3.1l0.6,1.4
		l-2.2,1.6l-0.6,1.6l2.2,0.4l0.4,1.1h3.9l1.1,0.7l2.8-0.5l1.2,0.7l-0.5,0.9l1.9,2.7h3.7l0.9,2.7h2.6l-0.2,1.6l2.1,2.7l1.1,0.5
		l1.4,0.9v3.4l1.1,0.9h2.1l0.5,0.9l0.3,4.8l1.2,0.9l-0.5,0.7l0.3,2.8l4.1-0.2l3.4-2.2l-0.1-5.8l4.7-6.6v-10.9l-1.9-3.7l-0.6-11.7
		l-1.4-2.2L475,467l-0.4-7.2l1.2-3.3l-1.6-5.3l-1-4.3l-0.8-1.2L470.7,444.7z"/>
	<path id="dep13" class="st0" d="M372.5,404.8l-5.5,3.1l-1.4,10.5l-5.8-0.8l-1.7,4.4l1.4,1.9l-6.3,3.9l-1.8,4.1l6.2,0.3l8.2,0.6
		l1.6,1.6h-2.9l-1.9,3.3l8.4,1.8l6.7-1.2l-3.5-3.3l2.3-1.9l3.7,1.6l1.8,3.7l11.2,0.2l2.9-1.2l0.6,1.8l-3.1,2.7l4.3,0.2l-0.8,2
		l-1.2,1.4h9.6l4.7,1.6l0.5,0.6l0.2-3.9l1.4-1.6l1.8-1.1l-0.2-1.1l-1.4-1.4h-1.4l-0.9-1.1l1.6-1.4v-0.5l-1.8-0.9v-1.4l3.9,0.2
		l0.9-0.7l-3.4-3.2l0.2-3.7l-2.1-1.8l1.8-3.5l4.2-2.8l-3.2-2.1l-2.3,1.8l-5.3,1.2l-4.2-0.5l-7.6-3.2l-4.6,0.2l-3.9-1.8l-1.4-2
		l-3-3.3l-7.1-3L372.5,404.8z"/>
	<path id="dep84" class="st0" d="M379.8,376.2l-2.8,0.2l-2.1,3.3l0.6,3.5l3.3,0.4l-0.6,1.6l-2.6,0.2l-2.9,2.9l-0.8-1l0.6-3.9
		l-1.2-1.4l-5.3,0.8l-1,2.1l0.6,0.3l3.3,5.5v4.4l5.8,5.8v2.5l-2.2,1.3l0.2,0.1l7.1,3l3,3.3l1.4,2l3.9,1.8l4.6-0.2l7.6,3.2l4.2,0.5
		l5.3-1.2l2.2-1.7l0.3-1.5l-4.1-4.6h-4.4v-1.6l1.6-1.8v-1.9l-3.5-1.8l-0.3-2.8l1.9-0.9v-2.5l-2.1-0.4l-0.2-2.7v-0.2l-1.8-0.1
		l-2.9-2.2l-0.8-2.5l-5.5-0.4l-4.1-0.4l-0.4-2.3l1.4-2.9l-2.5,2.2l-3.9-0.4l-0.8-1.4l2.7-3.7L379.8,376.2z"/>
	<path id="dep83" class="st0" d="M450.6,408l-3,0.1l-1.4,1.4l-5.3-0.2l-4.6,3.3l-3.2-2.1l-5,1.6l-0.9,1.8l-3.5,2.7l-6.4-4.2
		l-5.2,1.7l-0.2,1.4l0.1-0.1l3.2,2.1l-4.2,2.8l-1.8,3.5l2.1,1.8l-0.2,3.7l3.4,3.2l-0.9,0.7l-3.9-0.2v1.4l1.8,0.9v0.5l-1.6,1.4
		l0.9,1.1h1.4l1.4,1.4l0.2,1.1l-1.8,1.1l-1.4,1.6l-0.2,3.9l0.5,0.7l3.5,1.6l1,3.9l2.2,0.4l2-1.4l3.5-2.2l6.1,0.6l-0.2,1.6l-2,1
		l4.7,0.2l-1.2-1.2l-0.4-2.5l2.5-1.8l2.9,1l1.2,0.4l1,1.2l1.4-1l0.4-2.6l1.6-1.3h4.1l1.2-1.8l2.7,0.8l3.1-1.3v-5.1l-4.1,0.2l3.1-1.9
		l1.6-2.2l0.4-3.1l5.7-0.8l3.2-3.5l-2.2-2.2v-1.2l-1.1-1.1l1.4-1.2l-0.3-2l-2.3-0.9h-1.2l-2.1-2.1l-0.4-3.7l-2.3-1.1l-2.3-0.2
		l-0.9-2.1L450.6,408z"/>
	<path id="dep04" class="st0" d="M456.6,359.2l-2.1,3.2l-3,1.8l-1.1,2.1l-2.7,0.2v1.9l-0.7,1.1l-1.1,2.7l-6.3-0.2l-3-1.6l-2,1.4
		l-3.7-0.2l-0.9,1.2h0.9l0.5,3.3l-0.9,0.4l-3.3-2.1v-1.2l-1.9-1.6h-1.1v1.8l-1.6,0.3l-3.4,1.9l-2.1,3.6l-0.5,1.8l1.2,0.3l0.2,2.8
		h-1.2l-1.9-1.8l-1.1,0.2l0.5,1.6l3,3.3l-1.9,0.7l-1.4-0.9h-3.6l-3,2.8l0,0l-0.1,1.2l-1.2-1.4l-1.6-1.4l-1,2.9l-1.8,1.6l-0.8-0.1
		v0.2l0.2,2.7l2.1,0.4v2.5l-1.9,0.9l0.3,2.8l3.5,1.8v1.9l-1.6,1.8v1.6h4.4l4.1,4.6v0.1l5.2-1.7l6.4,4.2l3.5-2.7l0.9-1.8l5-1.6
		l3.2,2.1l4.6-3.3l5.3,0.2l1.4-1.4l3-0.1h0.1l-0.7-1.8l0.9-1.1l-0.3-1.4h2.8l0.7-0.9l2.7-1.4l2.1,1.4l1.4-0.9l-3.3-3l-3.6-3.3
		l-1.2-0.4l-0.2-2.7l-2.1-3.2l0.7-4.6l1.1-2.5l1.9-1.6l0.2-2.5l2.7-1.4l0.4-0.2v-3.8l2.8-0.4l-1.6-1.4l-2-0.6l-1-2.5l0.8-1.8
		l3.5-3.7l-0.6-2.8l0.5-0.5L456.6,359.2z"/>
	<path id="dep06" class="st0" d="M456.7,376.7l-0.4,0.2l-2.7,1.4l-0.2,2.5l-1.9,1.6l-1.1,2.5l-0.7,4.6l2.1,3.2l0.2,2.7l1.2,0.4
		l3.6,3.3l3.3,3l-1.4,0.9l-2.1-1.4l-2.7,1.4l-0.7,0.9h-2.8l0.3,1.4l-0.9,1.1l0.7,1.8l-2.3,1.4l0.9,2.1l2.3,0.2l2.3,1.1l0.4,3.7
		l2.1,2.1h1.2l2.3,0.9l0.3,2l-1.4,1.2l1.1,1.1v1.2l2.2,2.2l0.2-0.2l0.2-4.5l3.9,0.8l1.4-1.8l2,0.4l0.2-6.1l4.5-0.4l3.9-3.5h3.5
		l0.2-2.2l3.5-2.1l-2-4.5l2.9-2.5l-0.6-2.9l4.3-1.4l1.2-4.3l-0.6-2.9l-1-1.8l-0.8-2.6l-2.9,0.2l-9.2,3.3h-2.9l-5.1-4.1l-5.1-1.4
		h-2.9v-3.5l-4.1-2.5v-0.2L456.7,376.7L456.7,376.7z"/>
	<path id="dep05" class="st0" d="M440.1,334l-1.8,0.8l-0.4,2.9l-3.5,0.4l-0.6-2.8l-1.2-1.2l-3.5,0.4l-1.4,1.2l-0.8,4.1l0.6,1
		l4.1,0.4l0.8,2.5l1.6,0.8v4.3l-3.7-0.2l-1.6,1.8l-4.5-0.8l-2.5,2.2L420,351l-2.5,2l1,1.8l-1.6,1.6H412v2.3l1.6,0.8l-0.6,1.4
		l-3.3,1.3l-4.1,0.4l-1.2,3.7l-0.2,2.3l2.2,1.8l-2.2,2.5l-2.7-1.4l-3.1-0.2l-0.4,1.8l2,1.4l-2.4,1.6l0.8,3.3l6.6,1.8l1.2,2.5
		l1.9,0.4l-0.7,6.1l0,0l3-2.8h3.6l1.4,0.9l1.9-0.7l-3-3.3l-0.5-1.6l1.1-0.2l1.9,1.8h1.2l-0.2-2.8l-1.2-0.3l0.5-1.8l2.1-3.6l3.4-1.9
		l1.6-0.3v-1.8h1.1l1.9,1.6v1.2l3.3,2.1l0.9-0.4l-0.5-3.3H430l0.9-1.2l3.7,0.2l2-1.4l3,1.6l6.3,0.2l1.1-2.7l0.7-1.1v-1.9l2.7-0.2
		l1.1-2.1l3-1.8l2.1-3.2l2.5,0.1l1.8-2l2.1,0.2v-1.8l-2.7-1.4l-0.6-5.7l-2.2-0.8l-2.7,0.4l-5.1-2.6l-0.8-5.8l-2.9-1l-1-2l-1.3-2.8
		L440.1,334z"/>
	<path id="dep48" class="st0" d="M313.6,347.1l-5.5,2l-1.6,3.5l-3.5-2.3l-2.8,8.6l-2.8,6.5l4.1,5l-0.3,3.9l2.8,1.9v4.7l0.8,6.6
		l3.3,1.4l-0.3,2.2l4.7-0.8l1.7,0.8l-1,0.9l6,4l5.2-1.1l0.9-1.2l-0.7-1.8l2.1-0.5l3,2.8l5.1,0.5l2.3-3.5v-3l1.4-1.6l-1.2-0.3v-4.1
		l-2.8-3l2.3-0.4l1.2-1.1l1-1.9l-1-0.6l0.6-4.1l-3.3-3.6l-1.4-7.2l-5-6.3l-3.6,0.9l-0.8-2.7h-2l-0.4,2.3l-5.1,1.6L313.6,347.1z"/>
	<path id="dep03" class="st0" d="M294.4,242.8l-2.7,3.5l-1.6,0.2l-1.8,1.8l-2-2.2l-5.2,5.3v3.1l1,0.8l0.2,1.6l-2.7,2.1l-2.6-0.8
		l-4.9,1l-2.5,2.9l-0.9,2h0.2l2.3,3.3v2.3l1.3,1.8l1.4-1.8l1.6,2.8l2.2,0.8l2.2,5.1l0.1,1.5l3,2.3l1.6-0.7l1.2-3l1.2-0.3v-1.6
		l2.1-0.2l0.2,1.1l2.7-3h3l0.5,1.1l-1.4,1.9l2.1,2.3l0.4,1.4l4.9,2.8l6,0.9l1.8-0.2l2.7,0.5l2.3-1.4l1.8,0.9l0.3,2.5l2.3,0.5l3-0.2
		l0.9,2.1l2.8,1.1l0.1-1l4.7-0.2l-0.4-11.1l-1.4-2.7l0.6-2.2l3.2-0.6l0.1-0.2l4.1-3.1l0.2-7.6l-1.6-2h-3.1l-1.2-1.6h-3.3l-1-1.2
		v-2.9l-3.9-7.4l-1.9-1.4l-3.7,5.1l-1.6,0.4l-0.6-2.5l-1.8-0.8l-0.8,1.6h-2.9l-0.4-1.8l-2,1.2l-2.1,1.2l-2.3-2.6l-3.3-1.6l-0.2-2.5
		L294.4,242.8z"/>
	<path id="dep30" class="st0" d="M339,375.9l-1,1.9l-1.2,1.1l-2.3,0.4l2.8,3v4.1l1.2,0.3l-1.4,1.6v3l-2.3,3.5l-5.1-0.5l-3-2.8
		l-2.1,0.5l0.7,1.8l-0.9,1.2l-5.2,1.1l-6-4l-1.2,1v2.8l-2.2,0.5l0.6,2.2l2.8,0.6h3l0.8,3.8l-3.6,1.7v1.8l2.8,1v1.6l1.2,0.7l1.1-0.9
		h1.4l0.7,1.6h2.1l1.1-3.7h1.8l2.7-3.3l3.2,0.3l0.5,4.6l1.2,1.4l2-1.1l3.3,1.8l1.2,2.1l5.8,3.5l2.1,5v2.6l-3.7,2.1l-2.4,2.2l3,0.2
		v3.9l4.5-0.2l2.4,0.1l1.8-4.1l6.3-3.9l-1.4-1.9l1.7-4.4l5.8,0.8L367,408l7.7-4.4V401l-5.8-5.8v-4.4l-3.3-5.5l-6.9-3.9l-0.5,3
		l-2.8,0.3l-0.8-3l-2.8,0.5l-0.5,3.9l-2.2-0.8l-4.7-3.1l-2.2,1.1v-5.5L339,375.9z"/>
	<path id="dep11" class="st0" d="M267,433.3l-0.3,3.6l-3.6-1.1h-3.9l0.3-1.4l-1.9,0.3l-4.1,1.4l-1.4-2.5l-2.8,2.5l0.8,1.9l-3.1,1.4
		l-0.5,3l-2.5,1.1l2.2,2.5l-0.6,1.7l9.7,4.7l0.8,6.7v3.6l0.6,4.7h-5l-1.4,1.9l6.3,5.2l3.6-1.9l4.4,5.2l-0.7,0.1l0.8,0.5l7.9-3.9
		l-1.9-2.8l-0.2-3.3H289l-0.3-2.5l4.2-2.3l4.9,3.9l2.6,1.2l-0.2-5.6l0.2-6.4l-2.3,0.2l-2-2.9l1.6-2.6l3.3,3.1l2.9-2.3l2-1.9l0.2-2.1
		l-2.5-0.1l-0.9-2.8l-2.5-0.2l-2.3-3.4l-1.8,0.2l-2.1-1.2l-0.4-3l-1.1,0.5l0.5,2.1h-2.5l-0.2,3.5l-3.7,1.2l-1.8-3.7l-2.5,1.6
		l-2.1-1.6l-1.1-2.5l1.8-2.1l-0.8-2.3l-0.2,0.1h-5.8l-6.1-1.1h-1L267,433.3L267,433.3z"/>
	<path id="dep34" class="st0" d="M328.3,403.2l-2.7,3.3h-1.8l-1.1,3.7h-2.1l-0.7-1.6h-1.4l-1.1,0.9l-1.2-0.7v-1.6l-2.8-1v1l-3.3,0.5
		l-1.7,1.4l0.5,3.3h-3l-3-1.7h-1.7v1.9l0.3,5.8h-3.3h-1.7l-1.1,2.2l-7.2,2.5l-2.8-1.9l-1.7,2.5l-0.8,2.8l3,2.8L285,433l-4.2,1.3
		l0.8,2.3l-1.8,2.1l1.1,2.5l2.1,1.6l2.5-1.6l1.8,3.7l3.7-1.2l0.2-3.5h2.5l-0.5-2.1l1.1-0.5l0.4,3l2.1,1.2l1.8-0.2l2.3,3.4l2.5,0.2
		l0.9,2.8l2.5,0.1l0.1-1.1l7-2.2l0.8-1.8l5.5-0.2l1.8-2.2l10.6-8.4l6.6-4.7l2.7,0.2l2.4-2.2l3.7-2.1v-2.6l-2.1-5l-5.8-3.5l-1.2-2.1
		l-3.3-1.8l-2,1.1l-1.2-1.4l-0.5-4.6L328.3,403.2z"/>
	<path id="dep66" class="st0" d="M293.3,463.5l-4.2,2.3l0.3,2.5h-18.5l0.2,3.3l1.9,2.8l-7.9,3.9l-0.8-0.5l-6.5,0.5L257,480l-3.3,0.8
		l-2.2,1.9l-6.1,1.4l0.3,2.1l2.9,2.8l5.8,1.6l0.2,3.5l3.1,2.8l2.3-0.4l3.3-4.1l4.1-0.8l6.4,2.2l5.5,4.7l1.6-2h1.4l1.4,1l1.2-0.6
		l0.2-2.8l5.9-1.4l1.9-2.5l2.9-1h4.1l2.6,2.7l3.1,0.2V489l-1.6-2.2l-2.8-1.2l-0.4-17.1l-2.6-1.2L293.3,463.5z"/>
	<path id="dep15" class="st0" d="M278.6,318.6l-0.6,2.2l1,2.3l-1.2,1.4h-1.9l-2-2.2l-1.8-1l-0.2,5.5l-3.5,2.2l-2.5,3.5l0.6,3.5
		l-0.8,1.6l-1,3.1h-1.6l-1.6,1.9l1.2,1.2l0.8,1.9l-2.5,1.8l1,6.5l3.3,2.5l-2.5,5.8l2.5,1.1l-1.1,3.3l2.2,0.3l1.7-2.8h2.8l0.5,0.8
		h6.1l1.1-2.5l1.4-0.6l0.6-4.4h1.4v-4.7l5.5-4.7l0.6,0.8l0.5,3.6l3.9-0.6l0.8,5.5h1.9l0.6,5.5l1.7,2.1l2.8-6.5l2.8-8.6l3.5,2.3
		l1.6-3.5l5-1.8v-1.7L312,344l-2.1-1.2l1.1-1.6l-0.9-0.9l1.1-0.3l1.2-1.1l-2.1-0.2l-1.1-1.4l-0.3-3.7l-1.2-1.2l-0.9-3.2h-4.4
		l-0.9-2.5l-1.4-0.2l-0.7,1.4l-2.8-0.2l-2.7-4.1l-1.1-0.2l-2.1-1.1l-1.2,1.2h-3.2l-1.6-3.3L278.6,318.6z"/>
	<path id="dep43" class="st0" d="M310.6,321.2l-1.4,0.7v1.2l-2.1,0.2l-1.9,1.6l-3.5,0.5l-0.8,1.2l0.6,0.1l0.9,2.5h4.4l0.9,3.2
		l1.2,1.2l0.3,3.7l1.1,1.4l2.1,0.2l-1.2,1.1l-1.1,0.3l0.9,0.9l-1.1,1.6l2.1,1.2l1.1,1.6v1.7l0.5-0.2l3.5,9l5.1-1.6l0.4-2.3h2
		l0.8,2.7l3.6-0.9l4.5,5.8l2.8-4.5l5.1-3.7h4.7l1.6-4.9l3.1-0.2l0.2-3.7h2.9l-0.6-1.4l-0.8-2.5l1.2-2l2.8-1.2l1.2-4.7l-2.5-2.9
		l-3.1,0.2l0.4-3.7l-6.2-2.7l-2.1,0.2l-4.3,3.5l-3.9-1.3l-0.8,0.8l-2.5-0.7l-1.8-1.8l-1.1,2.1l-3-0.2l-1.4-1.2l-1.1,2.5l-1.9-0.9
		l-1.2-2.3h-1.6l-1.4-1.2l-2.1,0.9l-2.5,0.2l-1.4-0.9l-0.9,0.5L310.6,321.2z"/>
	<path id="dep63" class="st0" d="M291.9,274.3l-2.7,3l-0.2-1.1l-2.1,0.2v1.6l-1.2,0.3l-1.2,3l-1.6,0.7l-3-2.3l0.3,4.6l1.6,1.9
		l0.8,3.7l-2.3,1.8l-0.6,2.8l-2.2,1.2l-3.7,2.2l0.4,1.8l4.5,4.5l0.4,2.8l-1.8,2.9v2.8l1.2,1.4l0.6,3.3l-0.4,1.3l6,1.8l1.6,3.3h3.2
		l1.2-1.2l2.1,1.1l1.1,0.2l2.7,4.1l2.8,0.2l0.7-1.4l0.8,0.1l0.8-1.2l3.5-0.5l1.9-1.6l2.1-0.2v-1.2l1.4-0.7l0.4,0.9l0.9-0.5l1.4,0.9
		l2.5-0.2l2.1-0.9l1.4,1.2h1.6l1.2,2.3l1.9,0.9l1.1-2.5l1.4,1.2l3,0.2l1.1-2.1l1.8,1.8l2.5,0.7l0.8-0.8l-1.5-0.5l-0.6-2.3l3.7-3.5
		l-1.8-6.4l-5.1-3.3l-2.1-5.1l-2.3-3.1l0.6-4.3l1.8-1.8l-3.1-2.5l0.1-0.8l-2.8-1.1l-0.9-2.1l-3,0.2l-2.3-0.5l-0.3-2.5l-1.8-0.9
		l-2.3,1.4l-2.7-0.5l-1.8,0.2l-6-0.9l-4.9-2.8l-0.4-1.4l-2.1-2.3l1.4-1.9l-0.5-1.1h-3.1V274.3z"/>
	<path id="dep65" class="st0" d="M172,423.4l-1.9,1h0.3l3.3,5.5l-2.2,2l1.6,2.3l2.3,3.5l-1.9,2.5l-3.1,7l-5.3,4.5l1.4,2.8l-1.2,0.8
		l-2.9-0.6l-0.8,6.4l-1.6,1.2l-0.3,4l0.5-0.3l3.3,2l3.9,2.9l0.4,2.3l3.1,2.5h2.6l6.4-2.8l2.7,3.1l3.7,1l1.4-2.3l1.8,0.8l3.8,0.2
		l-0.2-10.5h2l1.8,0.9l1.2-1.2l-0.2-1.9l2.5-1.4l-0.9-3.7l-1.1-0.9l-2.1,0.7l1.1-1.8l-0.5-2.3l-3.2-2.3l0.2-1.6l1.8-3l2.3-0.9v-1.2
		l1.4-2.1l0.9-1.3l-3.6-1.8h-4.8l-0.7-1.4h-2.5l-0.7-1.6h-2.3l-0.7,0.7h-2.7l-0.2-1.6l-2.1-1.4l0.7-0.7l0.3-1.8l-0.5-0.5l-1.1-2.8
		l-2.3-0.3l-2.3-1.2l0.2-3.3h-3L172,423.4L172,423.4z"/>
	<path id="dep64" class="st0" d="M164.9,423.7l-2.8,1.6l-5.7-0.2l-0.5-0.9l-3.7,1.2l-2.8,0.9l-2.1-1.6l-2.3,0.7l-0.7-0.9h-2.8
		l-1.8,0.9l-4.6-0.2l-2.5,1.9l-4.4-0.3l-0.9,1.2l-1.1-0.4l1.4-1.4l-2.5-1.9l-3,2.7l-5.1,0.3l-5.6-2.8l-0.8,1.4l-4.5,5.5l-3.5,1.4
		l-2.5,0.4v2.2l2.3,2.2l3.5,0.2l0.2,2.5l2.8,0.2l0.8-1.8l3.7,1.6l2.3,0.6l0.6,2.3l-1.3,1.2v3.7l-2.8,1.4l-0.2,1.8l1.8,2l3.1,1
		l0.6-2.9l1.8-1.9l-0.2,2.5l1.4,2h3.5l1.6,2.1l4.7,0.8l4.5,2.8h7.4l0.4,4.1l5.1,3.9l2,2.3l2.2-1.2l1.9-0.4l1,1l1.8-1l3.4-1.9l0.3-4
		l1.6-1.2l0.8-6.4l2.9,0.6l1.2-0.8l-1.4-2.8l5.3-4.5l3.1-7l1.9-2.5l-2.3-3.5l-1.6-2.3l2.2-2l-3.3-5.5l-5.3-0.4L164.9,423.7z"/>
	<path id="dep40" class="st0" d="M132.6,369.3l-6.2,3.2l-1.6,0.1l-3.5,18.6l-4.5,17.2l-1.4,6.7l-1.2,4.7l-2.9,5l5.6,2.8l5.1-0.3
		l3-2.7l2.5,1.9l-1.4,1.4l1.1,0.4l0.9-1.2l4.4,0.3l2.5-1.9l4.6,0.2l1.8-0.9h2.8l0.7,0.9l2.3-0.7l2.1,1.6l2.8-0.9l3.7-1.2l0.5,0.9
		l5.7,0.2l2.8-1.6l-1.4-2.4l1.4-3.7l1.9-2.5l-0.6-3.3l1.6-1.6l-2.3-3.9l1.9-2.3l2.2-0.4l1.9,0.8l2.8-2.3l1,2.9l1,1.4l2.2-0.6
		l-0.2-2.5l0.6-1.4l-0.5-1.2l0.5-3.9l2.1-2.1l-1.1-1.2l-2.3-0.2l-2.7-1l-3.9,0.3l-0.7-4.2l-2.5-3l-1.1-0.3l0.4,3.5v1.1l-3.4,0.2
		l-3.5-1.2l-0.7-4.4l-2.5-2.7l-1.8-0.2l-0.2-1.6l-1.9-1.2l-3.2-0.9l0.9-1.1v-1.1l-1.1-0.9l-1.2-1.1l-3.6,0.5l-2.1,1.8l-1.4,0.2
		l-2.3-1.6l-3.4,1.4L134,375l1.4-1.8l0.2-2.3L132.6,369.3z"/>
	<path id="dep33" class="st0" d="M134,310.1l-3.1,4.7l-1,16.4l-2.5,16.6l-1.8,12.9l-0.2,3.3l1.4-4.5l2.7-3.5l3.9,3.5l0.4,1.2
		l1.2,1.6l-4.9,0.2l-0.8-1.2l-1.9,0.8L127,365l-2.2,2.9v4.5v0.2l1.6-0.1l6.2-3.2l3.3,1.2l-0.2,2.3l-1.4,1.8l1.6,1.1l3.4-1.4l2.3,1.6
		l1.4-0.2l2.1-1.8l3.6-0.5l1.2,1.1l1.1,0.9v1.1l-0.9,1.1l3.2,0.9l1.9,1.2l0.2,1.6l1.8,0.2l2.5,2.7l0.7,4.4l3.5,1.2l3.4-0.2v-1.1
		l-0.4-3.5l1.1,0.3l2,2.4l3.1-0.5l1.4-1.4l-0.2-1.9l-1.2-1.1l0.4-2h1.9l1.9-1.2l-0.9-1.8l-0.5-2.7l1.4-2.5l3-4.6l1.8-2.1l1.6-0.5
		l0.3-1.8l-2.1-0.2l-0.9-1.9l0.7-1.9l2.5-0.5l1.8-0.5l2.1-0.3l-0.1-0.1l-0.2-3.9l1.9-1.4l-2.5-1.6l-2.5,3l-6,0.2l-0.5-1.4l-1.8-0.9
		l1.4-1.8v-1.9l-0.7-1.1v-1.1l1.8-1.1l0.5-3.2l1.1-2.8l-1.1-1.6h-1.9l-1-1.2l-1,2.1l-1.9-1.4l-2.8,1.4l-2.3-0.4l-4.5-4.5l-2.8-0.2
		l-0.8-6.2l-5.1-0.6l-0.2-2.9l-1,1h-5.8l0.3,1.2l1.4,5.7l0.4,5.7l-1,1.6l-1-4.7l-2.8-10.7l-10-9l0.2-4.1L134,310.1z"/>
	<path id="dep24" class="st0" d="M202.6,305.3l-1.8,3.1l-2.8,0.4l-0.2,4.7l-9.2,6.2l-0.2,6.8l-3.5,3.5l-1.9,1.8l-3.9-0.4l-2.2,3.7
		l-0.6,1.2l1,1.2h1.9l1.1,1.6l-1.1,2.8l-0.5,3.2l-1.8,1.1v1.1l0.7,1.1v1.9l-1.4,1.8l1.8,0.9l0.5,1.4l6-0.2l2.5-3l2.5,1.6l-1.9,1.4
		l0.2,3.9l2.8,2l0.3,3.7l3,1.1l1.8-1.6h3.9l2.1-1.8l1.2,0.2l0.3,1.4h3.9l0.9-1.1l1.4,0.2l1.6,1.8v1.2l-1.4,0.9l0.5,1.2l1.9,0.2
		l2.5-2.3h2.1l1.4,1.6l3.1,1.3l0.2-0.5l1.8-1.8l0.2-2.9l4.3-0.4l2.8-3.9l-1.2-0.4l-0.2-2.1l3.3-0.4l0.2-1.9l1.6-1l1.8-3.1l-1.8-1.9
		v-2.2l1.3-1.2l-1.8-2.8l0.2-4.3l-4.3,0.2l-1.8-1.2l1.6-1.9l-2.2-1.8l1.6-2l-1.6-0.8v-2.7l3.9-3.5l-2.2-1.8L228,319l-4.1-0.6l-1.4-1
		l2.9-1.4l-1-1.3l-4.3-0.6l-1-3.9l-6.2-0.6l-1.4,2l-1.3,0.4l-1.8-2.3l0.8-2.2l-1-1.9L202.6,305.3z"/>
	<path id="dep47" class="st0" d="M188,358.2l-2.1,0.3l-1.8,0.5l-2.5,0.5l-0.7,1.9l0.9,1.9l2.1,0.2l-0.3,1.8l-1.6,0.5l-1.8,2.1
		l-3,4.6l-1.4,2.5l0.5,2.7l0.9,1.8l-1.9,1.2h-1.9l-0.4,2l1.2,1.1l0.2,1.9l-1.4,1.4l-3.1,0.5l0.5,0.6l0.7,4.2l3.9-0.3l2.7,1l2.3,0.2
		l1.1,1.2l-2.1,2.1l-0.5,3.9l0.5,1.2l0.8-1.6l2.3,2l3.1-3.1l1.4,1.9l3.3-0.6l3.5-0.4l1.6-2.8l5.8-0.6l2.9,2.9l1-1l1.9-0.6l-0.8-2.7
		l2.9-0.8l3.7-0.8l-0.8-2.3l1.2-1.4l1-3.7l-2.2-2.3l1.4-4.5l2.9,1.8l4.3-0.8l-2-4.3l-1.6-5.8l3.9-0.2l0.8-2.1l-3.1-1.3l-1.4-1.6
		h-2.1l-2.5,2.3l-1.9-0.2l-0.5-1.2l1.4-0.9v-1l-1.6-1.8l-1.4-0.2l-0.9,1.1h-3.9l-0.3-1.4l-1.2-0.2l-2.1,1.8h-3.9l-1.8,1.6l-3-1.1
		l-0.3-3.7L188,358.2z"/>
	<path id="dep46" class="st0" d="M240.2,342.2l-4.2,1.9l-0.6,0.1l0.1,0.2l-1.3,1.2v2.2l1.8,1.9l-1.8,3.1l-1.6,1l-0.2,1.9l-3.3,0.4
		l0.2,2.1l1.2,0.4l-2.8,3.9l-4.3,0.4l-0.2,2.9l-1.8,1.8l-1,2.6l-3.9,0.2l1.6,5.8l1.7,3.6l2.5-0.1l0.2,1l-1.4,1.6l1.1,2.1h1.6
		l1.8,1.9h1.6l1.2-1.4l0.3,0.4v1.8l0.5,2.3l3.7,0.2l3-3.2l1.6-0.2l0.5,0.9l0.9,1.9h1.4l0.5-3.5l3,0.4l1.8-2.1l2.8,0.7l4.2-1.9v0.4
		l1.4-1.4l-1.8-2.7l-0.7-3.5l2.3-1.9l1.1,0.3l3.2-3.5l1.8,0.2l0.7-0.9h3.5l1.2-1.4l0.3-1.1l-1.6-0.2l1.1-3.3l-2.5-1.1l2.5-5.8
		l-3.3-2.5l-1.1-7.2l-3-0.8l-2.2,2.2l-1.1-1.9l-3.3,3.3l-2.2,0.3l-3.8-5.5L240.2,342.2z"/>
	<path id="dep09" class="st0" d="M230,441.2l-1.2,0.9l-0.5,1.1l2.5,1.8l0.7,1.2l-0.5,1l-4.2,0.4l-1.2,1.8l0.2,0.5l1.6,0.5l0.9,1.2
		l-1.1,1.8l-1.2-0.2l-1.9-1.8l-2.3-0.7l-2.3,0.2l-4.1,2.5l0.2,3.4l1.1,0.7l-0.7,2.6l-4.6,1.2l-1.8,2.1v3.5l0.7,1.1l-1.7,1.5l1.1,0.6
		l6,1.2h2.6l3.3,4.3l8.4-0.4l3.3,5.3l2.9-1.2l8.6,1.2l0.6,3.6l6.1-1.4l2.2-1.9l3.3-0.8l0.8-1.7l7.2-0.5l-4.4-5.2l-3.6,1.9l-6.3-5.2
		l1.4-1.9h5l-0.6-4.7V459l-0.8-6.7l-9.7-4.7l0.6-1.7l-1.8-2.1l-1.6,0.7l-2.1,0.3l-3.9-1.8l-1.1-0.3l1.6,1.9l-0.7,1.6l-3.4-0.3
		l-0.2-1.8l-2-2.7L230,441.2z"/>
	<path id="dep32" class="st0" d="M200.6,396.7l-5.8,0.6l-1.6,2.8l-3.5,0.4l-3.3,0.6l-1.4-1.9l-3.1,3.1l-2.3-2l-1.4,2.9l0.2,2.5
		l-2.2,0.6l-1-1.4l-1-2.9l-2.8,2.3l-1.9-0.8l-2.2,0.4l-1.9,2.3l2.3,3.9l-1.6,1.6l0.6,3.3l-1.9,2.5l-1.4,3.7l1.6,2.8l4.9,0.3l1.9-1h3
		l-0.2,3.3l2.3,1.2l2.3,0.3l1.1,2.8l0.5,0.5l-0.3,1.8l-0.7,0.7l2.1,1.4l0.2,1.6h2.7l0.7-0.7h2.3l0.7,1.6h2.5l0.7,1.4h4.8l3.6,1.8
		l0.3-0.4l1.9-1.1l3.5-4.6l6.6,0.5l2.8,1.9l0.9-1.2l1.4-4.2l1.8-4.1l3.7-1.6l1.8-0.7l-0.5-1.6l-1.8-0.2l-0.7-1.8h-1.4l-2.3-2.3
		l0.2-1.6l-3-3l-0.5-1.9l-1.9,0.8l-0.5-1.1l1.2-1.9l-1.4-1.4V407l-1.2-1.2l-4,0.2v-2.3l2.1-1.6v-1.8l2.3-1.1l-1.2-0.7l-1.4,0.7H206
		l-0.9-0.8l-0.5,0.2l-1,1L200.6,396.7z"/>
	<path id="dep31" class="st0" d="M237.8,407.3l-2.8,1.1l-0.9,1.4l-1.1-1.2l-1.9-0.2l-0.4,1.8l-1.2,0.5l1.8,0.9l-1.2,1.9l-4.4,1.2
		l-1.9-2.3H222l-1.4,0.9h-5.1l-0.5,0.2l0.5,1.9l3,3l-0.2,1.6l2.3,2.3h1.4l0.7,1.8l1.8,0.2l0.5,1.6l-1.8,0.7l-3.7,1.6l-1.8,4.1
		l-1.4,4.2l-0.9,1.2l-2.8-1.9l-6.6-0.5l-3.5,4.6l-1.9,1.1l-1.2,1.8l-1.4,2.1v1.2l-2.3,0.9l-1.8,3l-0.2,1.6l3.2,2.3l0.5,2.3l-1.1,1.8
		l2.1-0.7l1.1,0.9l0.9,3.7l-2.5,1.4l0.2,1.9l-1.2,1.2l-1.8-0.9h-2l0.2,10.5l7.9,0.5l0.4-9.6l2.7,0.4l4,2.3l1.7-1.5l-0.7-1.1v-3.5
		l1.8-2.1l4.6-1.2l0.7-2.6l-1.1-0.7l-0.2-3.4l4.1-2.5l2.3-0.2l2.3,0.7l1.9,1.8l1.2,0.2l1.1-1.8l-0.9-1.2l-1.6-0.5l-0.2-0.5l1.2-1.8
		l4.2-0.4l0.5-1l-0.7-1.2l-2.5-1.8l0.5-1.1l1.2-0.9l1.2,0.3l2,2.7l0.2,1.8l3.4,0.3l0.7-1.6l-1.6-1.9l1.1,0.3l3.9,1.8l2.1-0.3
		l1.6-0.7l-0.4-0.4l2.5-1.1l0.5-3l3.1-1.4l-0.8-1.9l2.8-2.5l1.4,2.5l4.1-1.4l0.8-0.1l0.1-1.3v-2.5l-2.1,0.4l-2.7-0.7l-2.3-2.8
		l-0.9-1.2l-4.6-1.9l-1.1-1.6l1.4-0.5v-1.9l-1.4-1.6l-1.8-2.8l-0.2-2.5l-0.5-0.3l-2.1-2.5l-0.9-2.6L237.8,407.3z"/>
	<path id="dep82" class="st0" d="M213,379.5l-1.4,4.5l2.2,2.3l-1,3.7l-1.2,1.4l0.8,2.3l-3.7,0.8l-2.9,0.8l0.8,2.7l-1.5,0.4l0.9,0.8
		h2.8l1.4-0.7l1.2,0.7l-2.3,1.1v1.8l-2.1,1.6v2.3l3.9,0.2l1.2,1.2v2.5l1.4,1.4l-1.2,1.9l0.5,1.1l2.5-1.1h5.1l1.4-0.9h1.8l1.9,2.3
		l4.4-1.2l1.2-1.9l-1.8-0.9l1.2-0.5l0.4-1.8l1.9,0.2l1.1,1.2l0.9-1.4l2.8-1.1l1.3,0.6l1-1.7l-1.8-1.9h3.3l1.1-1.9l2.3-2.1h-2.3
		l0.7-3l6-0.7l2.3-1.4l2.8-1.1l0.9-0.9l-1.1-2.8l1.6-3.2l-2.8-0.2l-0.3-4.4l-4.2,1.9l-2.8-0.7l-1.8,2.1l-3-0.4l-0.5,3.5H239
		l-0.9-1.9l-0.5-0.9l-1.6,0.2l-3,3.2l-3.7-0.2l-0.5-2.3v-1.8l-0.3-0.4l-1.2,1.4h-1.6l-1.8-1.9h-1.6l-1.1-2.1l1.4-1.6l-0.2-1
		l-2.5,0.1l0.3,0.7l-4.3,0.8L213,379.5z"/>
	<path id="dep12" class="st0" d="M287.5,348.2l-5.5,4.7v4.7h-1.4L280,362l-1.4,0.6l-1.1,2.5h-6.1l-0.5-0.8h-2.8l-1.7,2.8l-0.6-0.1
		l-0.3,1.1l-1.2,1.4h-3.5l-0.7,0.9l-1.8-0.2l-3.2,3.5l-1.1-0.3l-2.3,1.9l0.7,3.5l1.8,2.7l-1.4,1.4l0.3,4l2.8,0.2l-1.6,3.2l1.2,3.2
		l1.6-0.9l0.7,1.6l2.3-2.3l3.4-0.2l3.3,2.5l5.8,1.1l2.1,3.7l3,1.4l1.6,4.1l-0.2,1.6l1.9,3.6v1.9l3.5,4.6l3.4,1.8l2.1-0.5l1.1-1.4
		l1.6,0.4l3.7,2.3l0,0h1.6h3.3L301,413v-1.9h1.7l3,1.7h3l-0.5-3.3l1.7-1.4l3.3-0.5v-2.8l3.6-1.7l-0.8-3.8h-3l-2.8-0.6l-0.6-2.2
		l2.2-0.5v-3l2.2-1.9l-1.7-0.8l-4.7,0.8l0.3-2.2l-3.3-1.4l-0.8-6.6v-4.7l-2.8-1.9l0.3-3.9l-5.8-7.2l-0.6-5.5H293l-0.8-5.5l-3.9,0.6
		l-0.5-3.6L287.5,348.2z"/>
	<path id="dep81" class="st0" d="M263.6,391.7l-3.4,0.2l-2.3,2.3l-0.7-1.6l-1.6,0.9l-0.2-0.4l-0.9,0.9l-2.8,1.1l-2.3,1.4l-6,0.7
		l-0.7,3h2.3l-2.3,2.1l-1.1,1.9h-3.3l1.8,1.9l-1,1.7l0.3,0.1l0.9,2.6l2.1,2.5l0.5,0.3l0.2,2.5l1.8,2.8l1.4,1.6v1.9l-1.4,0.5l1.1,1.6
		l4.6,1.9l0.9,1.2l2.3,2.8l2.7,0.7l2.1-0.4v2.5l-0.1,1.3l1.2-0.2l-0.3,1.4h3.9l3.6,1.1l0.3-3.6h1.7l6.1,1.1h5.8l4.4-1.4l1.1-3.6
		l-3-2.8l0.8-2.8l1.7-2.5l2.8,1.9l7.2-2.5l1.1-2.2l-3.7-2.3l-1.6-0.4l-1.1,1.4l-2.1,0.5l-3.4-1.8l-3.5-4.6V409l-1.9-3.6l0.2-1.6
		l-1.6-4.1l-3-1.4l-2.1-3.7l-5.8-1.1L263.6,391.7z"/>
	<path id="dep01" class="st0" d="M376.1,257.4l-2.2,0.2l-1.4,2.5l-3.7,14.4l-0.5,1.2l-0.4,4.6l-1.1,1.5v6.6l-0.6,1.5l3.8,2.3
		l1.5,0.2l2.3,2.1l0.4,3.4l2.6-0.8l4,1.2l0.1-0.8h1.9l2.8,2.6l2.6-1.3l1.3-3.8l1.3-1.5l1.7,0.2l1.7,1.5l0.9,2.8l7.8,9.6l2.3-1.7
		l0.4-3.6l2.6-0.4v-6.4l1.3-1.1l0.4-5.7l0.5,0.4l-0.1-2.1l-1.1-1.9l0.4-5.5l1.9,1.1l1.1-1.9l1.9-0.6l2-1.6h-2.1v-3.7l2.3-1.4
		l3.5-0.4l0.2-2l-1.2-0.8l2.9-3.7l-0.4-1.2l-3.3-1.8l-8.1,8.9h-5.7v-2.3l-3.1-1.6l-3.7,4.1l-2.9,0.4v-2.8l-2.5-1.2l-3.9-5.5
		l-3.5-1.4l-1.2-2.5l-2-0.4l-1.9,1.4l-1.6,0.4L376.1,257.4z"/>
	<path id="dep38" class="st0" d="M390.7,293.5l-1.3,1.5l-1.3,3.8l-2.6,1.3l-2.8-2.6h-1.9l-0.2,2.8l2.8,2.3l-4.2,5.5l-5.5,1.3
		l-4.2,1.5l2.8,2.8l0.7,1.3l-4.2,2.1l-0.4,6.2l-0.1,0.1l1.2,2.5l3.4,1.1l2.3-0.8l2.8-1.9l3.6,3h3l2.1,3l-0.9,2.1l0.4,3l-1.1,3
		l0.4,1.1l1.5-0.4l3.4,1.1l4.5,1.3l1.9-1.3l0.8-1.5h0.7l0.2,15.9l1.1,1.1h2.8l2.5,1.5l1.9,1.5l1.9,0.2l1.2,1.1l3.5,0.4l0.2-0.6
		L412,359v-2.3h4.9l1.6-1.6l-1-1.8l2.5-2l1.8,0.8l2.5-2.2l4.5,0.8l1.6-1.8l3.7,0.2v-4.3l-1.6-0.8l-0.8-2.5l-4.1-0.4l-0.6-1l0.8-4.1
		l1.4-1.2l-1.1-1.5L426,332l-1.3,1.3l0.4-1.7v-1.7l-1.7-1.7l0.9-4l1.9-1.1l-0.2-2.8l-4-4h-1.5l-1.1,1.5l-2.5-3.4l-1.5,0.2l-1.3,2.8
		l0.9,1.7l-0.7,0.7l-1.7-1.3l-4.9-1.1l-2.3-4.2v-1.7l-2.3-2.5l-0.2-1.1l-7.8-9.5l-0.9-2.8l-1.7-1.5L390.7,293.5z"/>
	<path id="dep74" class="st0" d="M438.9,261l-4.5,0.8l-4.3,3.5l-1.2-1.8l-2.2,0.2l-2,4.3l0.2,1.8l2.1,1.8l-3.9,2.6l-2.5,2.3h-4.3
		l-2,1.6l-1.9,0.6l-1.1,1.9l-1.9-1.1L409,285l1.1,1.9l0.1,2.1l1.6,1.3v5.5l3.8,0.6l1.5,2.8l3.4,0.4l0.6-1.2h1.7l3,3.2l1.1,1.1
		l3.4-0.7l0.8-1.7l0.8-3.4l1.9-1.5l1.5-4.4l1.9-1.3l1.5,0.4l0.4,1.3l-1.1,1.3l1.9,2.3h3.2l1.9,3.2l-0.4,1.1l1.9-1.3l1.5-1.7l1.3,0.2
		l0.1-3.4l6.7-2.8l0.8-1.9l-0.4-4.3l-4.3-4.5l-1.4,0.8v-1.8v-2.9l-3.7-1.8l-0.2-1.6l2.2-2.3v-2.7l-3.5-3.7l-0.2-2.5L438.9,261
		L438.9,261z"/>
	<path id="dep42" class="st0" d="M332.3,272.9l-3.5,0.6l-0.6,2.2l1.4,2.7l0.4,11.1l-4.7,0.2l-0.2,1.8l3.1,2.5l-1.8,1.8l-0.6,4.3
		l2.3,3.1l2.1,5.1l5.1,3.3l1.8,6.4l-3.7,3.5l0.6,2.3l5.5,1.8l4.3-3.5l2.1-0.2l6.2,2.7l-0.4,3.7l3.1-0.2l2.5,2.8l1.8-0.5l3.4-0.6
		l0.9-3.8l4.7-2.8l0.4-6.2l0.2-0.1l-2.3-0.3l-2.1,0.8l-1.7-1.1l2.1-2.5l-0.6-1.9l-6.6-1.1l-5.5-5.1V304l1.3-1.1v-1.5l-1.5-0.9
		l1.2-1.9v-2.8l-2.5-2.3v-2.3l-1.7-1.7v-1.9l-0.8-3.2l1.3-1.3l0.2-3.8h4l1.1-1.3l-1.3-2.1V274l-1.1-0.8l-0.8,4h-2.2l-1.6,1.6
		l-1.2-1.2l-6.2-1l-2.3,1.4h-1.6l-0.4-1.4L333,276l-0.2-3.1H332.3z"/>
	<path id="dep69" class="st0" d="M364.5,270.2l-2.1,0.2l-1.8,1.8l-1.2-1.6l-1.8,1.6l-2.4-1.6h-1.9l-0.8,0.6l-0.4,2.2l1.1,0.8v1.9
		l1.3,2.1l-1.1,1.3h-4l-0.2,3.8l-1.3,1.3l0.8,3.2v1.9l1.7,1.7v2.3l2.5,2.3v2.8l-1.2,1.9l1.5,0.9v1.5l-1.3,1.1v1.7l5.5,5.1l6.6,1.1
		l0.6,1.9l-2.1,2.5l1.7,1.1l2.1-0.8l2.3,0.3l4.1-2l-0.7-1.3l-2.8-2.8l4.2-1.5l5.5-1.3l4.2-5.5l-2.8-2.3l0.2-2l-4-1.2l-2.6,0.8
		l-0.4-3.4l-2.3-2.1l-1.5-0.2l-3.8-2.3l0.6-1.5v-6.6l1.1-1.5l0.4-4.6l-0.7,1.6l-1.4-0.2l-0.8-3.9L364.5,270.2z"/>
	<path id="dep73" class="st0" d="M409.8,288.7l-0.4,5.7l-1.3,1.1v6.4l-2.6,0.4l-0.4,3.6l-2.3,1.7l0,0l0.2,1.1l2.3,2.5v1.7l2.3,4.2
		l4.9,1.1l1.7,1.3l0.7-0.7l-0.9-1.7l1.3-2.8l1.5-0.2l2.5,3.4l1.1-1.5h1.5l4,4l0.2,2.8l-1.9,1.1l-0.9,4l1.7,1.7v1.7l-0.4,1.7l1.3-1.3
		l2.1,1.3l1.1,1.5l3.5-0.4l1.2,1.2l0.6,2.8l3.5-0.4l0.4-2.9l1.8-0.8l3.8,0.2l-0.1-0.1l5.8-2.3l2.2,1.4h2.2l0.2-2.3l2.5-1.4l1-1.2
		l5.1-2l0.6-3.3l-1-1.6l2.8-4.7l-2.5-1l-0.8-2.8l-5.3-3.1c0,0,0.3-6-0.2-7.1c0,0,0-0.1-0.1-0.1l0,0l0,0l0,0l0,0l0,0l0,0
		c-0.8,0.2-3.7,0.4-3.7,0.4l-2.9-3.3l0.1-3.2l-1.3-0.2L447,298l-1.9,1.3l0.4-1.1l-1.9-3.2h-3.2l-1.9-2.3l1.1-1.3l-0.4-1.3l-1.5-0.4
		l-1.9,1.3l-1.5,4.4l-1.9,1.5l-0.8,3.4l-0.8,1.7l-3.4,0.7l-1.1-1.1l-3-3.2h-1.7l-0.6,1.2l-3.4-0.4l-1.5-2.8l-3.8-0.6v-5.5
		L409.8,288.7z"/>
	<path id="dep07" class="st0" d="M368,323.3l-4.5,2.7l-0.9,3.8l-3.4,0.6l-1.8,0.5l0.1,0.1l-1.2,4.7l-2.8,1.2l-1.2,2l0.8,2.5l0.6,1.4
		h-2.9l-0.2,3.7l-3.1,0.2l-1.6,4.9h-4.7l-5.1,3.7l-2.8,4.5l0.5,0.6l1.4,7.2l3.3,3.6l-0.6,4.1l4.2,2.5v5.5l2.2-1.1l4.7,3.1l2.2,0.8
		l0.5-3.9l2.8-0.5l0.8,3l2.8-0.3l0.5-3l6.3,3.6l1-2.1l2.7-0.4l0.2-4.1l-0.6-0.9l-0.8-0.2v-1.5l0.6-1.5l-1.1-1.7l0.6-3.8l2.6-3v-4.2
		l-1.1-4.9l1.9-0.4l0.4-2.1l1.9-3.6l1.1-2.8l-1.7-4.2l-1.1-3.4l-1.5-5.9v-8l-1.1-0.3L368,323.3z"/>
	<path id="dep26" class="st0" d="M377.7,324.1L375,326l-2.3,0.8l-2.3-0.7v8l1.5,5.9l1.1,3.4l1.7,4.2l-1.1,2.8l-1.9,3.6l-0.4,2.1
		l-1.9,0.4l1.1,4.9v4.2l-2.6,3l-0.6,3.8l1.1,1.7l-0.6,1.5v1.5l0.8,0.2l0.6,0.9l-0.2,4.1l2.6-0.4l1.2,1.4l-0.6,3.9l0.8,1l2.9-2.9
		l2.6-0.2l0.6-1.6l-3.3-0.4l-0.6-3.5l2.1-3.3l2.8-0.2l2.7,2.6l-2.7,3.7l0.8,1.4l3.9,0.4l2.5-2.2l-1.4,2.9l0.4,2.3l4.1,0.4l5.5,0.4
		l0.8,2.5l2.9,2.2l2.5,0.2l1.8-1.6l1-2.9l1.6,1.4l1.2,1.4l0.8-7.2l-1.9-0.4l-1.2-2.5l-6.6-1.8L398,376l2.4-1.6l-2-1.4l0.4-1.8
		l3.1,0.2l2.7,1.4l2.2-2.5l-2.2-1.8l0.2-2.3l1.2-3.7l4.1-0.4l3.3-1.3l0.3-0.8l-3.5-0.4l-1.2-1.1l-1.9-0.2l-1.9-1.5l-2.5-1.5h-2.8
		l-1.1-1.1l-0.2-15.9h-0.7l-0.8,1.5l-1.9,1.3l-4.5-1.3l-3.4-1.1l-1.5,0.4l-0.4-1.1l1.1-3l-0.4-3l0.9-2.1l-2.1-3h-3L377.7,324.1z"/>
	<path id="dep17" class="st0" d="M142.1,265.5l-2.8,0.2l-6,3.6l1.4,1.3l-3.1,2.5l-0.4,2l-2.9,0.4l-1.6-1.8l-3.9-0.4l-0.4-2l-2.3-1.6
		l-3.3,1.2l2.2,3.1h2.7l2.8,1.8l2.2,1.8l4.1-0.2l0.8,1.8l2.7,0.6l1,2.7l1.8,0.8l-0.2,2.2l-2.3-0.4l-0.8,1.2l1.8,2.5l-1,4.3l-2.3-0.2
		l0.2,2.7l0.6,1h-2.8l-0.4-1.6l1.8-2.3l-0.6-1.3l-1-0.8l-0.4-4.7l-3.3-0.4l-2.7-3.3l-0.4,6.8l4.5,3.3l0.4,3.7l0.8,4.3l0.4,4.3
		l2.3-0.2l4.1,3.3l2.8,1.6l0.2,1.9l2.2,0.4l6.2,6.2l1.5,6.8h5.8l1-1l0.2,2.9l5.1,0.6l0.8,6.2l2.8,0.2l4.5,4.5l2.3,0.4l2.8-1.4
		l1.9,1.4l1.6-3.3l1.6-2.7l-4.2-2.8l-1.3-1.7l-1.7-1.9l-4,0.7l-1.3-0.7l-0.2-1.1l2.1-0.8v-0.4l-1.5-0.4l-1.1-0.8l2.6-2.1v-1.5
		l-1.3-1.3l0.8-0.8l0.4-2.1l-1.5-1.5l-1.3-2.1l-2.3-2.1l-1.7-1.1l1.5-1.7l-0.8-0.2l-0.2-4.5l-1.7-0.7l2.3-1.2h2.8l1.2-1.1h2.3
		l0.4,1.1l2.1,0.2l1.5-0.6l0.4-4l1.7-6.2h0.1l-1.5-1.5l-0.4-2.1l-2.8-1.3l-3.6-2.5l-4.5,0.4l-2.8-3.6l-4-0.2l-3.2-2.3v-1.3l-2.1-2.3
		l-0.1-2.9L147,267l-3.7,1.6L142.1,265.5z"/>
	<path id="dep19" class="st0" d="M258.5,302.5l-0.8,2.1l-3.2,0.6l-1.2,2.1h-1.5l-2.1-0.6l-1.5,2.5l-2.3,0.2l-1.5,2.8h-1.9l-1.5,1.5
		l-3.8-0.4l-1.3,2.1l-1.5-0.2l-2.6,3.2l-2.3-0.9l-1.1,2.2l0.8,2.2l2.2,1.8l-3.9,3.5v2.7l1.6,0.8l-1.6,2l2.2,1.8l-1.6,1.9l1.8,1.2
		l4.3-0.2l-0.2,4.3l1.6,2.6l0.6-0.1l4.2-1.9l5,2.2l3.8,5.5l2.2-0.3l3.3-3.3l1.1,1.9l2.2-2.2l3,0.8l0.1,0.7l2.5-1.8l-0.8-1.9
		l-1.2-1.2l1.6-1.9h1.6l1-3.1l0.8-1.6l-0.6-3.5l2.5-3.5l3.5-2.2l0.2-5.5l1.8,1l2,2.2h1.9l1.2-1.4l-1-2.3l1-3.5l-0.6-3.3l-1.2-1.4
		v-2.8l1.8-2.9l-0.4-2.8l-0.4-0.4l-2,1.5h-3.8l-1.2,1.9H269l-1.9-1.9l-0.9-1.3h-4.9l-1.1-1.5L258.5,302.5L258.5,302.5z"/>
	<path id="dep23" class="st0" d="M248.9,262.7l-1.2,3.1l-3.5-0.2l-0.8-0.4l-2.3,0.2l-1.8-1.2l-3.4,3.9l0.1,2.9l-2.3,4.7l0.4,2.3
		l2.5,0.6l1.7,4.2l1.7,1.7l-0.6,8.1l3.6-1.1l1.5,1.9l-2.3,1.9v1.9l1.9,0.2l3.4-0.2l1.1-1.5h0.8l-0.4,2.6l2.8,1.2l2.6,1.7v1.1h-1.5
		l0.4,2.5l1,0.6l0.2-0.4l3.2-0.6l0.8-2.1h1.5l1.1,1.5h4.9l0.9,1.3l1.9,1.9h2.3l1.2-1.9h3.8l2-1.5l-4.1-4.1l-0.4-1.8l3.7-2.2l2.2-1.2
		l0.6-2.8l2.3-1.8l-0.8-3.7l-1.6-1.9l-0.4-6.1l-2.2-5.1l-2.2-0.8l-1.6-2.8l-1.4,1.8l-1.3-1.8V267l-2.3-3.3l-6.4,0.8l-3.7-1
		L248.9,262.7z"/>
	<path id="dep87" class="st0" d="M232.3,265.7l-1.8,1.8l-4.9-0.4L225,267l-3.7,0.7l-2.2,1.8v2.3l-4.3,0.2l-2.5,2.9l-1.6,1.2l1.3,1.6
		l-0.2,5.3l-1,1.8l1.6,1.8l2.7,0.2l0.6,2.7l0.2,1.8l-3.5,0.8l-1.8,0.6l0.4,4.9l-2.3,1.6l-2,0.6l-1,2.8l-1.6,0.2l-0.7,3l4.6,0.2
		l1,1.9l-0.8,2.2l1.8,2.3l1.3-0.4l1.4-2l6.2,0.6l1,3.9l4.3,0.6l1,1.3l-2.9,1.4l1.4,1l4.1,0.6l0.3,0.8l1.1-2.2l2.3,0.9l2.6-3.2
		l1.5,0.2l1.3-2.1l3.8,0.4l1.5-1.5h1.9l1.5-2.8l2.3-0.2l1.5-2.5l2.1,0.6h1.5l1-1.7l-1-0.6l-0.4-2.5h1.5v-1.1l-2.6-1.7l-2.8-1.2
		l0.4-2.6h-0.8l-1.1,1.5l-3.4,0.2l-1.9-0.2V296l2.3-1.9l-1.5-1.9l-3.6,1.1l0.6-8.1l-1.7-1.7l-1.7-4.2l-2.5-0.6l-0.4-2.3l2.3-4.7
		l-0.1-2.9l-0.5,0.6L232.3,265.7z"/>
	<path id="dep86" class="st0" d="M181.5,220.5l-3.7,3.9l-0.9,1.6l0.3,4.8l1.7-0.2l0.2,2.1l0.7,3.4l1.1,2.3l-1.3,1.5l0.6,1.1
		l-0.8,1.5v0.6l1.5,1.7v1.1l-0.7,1.7l-2.1,3.2l2.1,0.8l0.7,1.5l-0.9,2.3l-0.2,1.1l-1.3,2.1v1.5l0.8,0.2v4.5l1.5,1.1l-0.7,1.5
		l0.2,1.3l1.7,1.9l0.9-1.3v-1.1l1.7-0.8l1.3,0.8v3.2l-1.3,1.5l-1.1,2.5l1.5,2.3l3,0.8l-0.7,1.9l-2.8,0.5l2.6,3.1l3.4-0.2l3-1.1
		l3,1.7l1.1-0.8l-0.2-2.8l1.7-1.3l1.5,2.6l1.2,1.3l3.6-1.5l1.5-1.7h3.4l1.8,0.9l0.1-3.7l-1.3-1.6l1.6-1.2l2.5-2.9l4.3-0.2v-2.3
		l2.2-1.8l5.3-1l0.4-2.9l-2.1-1.2l-1.2-4.1l-3.1-0.4l-1.9-1.9l-3.7-2.9l0.8-2.3V247l-3.5-3.5l-0.4-2.8l-3.3-3.5l-1.2-4.7l-1.4-0.6
		l-1.6-2.2l-1.6,1l0.4,2.2l-5.1,1.2h-5.8l0.2-2.3v-3.7l-4.7-1.4v-2.3l-3.7-0.8l-0.8-3.1L181.5,220.5L181.5,220.5z"/>
	<path id="dep16" class="st0" d="M199.1,279.7l-1.7,1.3l0.2,2.8l-1.1,0.8l-3-1.7l-3,1.1l-3.4,0.2l-2.6-3.1l-0.8,0.2l-3.4,1.7
		l-2.6,0.7v1.5l-1.5,1.7l0.4,1.1l-1.9,1.1l-1.7,6.2l-0.4,4l-1.5,0.6l-2.1-0.2l-0.4-1.1h-2.3l-1.2,1.1h-2.8l-2.3,1.2l1.7,0.7l0.2,4.5
		l0.8,0.2l-1.5,1.7l1.7,1.1l2.3,2.1l1.3,2.1l1.5,1.5l-0.4,2.1l-0.8,0.8l1.3,1.3v1.5l-2.6,2.1l1.1,0.8l1.5,0.4v0.4L166,325l0.2,1.1
		l1.3,0.7l4-0.7l1.7,1.9l1.3,1.7l4.2,2.8l0.6-1l3.9,0.4l1.9-1.8l3.5-3.5l0.2-6.8l9.2-6.2l0.2-4.7l2.8-0.4l1.8-3.1h1.1l0.7-3l1.6-0.2
		l1-2.8l2-0.6l2.3-1.6l-0.4-4.9l1.8-0.6l3.5-0.8l-0.2-1.8l-0.6-2.7l-2.7-0.2l-1.6-1.8l1-1.8l0.1-1.6l-1.8-0.9h-3.4l-1.5,1.7
		l-3.6,1.5l-1.2-1.3L199.1,279.7z"/>
	<path id="dep79" class="st0" d="M174.5,224.3l-5.3,0.2l-4.9,1l-5.3,0.4v2.7l-2.7,1.8l-6.1-1.4l-4.1,1.8l1.9,2.8v2.3l4.7,3.9
		l-1.2,2.5l3.1,3.5l-1.4,1.8l1.9,2.9l0.6,5.5l-1.2,1.6l1.4,2.3l-1.4,2.6l0.2,1.6l1.6-1.2l1.9,2l-2.7,1.8l-1,1.2l-2.2,0.6l-2.5,1.2
		l-0.2-0.2l0.1,2.9l2.1,2.3v1.3l3.2,2.3l4,0.2l2.8,3.6l4.5-0.4l3.6,2.5l2.8,1.3l0.4,2.1l1.5,1.5l1.8-1L176,287l1.5-1.7v-1.5l2.6-0.7
		l3.4-1.7l3.6-0.6l0.7-1.9l-3-0.8l-1.5-2.3l1.1-2.5l1.3-1.5v-3.2l-1.3-0.8l-1.7,0.8v1.1l-0.9,1.3l-1.7-1.9l-0.2-1.3l0.7-1.5
		l-1.5-1.1v-4.5l-0.8-0.2V259l1.3-2.1l0.2-1.1l0.9-2.3L180,252l-2.1-0.8l2.1-3.2l0.7-1.7v-1.1l-1.5-1.7v-0.6l0.8-1.5l-0.6-1.1
		l1.3-1.5l-1.1-2.3l-0.7-3.4l-0.2-2.1l-1.7,0.2l-0.3-4.8l-0.4,0.7l-1.4-1.2L174.5,224.3z"/>
	<path id="dep85" class="st0" d="M131.3,224.4l-1.1,2.1H127l1.3,1.3l-1,3.2l-2.9,1l-1.1-0.8l0.5-3.2l-0.8-1.8h-1.8l-1.3,1.4l0.6,4.5
		l1.5,2.1l-1.5,1.6l-2.7-0.5l-4-1l-1.1-3.1L110,231l-3.4-1.5l-0.8-1.9l-3.7-2.4l-5.8,7.5l-0.2,4.7l6,5.8L102,245h1.8l3.7,11.2
		l3.9,1.9l3.9,3.9h4.5l1.8,3.9h4.3l1.9,2.9l4.3,2.2l0.2-2.8l1.1,1l6-3.6l2.8-0.2l1.2,3.1l3.7-1.6l3.1,2.3l2.5-1.2l2.2-0.6l1-1.2
		l2.7-1.8l-1.9-2l-1.6,1.2l-0.2-1.6l1.4-2.6l-1.4-2.3l1.2-1.6l-0.6-5.5l-1.9-2.9l1.4-1.8l-3.1-3.5l1.2-2.5l-4.7-3.9v-2.3l-1.9-2.8
		l0.4-0.2l-2.7-2.2h-5l-1.6-1L135,227l-2.6-2.4L131.3,224.4z"/>
	<path id="dep50" class="st0" d="M112.3,72.3l-0.8,2l4.1,3.3v4.3l-1.6,1.9l1,1l0.6,0.4l-0.4,3.7l1.4,3.1l4.5,5.1l1,4.5l1,1.4v7
		l2.3,4.7v5.5l-2.5,5.1l2.7,7l4.3,1l0.4,2l-2.1,1h-3.7l0.6,2.5l1.2,3.7l3.3,2.9l1.6,0.4l1.6-2.1l1.8-0.2l2.1-2.5l2,1.6h2.3l1.6,0.8
		v0.4l3.3,0.4l2-1.6l2.9,1.2l0.1,0.1l3.3-2.8l1.1-3.7l-0.3-1.6l0.5-1.9l-1.9-1.9l-5-3.2l-3.7-0.3l-3.7-4.7l3.1-1.1l1.3-2.4l-1.6-1.5
		l1.4-1.3l1.4,1.1l2.6-1.6l1.6-2.6l0.6-2.6l-1.1-2.3l0.7-0.8l-1.5-2.4l1.6-2.1l-1.3-1.6l-1.6,2.1l-2.2-1.3l-3.7-3.7l-0.2-1.6
		l1.1-1.1l-0.3-2.2l-1.8,0.5l-0.2-4.7l-5.1-6l1.6-3.9h2.2l-1.9-5.3l-8.4-0.4l-4.5,3.1l-5.1-3.3L112.3,72.3z"/>
	<path id="dep44" class="st0" d="M125.6,180.7l-0.2,2.2l-4.3,0.6l-2,1.9l-0.8,2.2l-12.1,0.6l-5.1,2.7l-0.2,5.5l-5.5,2.2l-3.7,1.9
		h-3.1l-1.2-1.3l-1.8,1.8H85l1,0.7l-3.7,3.3l0.8,0.8l0.8,1.6l-2,2.8l2.2,1.2l3.7,0.8l0.4-1.6l2.2,2.8h3.5l2.5-2.8h3.3l-3.5,1.8
		l0.2,2l0.8,1.8l-2.2,2.2h-2.3L93,221l4.3-0.8l5.1,4.7l-0.2,0.3l3.7,2.4l0.8,1.9l3.4,1.5l2.6,0.3l1.1,3.1l4,1l2.7,0.5l1.5-1.6
		l-1.5-2.1l-0.6-4.5l1.3-1.4h1.8l0.8,1.8l-0.5,3.2l1.1,0.8l2.9-1l1-3.2l-1.3-1.3h3.2l1.1-2.1l1.1,0.2l2.6,2.4l1.9,0.2l0.1-2
		l-1.6-2.1H134l-0.5,0.2l-1-0.5l0.8-0.8v-1.5l1.6-0.5l1-2.2L135,217l-0.2-2.8h-2.1l-2.1-2.6v-1.9l2.2-1.2l4-0.8l6.3,0.2l1.9-1.3
		l-0.7-4l-2.9-2.7l-3.5,0.5l-1-0.8l-0.2-2.9l2.6-2.3l-1.9-2.4l-1.3-3.4l-2.1-1.3v-2.2l-0.2-0.7l-3.7-0.9l-1.8-2.3L125.6,180.7z"/>
	<path id="dep49" class="st0" d="M134.7,183.5l-0.4,0.9l-0.3-0.1l0.2,0.7v2.2l2.1,1.3l1.3,3.4l1.9,2.4l-2.6,2.3l0.2,2.9l1,0.8
		l3.5-0.5l2.9,2.7l0.7,4l-1.9,1.3l-6.3-0.2l-4,0.8l-2.2,1.2v1.9l2.1,2.6h2.1l0.2,2.8l0.8,0.8l-1,2.2l-1.6,0.5v1.5l-0.8,0.8l1,0.5
		l0.5-0.2h1.4l1.6,2.1l-0.1,2l0.4,0.1l1.6,1h5l2.7,2.2l3.7-1.6l6.1,1.4l2.7-1.8v-2.7l5.3-0.4l4.9-1l5.3-0.2l0.6,1.4l1.4,1.2l1.3-2.3
		l3.7-3.9h1.5l2.2-8l3.1-3.7l-0.2-4.3l2-2.6v-1.2l-1-1.2l0.6-1.3l-2.7-1l-8.2-5l-7.6-2.2l-2.9-0.2V188l-1.8-1.5h-1.9l-3.6-1.1
		l-2.2,2.2l-5.2,0.2l-2.3-1.3l-5.8-1.8l-1.3,1.6l-3.2-2.1h-2.9L134.7,183.5z"/>
	<path id="dep72" class="st0" d="M195.2,146.7l-5.3,0.2l-5.3,4.9l-2.8-0.2l-3.7,1.2l-1.1,1.9l-0.5,4.2l0.3,2.6l-2.9,2.4l-0.8,1.6
		l0.7,1.5l-0.8,1.9l0.3,0.8l-3.2,0.3l-0.5,1.4l1.4,3.6l-0.2,1l-1.3,1.1l-2.8,0.2l-0.3,1l0.7,1v5.8l-0.6,1.5l1.8,1.4v1.9l2.9,0.2
		l7.6,2.2l8.2,5l2.7,1l1.3-2.6l3.9,2.8h2.2l-1.2-3.9l2.4,1.6l1.3-2l5.7-1.6l-1-2.3l1.4-1.8l2.9-1.2l2.7-3.5v-3.7h2l0.8-2.7l0.2-4.1
		l-1.9-1.8l1.6-2.7l2.3-2.9l-2.7-1.9l-2.5-0.4l-2.8-4.1h-0.8l-0.2,1.9l-0.2-1.3H203l-2-2.9l-3.3-1.2l-1-7L195.2,146.7z"/>
	<path id="dep53" class="st0" d="M175.3,141.3l-1.9,0.2l-0.8,1.9l-2.9,1.2l-5.3-0.8l-5.3,3.1l-1.9-1.4l-2.9,2l-2.2-1.6l-1.4-2.3
		l-2.9-1.2l-2,1.6l-3.3-0.4l-0.2,5.1l1,0.8v3.9l-2,2v3.1l0.6,1.9v5.7l1.4,1.4v5.3l-3.3-0.4l-1.4,0.8l-2.5,6.2l-1,3.5l-0.3,0.7
		l3.5,0.7h2.9l3.2,2.1l1.3-1.6l5.8,1.8l2.3,1.3l5.2-0.2l2.2-2.2l3.6,1.1h1.9l0,0l0.6-1.5v-5.8l-0.7-1l0.3-1l2.8-0.2l1.3-1.1l0.2-1
		l-1.4-3.6l0.5-1.4l3.2-0.3l-0.3-0.8l0.8-1.9l-0.7-1.5l0.8-1.6l2.9-2.4l-0.3-2.6l0.5-4.2l1.1-1.9l3.7-1.2h-0.6l-1-3.5l-2.5-1
		l-0.8-4.3L175.3,141.3z"/>
	<path id="dep14" class="st0" d="M195.4,92.6l-4.6,0.8l-7.4,4.3L175,101l-6.7-3.7l-16-2.3l-3.7-1.9l-5.8,1.5l0.3,2.2l-1.1,1.1
		l0.2,1.6l3.7,3.7l2.2,1.3l1.6-2.1l1.3,1.6l-1.6,2.1l1.5,2.4l-0.7,0.8l1.1,2.3l-0.6,2.6l-1.6,2.6l-2.6,1.6l-1.4-1.1l-1.4,1.3
		l1.6,1.5l-1.3,2.4l-3.1,1.1l3.7,4.7l3.7,0.3l2.8,1.8l3.9-1.2l2.9-3.4l4,1.1l3.5-2.4l2.1-0.8l2.2,2.2l3.7-0.7l3.2,1.8l4-1.3l3.7-2.8
		l2.4-2.8l1.6-0.3l0.5,2.1l1.3-0.3l0.2-1.5l3.7-0.6l1.3,0.8l4-0.9l0.7-1.9l-0.2-1.8l-2-0.8l-0.2-1.4l1.8-1.2l0.2-2l-1.2-4.7
		l-2.3-3.3l2-1.2v-0.8l-2-0.6L195.4,92.6z"/>
	<path id="dep61" class="st0" d="M199.6,119.5l-4,0.9l-1.3-0.8l-3.7,0.6l-0.2,1.5l-1.3,0.3l-0.5-2.1l-1.6,0.3l-2.4,2.8l-3.7,2.8
		l-4,1.3l-3.2-1.8L170,126l-2.2-2.2l-2.1,0.8l-3.5,2.4l-4-1.1l-2.9,3.4l-3.9,1.2l2.2,1.4l1.9,1.9l-0.5,1.9l0.3,1.6l-1.1,3.7
		l-3.3,2.8l1.3,2.2l2.2,1.6l2.9-2l1.9,1.4l5.3-3.1l5.3,0.8l2.9-1.2l0.8-1.9l1.9-0.2l1.8,1.6l0.8,4.3l2.5,1l1,3.5l3.3,0.2l5.3-4.9
		l5.3-0.2l1.6,2.1l1,7l3.3,1.2l2,2.9h4.1l0.2,1.3l0.2-1.9h0.8l2.8,4.1l2.1,0.3v-4.6l-1.3-1.8l-0.4-1.6l2.9-1.8l2.9-0.6l1.9-2.3
		l-0.4-7.2l-4.1-3.5l-0.2-3.3l-3.5-2.3l1.4-1.9l-0.8-2.9l-2.7-1l-2-2l-1.2-2.7l-5.5-0.2l-1.6-2L199.6,119.5z"/>
	<path id="dep28" class="st0" d="M239.9,120.9l-1.2,1v3.1l-3.9,1.9v2.9l-1.2,1.4h-4.9l-2.3-1l-7.1,3.7h-2.7l-2.8,2.7l0.7,0.4
		l0.2,3.3l4.1,3.5l0.4,7.2l-1.9,2.3l-2.9,0.6l-2.9,1.8l0.4,1.6l1.3,1.8v4.6l0.4,0.1l2.7,1.9l-1,1.2l1.9,1l3.1-0.6h1.8l-0.1,0.8
		l-1.7,1l1.1,0.8h2.8l1,2.2l1.7,1l1.2,2.8l4.3,1.1l2.7-0.3l2.4-2.2l2.1,0.6l0.5-1.2l-0.1-1.2l1.1-0.8l1.8,1.1l1.1-0.8v-1.5l1.5-1
		l1.4,0.6l1.2,1.4l2.2-1.2h2.4l1.7-1.8l1-3.6l1.5-0.3l-0.4-3.7l1.8-1.5l-0.6-1.1l0.2-0.4l-0.5,0.1L257,153l-0.4-0.6l-0.4-2.5
		l-4.1-0.8l-1.8-2.2l-0.6-4.3l-2.3-0.4L247,140l-2.7-1.9l-1.4-3.3l1.4-2.3l-1.4-1.6V129l0.8-2.2l-1.6-1.6l-0.6-2.3L239.9,120.9z"/>
	<path id="dep89" class="st0" d="M311.2,152.2l-1.8,1.3l-7.6-0.4l-3.5,1.8l-1.4,2.9l1.6,1.8l-2.3,2.8l-1.8,2.1l3.5,3.3l1,3.1
		l2.6,2.7v3.5l-5.1,4.3l1.8,2l-0.4,2.9l-2.8,2h-3.9l0.6,2.2l2.5,3.5l0.6,3.1l0.6,2.2l-1.2,0.3l2.5,0.6h1.8l1-1.5h1.2l1.4,1.2
		l-0.3,1.6l1.3,0.8h1.8l2.5,1.7l1.1-0.6l1.1,1l1.1-0.3l1.9-1.2l1.8,0.6l1.2-0.3v-3.5l0.7,0.1l0.4,1.8l2.2,1.4v2.1l3.2,0.1l4.2,3.9
		l2.7,0.1l-0.2-1.2l1.1-1.7l1,1.2l-0.8,1.4l0.4,1.3l1.5-1h1.8l-0.2,2.8l1.7,1.1l1.3-0.6l3.1-2.1l-0.2-0.4l-1.8-1.1l-0.1-2l2-1
		l0.8-1.1l-0.6-1v-2.2l1.5-2.2l2.2-4.8l0.4-2.1l1.4-0.6l0.2-0.4l-0.7-0.6v-1.7l2.2-1.7l0.6-2.8l-1-1.7H345l-0.4-0.4v-2.4l2-1.4
		l-0.2-1.4l-0.3-1.4l-1,2.2l-1.4-0.2l-1.2-2.2l-3.9,2l-7.8-0.4l-1-2.2l-2.2-2.9l0.4-3.3l-3.1-3.7l-2,1.4l-3.5-2.7l0.6-5.3l-5.1-5.3
		h-2.3L311.2,152.2z"/>
	<path id="dep70" class="st0" d="M416.3,170.3l-3.7,0.6l-0.6,1.9l-2,1.4l-1.3-1.6l-1,0.6l0.8,1.2l-1.9,1.2l0.6,1.6L405,178v2.5h-2.8
		l-0.2,1.6l-2.7,0.6l0.2,2.3l1.8,0.2l-1,1.2l-0.6,3.9h-1.8l-2.9,1.2l-3.1-1.2l-2.7,1.2v2l2.1,0.4l1.6,3.1l0.2,1.6l-2.5,2.9l-1.2,0.4
		l-0.8,1l2.2,1l0.4,3.1l1.8,0.2l0.2,3.9l0.8,0.8l0.1,0.6l1.5,0.4l1.7,1.4h2.5l1-1l1.7,0.1l1.8,0.1l3.9-3.2h1.1l1.2-1l4.1,0.1
		l3.1-2.5l2.2-0.4l0.8-2.1l1.8-0.6l1.8-3.1l2.5-2l2.7-0.4l2,1.4l3.7-0.4v-2l1.5-0.8l1.2-1.6h2.2l1.2-1.3l0.5-3.1v-1.9l-0.8-3v-2.5
		l1.5-1.1l1.8-0.9l-0.2-0.4l-6.2-3.3l-1.8-2l-1.8-1.2l-1.6,0.8l-0.2,1.2l-1.6,1h-1l-2.9-3.3h-4.1l-1.8,1.4l-1.6,0.2l-2.5-1.9
		l0.2-2.2L416.3,170.3z"/>
	<path id="dep76" class="st0" d="M234.7,56.3l-1.3,1.6l-8.4,6.4L210.2,68l-9.8,3.5l-8,4.3l-4.7,7l-1,5.5l3.9,2.9l5.7,1.2l-0.9,0.2
		v0.2l4.4-0.6l2.2-2.4l1.7-0.4l1.9,3.4l2.7-0.3l1.1,1.9l4.8-0.3l4.8,3.4l-3.1,1l2.2,1.7h1.4l1.2,2.7h2.2l0.7-1.7l-1.7-1.1l4.8-1.4
		l5-0.6l1.3-3.7l2.4-2.1l4.5-0.1l5.2,2.7l3.1,0.3l0.5-1.6l1.4-2.6l0.8-1.3h-2v-3.3l-1.2-1.9l0.8-3.9l0.8-2h-1.6l0.8-1.9l1.9-2.3
		l-1.9-3.5l-0.6-3.5l-8.6-8.4l-1-1.9l-2.2,0.2L234.7,56.3z"/>
	<path id="dep27" class="st0" d="M203.8,89.4l-1.7,0.4l-2.2,2.4l-4.4,0.6l0.9,7.2l2,0.6v0.8l-2,1.2l2.3,3.3l1.2,4.7l-0.2,2l-1.8,1.2
		l0.2,1.4l2,0.8l0.2,1.8l-1.6,4.5l1.6,2l5.5,0.2l1.2,2.7l2,2l2.7,1l0.8,2.9l-1.4,1.9l2.8,1.9l2.8-2.7h2.7l7.1-3.7l2.3,1h4.9l1.2-1.4
		V127l3.9-1.9V122l1.1-0.9l-0.1-0.9l1-1l-1.8-0.4v-1.6l-1-1.6l0.8-1l5.5-1.6l1.4-2.3l1.2-4.3l1.4-1.8l0.3-2.3l1.8,1l1.4-0.4l-1-1.6
		l-0.6-4.5l-1.8-1.6v-0.1l-3.1-0.3l-5.2-2.7l-4.5,0.1l-2.4,2.1l-1.3,3.7l-5,0.6l-4.8,1.4l1.7,1.1l-0.7,1.7h-2.2l-1.2-2.7h-1.4
		l-2.2-1.7l3.1-1l-4.8-3.4l-4.8,0.3l-1.1-1.9l-2.7,0.3L203.8,89.4z"/>
	<path id="dep37" class="st0" d="M205,191.7l0.4,0.9l-5.7,1.6l-1.3,2l-2.4-1.6l1.2,3.9H195l-3.9-2.8l-1.9,3.9l1,1.2v1.2l-2,2.6
		l0.2,4.3l-3.1,3.7l-2.2,8h0.2l0.8,3.1l3.7,0.8v2.3l4.7,1.4v3.7l-0.2,2.3h5.8l5.1-1.2l-0.4-2.2l1.6-1l1.6,2.2l1.4,0.6l1.2,4.7
		l3.3,3.5l0.4,2.8l3,3l1.7-0.2l2.1-2l1.5-8l1-2.8l0.7-3.5l3.1-1.1l2.1,0.4l1.4,1.3l1.5-2.5l1.4-1.3v-1.5l1.8-0.1l0.4-1.8l-1.6-2.1
		l0.2-0.9l-1.1-0.9l-2.9-4.3h-3.8l-1.1-1.7v-7l-1.5-4.1l-0.3-5l-2-0.2l-2.2-1.7h-0.6l-2,1.4l-1.2-0.8l-0.3-1.9l1.4-0.7l0.1-0.7
		l-0.8-0.7L205,191.7z"/>
	<path id="dep45" class="st0" d="M266.5,155.3l-2.5,2.3l-5.7,0.5l-0.2,0.4l0.6,1.1l-1.8,1.5l0.4,3.7l-1.5,0.3l-1,3.6l-1.7,1.8h-2.4
		l-2.2,1.2l-1.2-1.4l-1.4-0.6l-1.5,1v1.5l-1.1,0.8l-1.8-1.1l-1.1,0.8l0.1,1.2l-0.5,1.2l0.4,0.1h1.7l-0.1,1.1l-1.1,1.9v1h1.1l1,1.1
		l0.3,1.1l-2.2,2.2l1.1,2.7v1.2l1.8,1.2l2.5,0.3l1.7,1.4l0.4,2.4l1.8,2.1l2-0.6l0.8-1.8l3.1,0.4l0.7,0.7h2l1-1.1l7.2,0.3l1.7,2.5
		l2,0.8l1.7,1.6l2.1-0.3l0.6-0.7h1.2l1.6,2l3.2,0.2l0.8,1.1l2.2,3.1l1,0.8l1.2-0.1l0.2-2.8l0.6-0.3l0.8,0.1l1.4,1.8l1,0.4l2-0.8
		l-0.3-0.3l-0.2-2l3.9-1.2l-0.6-2.2l-0.6-3.1l-2.5-3.5l-0.6-2.2h3.9l2.8-2l0.4-2.9l-1.8-2l5.1-4.3V173l-2.6-2.7l-1-3.1l-3.5-3.3
		l-4.9,2.8l-0.4-1.6l-2.2-0.2l-0.6,1.6l-1.9,0.4l-5.3-0.2l-2.2,1.4l-1.8-1.6l3.1-2.2l-0.2-3.3l-2.3-1.2l-2-2.9l-5.2-0.4L266.5,155.3
		z"/>
	<path id="dep36" class="st0" d="M247.5,216.3l-1.2,0.4l-2.5-0.2l-2.9,1l-0.7,1.5l-0.3-0.6l-3.4,0.2l-1.7,1.4l-2,0.3l-0.3,1l1.6,2.1
		l-0.4,1.8l-1.8,0.1v1.5l-1.4,1.3l-1.5,2.5l-1.4-1.3l-2.1-0.4l-3.1,1.1l-0.7,3.5l-1,2.8l-1.5,8l-2.1,2l-1.7,0.2l0.5,0.5v3.7
		l-0.8,2.3l3.7,2.9l1.9,1.9l3.1,0.4l1.2,4.1l2.1,1.2l-0.4,2.9l-1.6,0.3l0.6,0.1l4.9,0.4l1.8-1.8l3.1,3.1l3.9-4.5l1.8,1.2l2.3-0.2
		l0.8,0.4l3.5,0.2l1.2-3.1l9.8,1.2l3.7,1l1.7-0.2l0.1-1.6l2-2l-0.4-1.7l-1.1-2.2l0.4-0.8l0.2-2.5l0.7-0.8l0.2-0.6l-1.7-1.5l-0.6-2
		l-2.7-1.4v-1.7l1.9-1.1v-1.1l-1.8-1.5l-0.6-1l1.4-0.7l-0.1-1.2l2.2-1.8l-0.1-0.8h-1.8l-1.1-1.3v-0.7l1-1.7v-1.2l-2.2-3l0.4-2.7
		l-1.3-1l-2.7,0.1l-2.1,0.8l-2.8-0.4l-1.4-1.1l-0.3-0.8l2.2-1.8l0.2-2.2l-3-1.7L247.5,216.3z"/>
	<path id="dep41" class="st0" d="M215.3,167.1l-1.3,1.7l-1.6,2.7l1.9,1.8l-0.2,4.1l-0.8,2.7h-2v3.7l-2.7,3.5l-2.9,1.2l-1.4,1.8
		l0.6,1.5l9.5,0.3l0.8,0.7l-0.1,0.7l-1.4,0.7l0.3,1.9l1.2,0.8l2-1.4h0.6l2.2,1.7l2,0.2l0.3,5l1.5,4.1v7l1.1,1.7h3.8l2.9,4.3l1.1,0.9
		v-0.1l2-0.3l1.7-1.4l3.4-0.2l0.3,0.6l0.7-1.5l2.9-1l2.5,0.2l1.2-0.4l1.7,1.6l3,1.7l2.5-0.2l-0.1-2.5l1.1-1.2l1.1-0.1l1,1.1l3.9-0.4
		l2.5-1.4l-0.3-1l-0.7-0.8l0.1-1.8l1.8-3.3l2.4-1v-2.1l0.6-1.2l-1.5-0.6l-1-2.1l-2.5-0.7l-0.1-0.8l2.5-2.1l2.8-1.4l-1.6-2.4
		l-7.2-0.3l-1,1.1h-2l-0.7-0.7l-3.1-0.4l-0.8,1.8l-2,0.6l-1.8-2.1l-0.4-2.4l-1.7-1.4l-2.5-0.3l-1.8-1.2v-1.2l-1.1-2.7l2.2-2.2
		l-0.3-1.1l-1-1.1h-1.1v-1l1.1-1.9l0.1-1.1h-1.7l-2.5-0.7l-2.4,2.2l-2.7,0.3l-4.3-1.1l-1.2-2.8l-1.7-1l-1-2.2h-2.8l-1.1-0.8l1.7-1
		l0.1-0.8h-1.8l-3.1,0.6L215.3,167.1z"/>
	<path id="dep18" class="st0" d="M268.3,195.7l-2.8,1.4l-2.5,2.1l0.1,0.8l2.5,0.7l1,2.1l1.5,0.6l-0.6,1.2v2.1l-2.4,1l-1.8,3.3
		l-0.1,1.8l0.7,0.8l0.3,1l-2.5,1.4l-3.9,0.4l-1-1.1l-1.1,0.1l-1.1,1.2l0.1,2.5l-2.5,0.2l-0.2,2.2l-2.2,1.8l0.3,0.8l1.4,1.1l2.8,0.4
		l2.1-0.8l2.7-0.1l1.3,1l-0.4,2.7l2.2,3v1.2l-1,1.7v0.7l1.1,1.3h1.8l0.1,0.8l-2.2,1.8l0.1,1.2l-1.4,0.7l0.6,1l1.8,1.5v1.1l-1.9,1.1
		v1.7l2.7,1.4l0.6,2l1.7,1.5l-0.2,0.6l-0.7,0.8l-0.2,2.5l-0.4,0.8l1.1,2.2l0.4,1.7l-2,2l-0.1,1.6l4.6-0.6l0.9-2l2.5-2.9l4.9-1
		l2.6,0.8l2.7-2.1l-0.2-1.6l-1-0.8V251l5.2-5.3l2,2.2l1.8-1.8l1.6-0.2l2.7-3.5l4.5,0.4l0.1,1.1l1.5-4.8l-1-1.8l0.2-2.5l0.6-5.1
		l-2.2-2.1l0.4-4.7l-2-4.1l-0.2-2.7l-3.5-2.8l-0.6-2.3l1.8-2.5v-3.7l-2-2.4l-2,0.8l-1-0.4l-1.4-1.8l-0.8-0.1l-0.6,0.3L286,204
		l-1.2,0.1l-1-0.8l-2.2-3.1l-0.8-1.1l-3.2-0.2l-1.6-2h-1.2l-0.6,0.7l-2.1,0.3l-1.7-1.6l-2-0.8L268.3,195.7z"/>
	<path id="dep21" class="st0" d="M356.1,172.1l-0.4,2.5l-2.5,1.4l-6.4,0.2l0.3,1.4l0.2,1.4l-2,1.4v2.4l0.4,0.4h1.6l1,1.7l-0.6,2.8
		l-2.2,1.7v1.7l0.7,0.6l-0.2,0.4l-1.4,0.6l-0.4,2.1l-2.2,4.8l-1.5,2.2v2.2l0.6,1l-0.8,1.1l-2,1l0.1,2l1.8,1.1l0.7,1.5l-0.3,2.1
		l-0.4,1.5l1,1.7l2.8,0.6l1.2,2v0.8l-0.8,0.3v2l0.2,0.1l3.8,3.9l3.9-0.1l3.5,2.7l2.5,1.8l0.1,2.4l2.7,0.6l2.2,1.8l5.9-2.1l4.1-1.3
		l1.8-0.3l0.6-0.8l2,0.1l1.5,1l2.2-0.6l2.2-1.5l1.7,0.2v-0.2l1.3-0.8l-0.2-1l-0.4-1.2l1-1.6l3.3-1.6v-1.6l1.2-1.6l1.2-1.6l-0.4-1.4
		l0.6-2.2l0.4-3.1h0.8l-0.2-1.2l-0.8-0.8l-0.2-3.9l-1.8-0.2l-0.4-3.1l-2.2-1l0.8-1l1.2-0.4l2.5-2.9l-0.2-1.6l-1.6-3.1l-2.3-0.4
		l-0.8,2l-4.3,1l-0.4-1l-3.1-3.9l-1.8,1l-2.3-0.2l-0.8-1.6l-3.1,0.2l-0.2-3.3l-1.8-1.2l2.5-2.7l-4.5-6.1l-3.5-3.7l-3.1-1.8h-5.6
		L356.1,172.1L356.1,172.1z"/>
	<path id="dep58" class="st0" d="M299.5,198.6l-1,1.5h-1.8l-2.5-0.6l-2.8,0.8l0.2,2l2.3,2.7v3.7l-1.8,2.5l0.6,2.3l3.5,2.8l0.2,2.7
		l2,4.1l-0.4,4.7l2.2,2.1l-0.6,5.1l-0.2,2.5l1,1.8l-1.5,4.8l0.1,1.5l3.3,1.6l2.3,2.6l2.1-1.2l2-1.2l0.4,1.8h2.9l0.8-1.6l1.8,0.8
		l0.6,2.5l1.6-0.4l3.7-5.1l1.9,1.4l0.3,0.6l3.1-1.9l1.2,0.2l1,2.4l1.8-0.3l1.4-1.4h1.8l1.4-1.8l1.4-0.3l0.3-1l3.1,0.2l0.2-0.7
		l-1.4-1.2v-1.2l2-1.1v-0.8l-1.8-1.1l-0.3-2.1l0.2-2l-1.2-0.8l1.1-1.5l1-0.6l0.7-1.7l-1-0.6l-1.1-1.7l1.4-2l2.4-1.4h2.9v-2.2
		l0.8-0.3v-0.8l-1.2-2L341,217l-1-1.7l0.4-1.5l0.3-2.1l-0.5-1.1l-3.1,2.1l-1.3,0.6l-1.7-1.1l0.2-2.8h-1.8l-1.5,1l-0.4-1.3l0.8-1.4
		l-1-1.2l-1.1,1.7l0.2,1.2l-2.7-0.1l-4.2-3.9l-3.2-0.1V203l-2.2-1.4l-0.4-1.8l-0.7-0.1v3.5l-1.2,0.3l-1.8-0.6l-1.9,1.2l-1.1,0.3
		l-1.1-1l-1.1,0.6l-2.5-1.7h-1.8l-1.3-0.8l0.3-1.6l-1.4-1.2L299.5,198.6L299.5,198.6z"/>
	<path id="dep71" class="st0" d="M344.2,222.7v0.2h-2.9l-2.4,1.4l-1.4,2l1.1,1.7l1,0.6l-0.7,1.7l-1,0.6l-1.1,1.5l1.2,0.8l-0.2,2
		l0.3,2.1l1.8,1.1v0.8l-2,1.1v1.2l1.4,1.2l-0.2,0.7l-3.1-0.2l-0.3,1l-1.4,0.3l-1.4,1.8h-1.8l-1.4,1.4l-1.8,0.3l-1-2.4l-1.2-0.2
		l-3.1,1.9l3.6,6.8v2.9l1,1.2h3.3l1.2,1.6h3.1l1.4,1.9l-0.2,7.6l-4.1,3.1l-0.1,0.2h0.3l0.6,0.2l0.2,3.1l2.9,0.6l0.4,1.4h1.6l2.3-1.4
		l6.2,1l1.2,1.2l1.6-1.6h2.2l1.2-6.2l0.8-0.6h1.9l2.4,1.6l1.8-1.6l1.2,1.6l1.8-1.8l2.1-0.2l1,3.1l0.8,3.9l1.4,0.2l1.2-2.8l3.7-14.4
		l1.4-2.5l2.2-0.2l2.2,1.8l1.6-0.4l1.9-1.4l2,0.4l1.2,2.5l1.1,0.4l5.1-0.6l2-1.6l-0.8-1.2l-2.3-0.8l-0.2-2.7l2-1.4l0.8-3.3l-1.8-3.1
		l-1.2-1.6l0.6-0.6V242l-1.6-1l-0.4-1.6l4.5-0.6l0.4-1.6h-1.4l-1.2-1.4h-2.2l-1.8-2.9l-1.6-0.2l0.2-2.3l-1.7-0.2l-2.2,1.5l-2.2,0.6
		l-1.5-1l-2-0.1l-0.6,0.8l-1.8,0.3l-4.1,1.3l-5.9,2.1l-2.2-1.8l-2.7-0.6l-0.1-2.4l-2.5-1.8l-3.5-2.7l-3.9,0.1l-3.8-3.9L344.2,222.7z
		"/>
	<path id="dep39" class="st0" d="M393.9,212.4l0.1,0.5h-0.8l-0.4,3.1l-0.6,2.2l0.4,1.4l-1.2,1.6l-1.2,1.6v1.6l-3.3,1.6l-1,1.6
		l0.4,1.2l0.2,1l-1.3,0.8l-0.2,2.5l1.6,0.2l1.8,2.9h2.2l1.2,1.4h1.4l-0.4,1.6l-4.5,0.6l0.4,1.6l1.6,1v1.9l-0.6,0.6l1.2,1.6l1.8,3.1
		l-0.8,3.3l-2,1.4l0.2,2.7l2.3,0.8l0.8,1.2l-2,1.6l-5.1,0.6l2.4,0.9l3.9,5.5l2.5,1.2v2.8l2.9-0.4l3.7-4.1l3.1,1.6v2.3h5.7l8.1-8.9
		l-0.3-0.2l0.4-4.1l2.9-3.5l-2-0.8l0.2-1.2l-2.4-0.2l-0.2-1.4l1.5-1.5l-0.4-1.5l-0.8-2l3.5-1.1l1.3-1.8l0.3-2.2l-2.8-2.7l-2-0.5
		l-4.3-1.4v-3.9l-0.3-2.9l-3.5,0.3l-5.5-1.8l0.8-1.9l1.2-3l0.4-1.9l-1.4-1.8l-2.5-1.7l-0.3-2.1v-1.2l-1.7-0.1l-1,1H397l-1.7-1.4
		L393.9,212.4z"/>
	<path id="dep51" class="st0" d="M330.1,94.2l-2.3,1l0.4,1.9h-4.1l-3.7,2.8v5.2l2.7,1.8l0.8,1.8l-4.5,0.4l-0.6,1.8l1.8,1.2l-0.8,1.2
		l-1.8,0.8l0.4,1.3h2.5l1,1.4l-1.8,1.2l-1.6,4.1l-2.9,1.4l-1,2.1l-1,1.2l0.2,1.2l-1.6,1l-0.4,2.7l1.6,1l0.8,2.9l-1,1.8l0.6,1.4
		l2.9-0.2v1l0.8-0.2l3.4,3.6l4.8-0.8l5.6-3.8h3.3l3.4-2.4l4-2.2l3,0.2l0.4,4l3.6,5.3h4l5.6-1.2l4,1.4l4.2-3l0.6-4.9l4.6-0.8
		l-0.1-3.1l-3.7-2.9l-0.4-1.6l1.4-2.3l-1.2-1l1.2-2.9l2.2-1l1.6-4.9l-3.1,0.2l1.8-1.9l-1.4-4.3l-1.3-2.9l1.8-1.6l-1-0.2l-0.2-1.3
		h-0.3l-1.8-1.6l-2,2h-0.6l-0.8-1L359,102l-0.8,1.2h-1.4l-1.2-2.6H353l-0.6,0.6l-2.6-0.2l-3.2-2.4l-2.2-0.6l-0.8-1.2l-4.2-2.6
		l-4.8-0.1l0.1,1.8l-1.4,0.4L330.1,94.2z"/>
	<path id="dep60" class="st0" d="M250,75.1l-1.3,1.5l-0.8,1.9h1.6l-0.8,2l-0.8,3.9l1.2,1.9v3.3h2l-0.8,1.3l-1.4,2.6l-0.6,1.8
		l1.8,1.6l0.6,4.5l1,1.6l-1.4,0.4l-1.8-1l-0.3,2.3l0.1-0.2l0.8,1.8l1.2,1.9l5.3,0.4l3.7-0.4l2.5-1.9l3.1,1.9l1.6,1.2l2.3-0.6l2.1-1
		l4.1,2.2l4.3,2.5l1.4,1.4l2.3-1.6l1.9,1.2l1.2,1l1.8-0.2l1.2-1.6l2.7,1.6l3.3-1.4l1.9,0.6l1.9-1.6l1.2-0.6l0.4,0.3l0.4-2.7
		l-1.4-1.6l-2.4-1.6l-1,1.6l-0.6,0.2l-0.2-3l1.8-0.4l-0.4-2.8l-2.4-0.4l1.2-2l3.4-0.8l1.2-4.8l1.8-0.8l-2.4-1.8l0.8-1.8l0.4-5.9
		l-0.8-4.6l-4.1,0.4l-2.8-0.4l-5,1.6l-4.4,4.2L280,83l-3.6-0.4l-2.8-2.8l-5-1.4L262,79l-1.8-1.4h-3.6l-2.6,1l-1.2-0.8v-2.2l-0.4-0.6
		L250,75.1L250,75.1z"/>
	<path id="dep62" class="st0" d="M262,3.5l-10.8,2.1l-8.6,6.6v26.4l-0.1,0.8l3,0.7l1,2.2l2.3-0.6l1.4-1.8l1.8,0.6l3.7,2.9l1.4-0.6
		l1,2.3l3.5,1.6v1.9l2.6,1l2.5-1l4.9-0.6l1.2,1l2.3-1l1.2,2l-2.9,1.9v2.8l1,1l0.8-0.2l0.6-1.6l1.8-1.2l1.8,1.4l4.1,1.4h1.8v-2
		l2.6,1.8l0.2,1.6l-1.2,1.8l2.2-1.2l1.8-0.8l0.8,1.4v1.4l2.9-1.6h4.7l0.2,0.2l1.2-2.2l-0.6-1l-1.8-0.4h-2l-1.2-0.4l2-1.2l1.8,0.2
		l1.8-0.2l0.2-3.2l1.2-0.8l0.2-1.8l-2.2-1.4l-2.6-0.2l-0.6-0.4l1.6-1.2l0.4-1.2l-1.4-1l-2-2.4l0.2-1.2l2.6-1.2l0.4-1.4l-1.8-0.8
		l-1-2.6l-3.6-0.4l-3.6-1l-0.4-4l2.6-1.6l-1-2h-2l-1.4,2.2l-6.2-0.4l-5-1.2l-2.8-3v-2.4l2.2-1l-1.8-1.4l-4.3-0.2L266,9.1L262,3.5z"
		/>
	<path id="dep59" class="st0" d="M278.6-1.1l-6.2,2.9l-9.8,1.6L262,3.5l3.7,5.9l2.6,6.6l4.3,0.2l1.8,1.4l-2.2,1V21l2.8,3l5,1.2
		l6.2,0.4l1.4-2.2h2l1,2L288,27l0.4,4l3.6,1l3.6,0.4l1,2.6l1.8,0.8l-0.4,1.4l-2.6,1.2l-0.2,1.2l2,2.4l1.4,1l-0.4,1.2l-1.6,1.2
		l0.6,0.4l2.6,0.2l2.2,1.4l-0.2,1.8l-1.2,0.8l-0.2,3.2l-1.8,0.2l-1.8-0.2l-2,1.2l1.2,0.4h2l1.8,0.4l0.6,1l-1.2,2.2l1.6,1.6l1.6,0.4
		l1.6-1h2.2l0.6,1.2l0.8-0.2l2.3-1.4l2.1,1l3.1-2.2h1.4l1.6,1.4l3.1-2.2l1.3,0.2l1.2,1l4.3,0.4l0.4,1.8l2.2-1.9h1.2l0.8,2.5l3.7,1
		l1.1-0.7H337l-0.2-1.9l3.9-2.3l-0.6-3.7l-3.7-1l1-1v-2.7l2.9-2.2l-0.8-1.6l-6.2-4.9l-10.9,0.6l-1.2,1.9h-1.4l0.2-6.8l-3.1-3.7
		l-2.3,0.4l-1.4-1.6l-3.9,1.8l-1.3-1.3l-2.8-0.4l-0.8-2.5l-0.2-7.8l-1.8-0.8l-0.2-1.2H301l-0.4-2.3l-2.5,0.2l-4.9,1.6l-2.3,2.9h-2.3
		l-1.6-1.9l-0.6-2.2l-1.9-2.2h-2.8l-1.2-2.1V9.1l1.3-2.1l-0.7-3L278.6-1.1z"/>
	<path id="dep02" class="st0" d="M321.2,57.1l-3.1,2.2l-1.6-1.4h-1.4L312,60l-2.3-1.4l-2.3,1.4l-0.8,0.2L306,59h-2.2l-1.6,1h-0.1
		l0.5,2.8l-2.6,2.8v2.6l-1.8,2l0.4,2.4l1,4l1.2,6.8l-0.4,5.9l-0.8,1.8l2.4,1.8l-1.8,0.8l-1.2,4.8l-3.4,0.8l-1.2,2l2.4,0.4l0.4,2.8
		l-1.8,0.4l0.2,3l0.6-0.2l1-1.6l2.4,1.6l1.4,1.6l-0.4,2.7l1.8,1.3l0.6,4.3l5.2,5.1l1.8,0.6l1,2.3l3.3,0.7l0.4-0.5l1-2.1l2.9-1.4
		l1.6-4.1l1.8-1.2l-1-1.4h-2.5l-0.4-1.3l1.8-0.8l0.8-1.2l-1.8-1.2l0.6-1.8l4.5-0.4l-0.8-1.8l-2.7-1.8v-5.2l3.7-2.8h4.1l-0.4-1.9
		l2.3-1l3.3,2.2l1.4-0.4l-0.2-6.7l0.6-2.3l0.8-2.7l-2.6-1.4l0.6-1.6l3.7-0.8V78l2.9-1.6l0.8-2.3l-1-1.6l0.2-2.9l1.8-1.6l-1.8-3.3
		l0.5-3.5h-4l-1.1,0.7l-3.7-1l-0.8-2.5h-1.2l-2.2,1.9l-0.4-1.8l-4.3-0.4l-1.2-1H321.2z"/>
	<path id="dep80" class="st0" d="M242.6,39.3l-0.5,6.4l4.3,3.9v2l-5.3-3.1l-6.3,7.8l1.7,0.7l2.2-0.2l1,1.9l8.6,8.4l0.6,3.5l1.9,3.5
		l-0.7,0.8h2.5l0.4,0.6v2.2l1.2,0.8l2.6-1h3.6L262,79l6.7-0.6l5,1.4l2.8,2.8L280,83l3.6,1.2L288,80l5.2-1.4L296,79l4.1-0.4l-0.4-2.2
		l-1-4l-0.4-2.4l1.8-2v-2.6l2.6-2.8l-0.5-2.8l-1.5-0.4l-1.8-1.8h-4.7l-2.9,1.6V58l-0.8-1.4l-1.8,0.8l-2.2,1.2l1.2-1.8l-0.2-1.6
		l-2.6-1.8v2h-1.8L279,54l-1.8-1.4l-1.8,1.2l-0.6,1.6l-0.8,0.2l-1-1V52l2.9-1.9l-1.2-2l-2.3,1l-1.2-1l-4.9,0.6l-2.5,1l-2.6-1v-1.9
		l-3.5-1.6l-1-2.3l-1.4,0.6l-3.7-2.9l-1.8-0.6l-1.4,1.8l-2.3,0.6l-1-2.2L242.6,39.3z"/>
	<path id="dep08" class="st0" d="M360.4,50.7l-2,2.9l-1.8,1.8v1.8v2.3l-2.3,1.6l-4.3,1.4l-2.3,1l-2.8-2.2h-3.7l-0.5,3.5l1.8,3.3
		l-1.8,1.6l-0.2,2.9l1,1.6l-0.8,2.3l-2.9,1.6v2.5l-3.7,0.8l-0.6,1.6l2.6,1.4l-0.8,2.7l-0.6,2.3l0.1,4.9l4.8,0.1l4.2,2.6l0.8,1.2
		l2.2,0.6l3.2,2.4l2.6,0.2l0.6-0.6h2.6l1.2,2.6h1.4l0.8-1.2l4.8,0.2l0.8,1h0.6l2-2l1.8,1.6c0,0,0.2,0,0.3,0l-0.5-1l2.3-1.2l1.2-1.2
		l-0.8-1.9l-0.2-1.4l2.2-1.8l0.8-3.9l-2.3-2.9l0.8-1.4l2-3.7l0.6,0.8h2.9l1.4,1.3l1.8-1.2l1.4-2.2l-1.4-0.2l-0.8-3.9l-1.6-1.2
		l-5.5-0.6l-1-2.5l-1.8-1.2l-6.2-0.8l-0.4-4.5l0.8-0.8V64l-3.1-2l0.6-2.2l0.8-1.9l-1.4-1.2l2.2-1.9v-3.5l-0.8-0.6
		C363.5,50.7,360.4,50.7,360.4,50.7z"/>
	<path id="dep10" class="st0" d="M342.1,133.5l-4,2.2l-3.4,2.4h-3.3l-5.6,3.8l-4.8,0.8l-3.4-3.6l-0.8,0.2v0.6l-2.7,1.2l-0.2,2.3
		l-1.4,1.8l-0.8,3.9l-0.4,3.3l1.2,1h2.3l5.1,5.3l-0.6,5.3l3.5,2.7l2-1.4l3.1,3.7l0.4,3.5l2.2,2.9l1,2.2l7.8,0.4l3.9-2l1.2,2.2
		l1.4,0.2l1-2.2l6.4-0.2l2.5-1.4l0.4-2.5h5.7l0.8,0.4l-0.7-2.5l-1.6-1l2.2-2l3.4-0.2l1.2-1.8l-0.2-7.1l-0.8-4.2l-3.4-1.2l-3.6-5
		l0.2-3l1-2.2l-1.8-0.6l-5.6,1.2h-4l-3.6-5.3l-0.4-4L342.1,133.5z"/>
	<path id="dep52" class="st0" d="M371.9,134.6l-4.6,0.8l-0.6,4.9l-4.2,3l-2.2-0.8l-1,2.2l-0.2,3l3.6,5l3.4,1.2l0.8,4.2l0.2,7.1
		l-1.2,1.8l-3.4,0.2l-2.2,2l1.6,1l0.7,2.5l2.3,1.3l3.5,3.7l4.5,6.1l-2.5,2.7l1.8,1.2l0.2,3.3l3.1-0.2l0.8,1.6l2.3,0.2l1.8-1l3.1,3.9
		l0.4,1l4.3-1l0.8-2h0.2v-2l2.7-1.2l3.1,1.2l2.9-1.2h1.8l0.6-3.9l1-1.2l-1.8-0.2l-0.2-2.3l2.7-0.6l0.2-1.6h2.8V178l2.2-0.8l-0.6-1.6
		l0.6-0.4l-1.8-1.4l-2.1,0.8v-4.1l-5.5-2.7l1.2-5.3l1.8-1.2l-0.6-1.8l-2.6-0.4l-0.6-2.6h-2.3l-2.8-3.7l-3.1-0.2l-1.3-1.9l1.8-1.8
		l-4.1-4.5l-1.8-0.6l-4.7-2.3l-2.5-2.7l-4.1-0.6L371.9,134.6z"/>
	<path id="dep67" class="st0" d="M473.5,107.1l-3.7,1l-1.7,3v2.9l-1.6,1.4h-1.4l-2.5-1.8l-2,1.4h-2.3l-1.9-1.9l-3.7-0.6l-2.2-1
		l-0.8-2.9l-1.8,1.9l-1,4.5l-2.6,0.8v2.5l2.6,1.2l1.9,1.4l-0.8,1.8l1.8,1.2l3.1-2.3l5.4,3.1L456,129l0.2,1.4l1.6,1.6l-1.2,4.1
		l-3.9,3.9l-2.2-0.2l1.4,1.3l-0.8,3.5l0.8,5.3l3.7,1l-0.3,0.7l2.9-0.2l1.7,2.1l1.5,1.9l3.8-0.2l1.7,5l3,1.3v-0.6l5.1-10l-0.6-5.7
		l2.3-7.6l0.6-6.7l5.1-3.7v-2.3l2-2.6h1.6l1.8-1.8l-0.4-3.3l1.8-4.7l2.7-0.6l-2.7-2.2l-4.9-0.6l-4.3-2.2l-2.9,1.8l-1.6-1.8h-2
		L473.5,107.1L473.5,107.1z"/>
	<path id="dep54" class="st0" d="M394.4,83.3l-2.3,2.2l-3.3,0.2l-1.2,1.2h-0.2l-0.1,2.3l1.2,1.9l-0.4,1.2l-0.4,1.3l0.2,0.8l1-0.8
		l0.9-1.7l1.9-0.2l3.2-1l1.7,1.3l0.8,1.5l0.6,1.7V97l0.9,0.8v1.3l-0.9,1.2l-0.2,2.5l0.8,1.2l0.2,1.5l0.2,2.5l1.2,1l1.7,0.8l-0.8,1.5
		l2.1,1.9l-1.9,2.1l0.4,1.3l1.9,0.9v1h-2.3l-1,1.3l0.2,1l1.5,1.5l-1.3,3.6l-1.5,3.4l0.8,2.1v3.4l0.8,1.7h1.1l0.6,1h-1.7l-1.5,0.8
		v1.2l1.9,1.7v2.7l1.9-0.6l2.9,0.2l0.2,3.1l1.2,0.4l-1.3,0.9l-0.2,1l2.1,0.4l1.3,1.7l6.3-0.4l1.3-2.5h2.9l1.2-0.9l1.9,1.2l1.7-0.6
		l2.5,0.2l2.1-0.8l2.1-1.5l1.2,1.2l0.2-2.7l1.5-0.6l0.8,2.5l2.3,0.2l2.3,0.6l0.9,0.2l3.3-1.5l1.7-1.2l1.5-1.9l3.1-1.2l2-0.4
		l-1.1-1.1l2.2,0.2l0.4-0.4l-2.3-0.8l-3.2-2.3l-2.9-2.1h-3.4l-3.6-2.1l-2.9-0.2v-0.8l-4.4-2.7l-5-2.1H423l-0.9-2.7l-3.8-4.8h-3.8
		l-1.5-2.1h-3.1l0.2-3.1l-4-2.5l0.2-2.5h2.1v-2.1l0.8-1.5l-1.7-1.7l1.5-2.7l-1.2-3.1l-0.9-0.8l-2.5-5.3l1-1.5c0,0-0.1-1.3-0.2-2.9
		h-2.6l-3.5-3.9L394.4,83.3L394.4,83.3z"/>
	<path id="dep77" class="st0" d="M300.3,111.3l-1.2,0.6l-1.9,1.6l-1.9-0.6l-3.3,1.4l-2.7-1.6l-1.2,1.6l-1.8,0.2l-1.2-1l-1.9-1.2
		l-2.3,1.6l-0.1-0.1l-0.8,5.4l1.2,6.9v4.6l-1.5,3.8l0.4,2.7l-1.7,1.3l0.9,5.2l-0.8,1.1l-0.6,5.2l1.3,1.7l-4.4,2.9v3.9l1.2,1.8
		l2.3,1.2l0.2,3.3l-3.1,2.2l1.8,1.6l2.2-1.4l5.3,0.2l1.9-0.4l0.6-1.6l2.2,0.2l0.4,1.6l4.9-2.8l1.8-2.1l2.3-2.8l-1.6-1.8l1.4-2.9
		l3.5-1.8l7.6,0.4l1.8-1.3l0.2,0.2l0.4-3.3l0.8-3.9l1.4-1.8l0.2-2.3l2.7-1.2v-1.6l-2.9,0.2l-0.6-1.4l1-1.8l-0.8-2.9l-1.6-1l0.4-2.7
		l1.6-1l-0.2-1.2l0.6-0.7l-3.3-0.7l-1-2.3l-1.8-0.6l-5.2-5.1l-0.6-4.3L300.3,111.3z"/>
	<path id="dep68" class="st0" d="M458.4,151.4l-2.9,0.2l-1.8,4.2l-2.3,4.7l0.6,2.9l-1.9,4.5l-3.3,2.9l-0.2,7.6l-2.4,2.1l0.1,0.1
		l0.8,1.6l3.1,0.2l3.5,2.8l0.6,1.3l-0.2,2.3l-1,1.8l0.4,2.3l2.8-0.4l0.6,2.2l1,4.2l2.3-0.4l-0.4,2.1l1.4,1.2l7.2-0.2l3.7-2.9
		l0.2-4.3l2-2.5l-2.6-2.9l-1.3-3.1l1.6-2.1v-4.9l1-2.3v-3.9l1.8-2.5l-1.9-2.7l-0.2-5.6l-3-1.3l-1.7-5l-3.8,0.2l-1.5-1.9L458.4,151.4
		z"/>
	<path id="dep55" class="st0" d="M382.9,81.4l-1.4,2.2l-1.8,1.2l-1.4-1.3h-2.9l-0.6-0.8l-2,3.7l-0.8,1.4l2.3,2.9l-0.8,3.9l-2.2,1.8
		l0.2,1.4l0.8,1.9l-1.2,1.2L369,102l0.4,2.2l1,0.2l-1.8,1.6l1.3,2.9l1.4,4.3l-1.8,1.9l3.1-0.2l-1.6,4.9l-2.2,1l-1.2,2.9l1.2,1
		l-1.4,2.3l0.4,1.6l3.7,2.9l0.2,6.8l4.1,0.6l2.5,2.7l4.7,2.3l1.8,0.6l4.1,4.5l-0.4,0.4l3.4-0.4v-1.7l3.8-0.8v-1.3h0.9v1.1l3.1-0.9
		l1.2-1.6l-0.2,0.1v-2.7l-1.9-1.7v-1.2l1.5-0.8h1.7l-0.6-1h-1.1l-0.8-1.7v-3.4l-0.8-2.1l1.5-3.4l1.3-3.6l-1.5-1.5l-0.2-1l1-1.3h2.3
		v-1l-1.9-0.9l-0.4-1.3l1.9-2.1l-2.1-1.9l0.8-1.5l-1.7-0.8l-1.2-1l-0.2-2.5l-0.2-1.5l-0.8-1.2l0.2-2.5l0.9-1.2v-1.3l-0.9-0.8v-1.7
		l-0.6-1.7l-0.8-1.5l-1.7-1.3l-3.2,1l-1.9,0.2l-0.9,1.7l-1,0.8l-0.2-0.8l0.4-1.3l0.4-1.2l-1.2-1.9l0.1-2.3H386l-0.8-3.7l-1.6-1.6
		L382.9,81.4z"/>
	<path id="dep57" class="st0" d="M415.9,85.3l-2.9,0.2l-2.3,2l-0.6,1h-3.3l-1.2-1.2H405c0.1,1.7,0.2,2.9,0.2,2.9l-1,1.5l2.5,5.3
		l0.9,0.8l1.2,3.1l-1.5,2.7l1.7,1.7l-0.8,1.5v2.1h-2.1l-0.2,2.5l4,2.5l-0.2,3.1h3.1l1.5,2.1h3.8l3.8,4.8l0.9,2.7h2.5l5,2.1l4.4,2.7
		v0.8l2.9,0.2l3.6,2.1h3.4l2.9,2.1l3.2,2.3l2.3,0.8l3.5-3.5l1.2-4.1l-1.6-1.6l-0.2-1.4l2.3-4.3l-5.4-3.1l-3.1,2.3l-1.8-1.2l0.8-1.8
		l-1.9-1.4l-2.6-1.2v-2.5l2.6-0.8l1-4.5l1.8-1.9l0.8,2.9l2.2,1l3.7,0.6l1.9,1.9h2.3l2-1.4l2.5,1.8h1.4l1.6-1.4v-2.9l1.7-3l-0.4,0.1
		l-1.3-1.9l-3.9-2.3l-1.4-2.2l-4.7,0.4l-2.8,2.5l-6.6,0.2l-2-1.4c-0.1-0.2-1.1-1.9-1.9-2.4c0,0-0.1,0-0.1-0.1h-0.1h-0.1l0,0h-0.1
		c-0.9,0-2.7-1-2.9-1.2l-2.8,1.2l-0.2,2.3l-3.3,0.4l-2-3.7l-1.2-0.4V97l-2.8-1.2l-0.2-4.7l-2-1.9l-4.1-2h-1.9l-0.6,0.4h-2
		L415.9,85.3z"/>
	<path id="dep88" class="st0" d="M451.8,140.8l-2,0.4l-3.1,1.2l-1.5,1.9l-1.7,1.2l-3.3,1.5l-0.9-0.2l-2.3-0.6l-2.3-0.2l-0.8-2.5
		l-1.5,0.6l-0.2,2.7l-1.2-1.2l-2.1,1.5l-2.1,0.8l-2.5-0.2l-1.7,0.6l-1.9-1.2l-1.2,0.9h-2.9l-1.3,2.5L409,151l-1.3-1.7l-2.1-0.4
		l0.2-1l1.3-0.9l-1.2-0.4l-0.2-3.1l-2.9-0.2l-1.7,0.5l-1.2,1.6l-3.1,0.9v-1.1H396v1.3l-3.8,0.8v1.7l-3.4,0.4l-1.3,1.3l1.3,1.9
		l3.1,0.2l2.8,3.7h2.3l0.6,2.6l2.6,0.4l0.6,1.8l-1.8,1.2l-1.2,5.3l5.5,2.7v4.1l2.1-0.8l1.8,1.4l1.3-0.8l-0.8-1.2l1-0.6l1.3,1.6
		l2-1.4l0.6-1.9l3.7-0.6l1,0.8l-0.2,2.2l2.5,1.9l1.6-0.2l1.8-1.4h4.1l2.9,3.3h1l1.6-1l0.2-1.2l1.6-0.8l1.8,1.2l1.8,2l6.2,3.2
		l2.4-2.1l0.2-7.6l3.3-2.9l1.9-4.5l-0.6-2.9l2.3-4.7l2.2-4.9l-3.7-1l-0.8-5.3l0.8-3.5L451.8,140.8z"/>
	<path id="dep91" class="st0" d="M267,131.3l-1.8,0.8l-1.9,0.8l-0.4,2.1l-2.9,1.3l-0.4,2.1l1.3,2.3l-1.9,2.7h-2.8l1.1,1.7l-1.3,1.5
		l-0.5,3.1l0.9,0.2l0.4,2.5l0.4,0.6l0.4,5.2l6.2-0.6l2.5-2.3l2.2,1.8l5.2,0.4l0.8,1.1v-3.9l4.4-2.9l-1.3-1.7l0.6-5.2l0.8-1.1
		l-0.9-5.2l1.7-1.3l-0.3-2.4l-2.2-1h-3.6l-2.1-1.2l-1.5,0.8L267,131.3z"/>
	<path id="dep78" class="st0" d="M244.3,113l-0.1,0.1l-5.5,1.6l-0.8,1l1,1.6v1.6l1.8,0.4l-1,1l0.1,0.9l0.1-0.1l1.9,1.9l0.6,2.3
		l1.6,1.6l-0.8,2.2v1.9l1.4,1.6l-1.4,2.3l1.4,3.3l2.7,1.9l0.4,2.2l2.3,0.4l0.6,4.3l1.8,2.2l3.2,0.6l0.5-3.1l1.3-1.5l-1.1-1.7h2.8
		l1.9-2.7l-1.3-2.3l0.4-2.1l2.9-1.3l0.4-2.1l1.9-0.8l1.8-0.8l0.3,0.2v-0.2l-1.8-2l-1.1-3l1.8-3.8l-0.9-2.9l-3.4-2.1l-4.8-0.2
		l-4.5-2.9l-3.6,0.7L244.3,113z"/>
	<path id="dep95" class="st0" d="M248.3,104.5l-1.6,1.9l-1.2,4.3l-1.3,2.2l4.8,2.1l3.6-0.7l4.5,2.9l4.8,0.2l3.4,2.1l0.9,2.9v0.1
		l0.4-0.1l3.5-1.9l5.2-0.3l2.9-1.3l1.8-1.3l0.6-3.8l-1.3-1.3L275,110l-4.1-2.2l-2.1,1l-2.3,0.6l-1.6-1.2l-3.1-1.9l-2.5,1.9l-3.7,0.4
		l-5.3-0.4l-1.2-1.9L248.3,104.5z"/>
	<path id="dep93" class="st0" d="M280.1,117.7l-1.8,1.3l-2.9,1.3l-5.2,0.3l0.2,0.7l0.4,0.1l0.4,0.6l-0.4,0.9l-0.5,0.1l0.4,0.9h2.5
		l0.8,1.2l0.2,1.8l0.9-0.1l0.8-0.7l1.2,0.1l1.5,0.9l0.9,1l0.4,0.2l0.2,0.5l1,0.2v-2.8l-1.2-6.9L280.1,117.7z"/>
	<path id="dep75" class="st0" d="M273.1,123.9h-2.5l-1.1,0.5L269,125l-1,0.1l-0.9,1.1v0.6l0.2,0.7l1.6,0.4l1.9,1l1.2,0.1l0.8-0.2
		l0.8-0.6l0.3,0.2l1.8,0.2l0.3-0.7v-0.7l-0.3-0.1l-1.2,0.1l0.1,0.3l-0.2,0.2H274l0.2-0.4l0.1-0.4H274l-0.2-1.8L273.1,123.9z"/>
	<path id="dep92" class="st0" d="M270.1,120.6l-3.5,1.9l-0.4,0.1l-1.7,3.8l1.1,3l1.8,2v0.2l2.7,1.9l0.7-0.3l-0.5-0.9l0.5-1.5
		l-0.3-0.5l0.3-1.2h-0.1l-1.9-1l-1.6-0.4L267,127v-0.6l0.9-1.1l1-0.1l0.5-0.6l1.1-0.5l-0.4-0.9l0.5-0.1l0.4-0.9l-0.4-0.6l-0.4-0.1
		L270.1,120.6z"/>
	<path id="dep94" class="st0" d="M275.7,126.1l-0.8,0.7l-0.8,0.1l-0.1,0.4l-0.2,0.4h0.4l0.2-0.2l-0.1-0.3l1.2-0.1l0.3,0.1v0.7
		l-0.3,0.7l-1.8-0.2l-0.3-0.2l-0.8,0.6l-0.8,0.2l-1.2-0.1l-0.3,1.2l0.3,0.5l-0.5,1.5l0.5,0.9l0.9-0.4l2.1,1.2h3.6l2.2,1v-0.2
		l1.5-3.8V129l-1-0.2l-0.2-0.5l-0.4-0.2l-0.9-1l-1.5-0.9L275.7,126.1z"/>
	<path id="dep25" class="st0" d="M440.2,194.6l-0.2,0.2h-2.2l-1.2,1.6l-1.5,0.8v2l-3.7,0.4l-2-1.4l-2.7,0.4l-2.5,2l-1.8,3.1
		l-1.8,0.6l-0.8,2.1l-2.2,0.4l-3.1,2.5l-4.1-0.1l-1.2,1h-1.1l-3.9,3.2l-1.8-0.1v1.2l0.3,2.1l2.5,1.7l1.4,1.8l-0.4,1.9l-1.2,3
		l-0.8,1.9l5.5,1.8l3.5-0.3l0.3,2.9v3.9l4.3,1.4l2,0.5l2.8,2.7l-0.3,2.2l-1.3,1.8l-3.5,1.1l0.8,2l0.4,1.5l-1.5,1.5l0.2,1.4l2.4,0.2
		v-0.2l12.1-11.3l-0.4-9.4l4.3-2.1l2.9-1.4l2.7-2.5l0.2-3.7l2.7-1.4l6.2-7.2l-1-2.3l2.2-1l2.5-3.1l-1.4-1.4l-4.7,1l-0.2-0.8l4.3-5
		L440.2,194.6z"/>
	<path id="dep90" class="st0" d="M444.2,180.9l-1.8,0.9l-1.5,1.1v2.5l0.8,3v1.9l-0.5,3.1l-1.1,1.1l12,5.4l0.8-0.9l2.6-0.4l-1-4.2
		l-0.6-2.2l-2.8,0.4l-0.4-2.3l1-1.8l0.2-2.3l-0.6-1.3l-3.5-2.8l-3.1-0.2L444.2,180.9z"/>
	<path id="dep22" class="st0" d="M62.6,118.1l-1.8,1.4l-4.5,0.6l-1,1.4l-3.1-2.3l-4.1,2.8l1.6,2.1l-2.7,3.7l-0.1-0.1l-1.1,5.2
		l2.4,0.2l-0.2,2.1l1.8,1.1l-1.6,1.6l-1.1,0.8l0.2,1.9l2.4,0.8l-2.3,0.7v2.4l1.5,1.9l0.3,5.7l-1,1L49,156l3.1,0.8l0.3,1.6l1.9,0.2
		l1.6-1.1l1,1l3.7,1.6l3.1-1.6l0.8-1.6l2.6-0.2l2.9,2.6l2.8-0.7l2.4,2.4h1.1l1.1,1.4h2.3l0.8-1.1l1,2.1l2.4,1l3.1-1.9v-2.1l2.2-0.8
		h1.4l1.8,3.2l3.9,0.3l1.9-2.4l2.1-4.5l2.8-1l1.4-2.1l1.5,1.4l3.1-0.6l1-8.9l1-3.6l-1-1.9l-1.6-0.6l-1.1-5.9l-1.2,1.4l-3.7-0.4
		l-0.4,2.2l-2.3,0.2l-0.2-2.7l-2-0.6l-1.4,1.6v-3.9l-2.3,1.8l-3.5-0.6l-1.2,2.3l-7.2,3.9v2h-1.6v-3.5l-4.1-1.9l0.4-3.5l-3.7-2.7
		v-3.3l-2.8-0.6l0.2-3.1L68,121l0.2-2.2h-3.9l-0.6,1.9L62.6,118.1z"/>
	<path id="dep56" class="st0" d="M48.8,155.4l-3.2,1.6h-2.3l-2.4,1.9l0.2,1.4l1.4,3.7l0.8,2.9l5,0.8l2.4,1.9l1-1.2l1.6,2.1l-0.8,1
		l-0.2,2.9h-1.4l-1.1,1.8h-2.3l-0.9,3.8l2.2,3.5l3.1,0.8l1.2-1.8l-0.6,2.1l2.7,1.2l3.5,3.5l1.2,2.2l-0.4,2.5l-0.4,2.6l2.3,1.8
		l1.2-1.4l-1.2-1.6v-3.5l2.3,0.6l0.8-2.3l0.6,1.4l2.5,2.2l1.2-2l-1.2-2.7l2.2,2.9l2.7-0.4l-0.6-1.4l2.5,0.6l1.9,2.3l-1,1.6l-2.5-0.8
		l-2.9-1.4l-1.6,2l2.3,0.8l1.8,2.7l10.6-1l2.7,0.6l-1.3,1.2l0.2,1.8L85,201l0.8-0.2l1.8-1.8l1.2,1.3h3.1l3.7-1.9l5.5-2.2l0.2-5.5
		l1.2-0.6l-2.1-3.9l1.8-1.4l-0.3-1l-1.1-0.7l1.8-0.8l1.6-1.9l-0.2-1.9h-2.1l-0.5-1.9l1.5-1.9l-1.6-2.9l-2.4-1.5H96l-1-0.3v-1.3
		l1.4-1.3l0.8-3.2l-0.5-2.1l-0.7,0.8l-3.9-0.3l-1.8-3.2h-1.4l-2.2,0.8v2.1l-3.1,1.9l-2.4-1l-1-2.1l-0.8,1.1h-2.3l-1.1-1.4h-1
		l-2.4-2.4l-2.8,0.7l-2.9-2.6l-2.6,0.2l-0.8,1.6l-3.1,1.6l-3.7-1.6l-1-1l-1.6,1.1l-1.9-0.2l-0.3-1.6l-3.1-0.8V155.4z"/>
	<path id="dep29" class="st0" d="M33.4,123.9l-2.1,2.3l-2.3-1l-4.3,0.4l-0.8,1.9l-2.5,0.6l-0.4-2.2l-4.5,0.6v1.4l-3.1,0.2l-1.4-1
		l-1.6,0.8l-0.4,2.3l-5.2,0.2L2,133.9l2.3,1.8l-3.1,2.6l1,1.8l-0.8,4.3l3.1,0.4l1.2-1.2l0.6,0.8l7.4-1l4.9-3.5l-4.3,4.1l0.4,1.9
		l3.9-1.8l-0.8,2.8l4.3,0.2l-0.2,1.2l-4.7-0.2l-3.7-1L9,144.8l-2.7,3.1l3.5,1.2l-0.2,5.2l1-0.8l2.2-3.3l4.1,2.3l2,0.4l0.8,3.1
		l-1.2,2.1l-2.5-0.2h-2.3l-3.9,0.6L3,159.1l-1.3,1.8l1.9,1.2l2.2-0.2l1.8,1.6l2.5-0.2l4.1,4.7l1,5.1l-1.4,2.8l4.1,0.8l4.5-0.2l1-1.8
		l-1.8-2.3l1.8,0.8l1.8-0.2l3.1,1.8l1.9-0.4v-3.3l0.8,3.3l2.5,4.1l5.5,0.4l0.2-1.2l1.3,1.9l3.3,0.6h2.5l0.2,0.2l0.9-3.8h2.3l1.1-1.8
		h1.4l0.2-2.9l0.8-1l-1.6-2.1l-1,1.2l-2.4-1.9l-5-0.8l-0.8-2.9l-1.4-3.7l-0.2-1.4l2.4-1.9h2.3l3.2-1.6l-0.7-2.5l1-1l-0.3-5.7
		l-1.5-1.9V142l2.3-0.7l-2.4-0.8l-0.2-1.9l1.1-0.8l1.6-1.6l-1.8-1.1L48,133l-2.4-0.2l1.1-5.2l-3.2-1.9l-5.5,0.2v3.9h-1.6L36,128
		l-2.3,0.4L33.4,123.9z"/>
	<path id="dep35" class="st0" d="M109,130.8l-1.9,2.1l1.1,5.9l1.6,0.6l1,1.9l-1,3.6l-1,8.9l-3.1,0.6l-1.5-1.4l-1.4,2.1l-2.8,1
		l-2.1,4.5l-1.3,1.6l0.5,2.1l-0.8,3.2l-1.4,1.3v1.3l1,0.3h2.8l2.4,1.5l1.6,2.9l-1.5,1.9l0.5,1.9h2.1l0.2,1.9l-1.6,1.9l-1.8,0.8
		l1.1,0.7l0.3,1l-1.8,1.4l2.1,3.9l3.9-2.1l12.1-0.6l0.8-2.2l2-1.9l4.3-0.6l0.2-2.2l2.9,0.4l1.8,2.3l3.9,1l0.8-1.6l1-3.5l2.5-6.2
		l1.4-0.8l3.3,0.4v-5.3l-1.4-1.4v-5.7l-0.6-1.9v-3.1l2-2v-3.9l-1-0.8l0.2-5.5l-1.6-0.8h-2.3l-2-1.6l-2.1,2.5l-1.8,0.2l-1.6,2.1
		l-1.6-0.4l-3.3-2.9l-1.2-3.7l-0.6-2.5h-9.6l-3.5-2.2l2.3-3.1L109,130.8z"/>
</g>
<g id="regions">
	<path id="reg52" class="st1" d="M175.2,141.1l-2.2,0.2l-0.8,2l-2.7,1.1l-5.3-0.8l-5.2,3.1l-1.9-1.4l-2.9,2l-1.9-1.4l-1.4-2.4
		l-3.2-1.3l-2,1.6l-3.5-0.4L142,149l1,0.8v3.6l-2,2v3.2l0.6,2v5.7l1.4,1.4v4.8l-3.1-0.4l-1.6,0.9l-2.6,6.4l-1,3.5l-0.3,0.7l-0.3,0.7
		l-0.3-0.1l-3.3-0.8l-1.8-2.4l-3.4-0.4l-0.2,2.2l-4.2,0.6l-2,2l-0.8,2.1l-11.9,0.6l-5.4,2.8l-0.2,5.4l-5.3,2.1l-3.7,1.9h-2.9
		l-1.3-1.5l-1.9,1.9L84,201l1.3,0.9l-3.7,3.3l1,1l0.7,1.4l-2.1,2.9l2.4,1.3l4.1,0.9l0.3-1.2l1.9,2.4h3.8l2.6-3h1.9l-2.5,1.3l0.2,2.2
		l0.7,1.7l-1.9,1.9h-2.6l0.5,3.6l4.4-0.8l4.8,4.4l-0.1,0.1l-0.2,0.3l-5.7,7.3l-0.2,4.9l6,5.8l-0.2,1.9h1.9l3.7,11.1l4,2l4,4h4.4
		l1.8,3.9h4.3l1.9,2.9l4.8,2.4l0.2-2.6l0.8,0.8l6.1-3.7l2.4-0.2l1.2,3.2l3.8-1.6l3.2,2.4l2.6-1.2l2.2-0.6l1-1.2l3-1.9l-2.4-2.4
		l-1.4,1l-0.1-1l1.4-2.6l-1.4-2.3l1.1-1.5l-0.6-5.6l-1.8-2.8l1.4-1.8l-3.2-3.5l1.2-2.6l-4.8-4v-2.3l-1.8-2.5l0.5-0.2l3.2-1.4
		l6.1,1.4l2.9-2v-2.6l5.1-0.4l4.8-1l5.1-0.2l0.5,1.2l1.7,1.5l1.5-2.6l3.6-3.8h1.6l2.2-8.2l3.2-3.8l-0.2-4.3l2-2.6v-1.4l-0.9-1.1
		l0.6-1.2l1.1-2.2l3.7,2.6h2.7l-1.1-3.5l1.9,1.3l1.5-2.1l5.9-1.6l-1-2.5l1.2-1.6l2.9-1.2l2.8-3.7v-3.5h1.9l0.8-3l0.2-4.2l-1.8-1.7
		l1.4-2.5l2.5-3.2l-3-2.1l-2.5-0.4l-2.8-4.1h-1.2l-0.1,0.6h-4l-1.9-2.9l-3.2-1.2l-0.9-6.8l-1.7-2.4l-5.5,0.2l-5.3,4.9l-2.7-0.2h-0.3
		l-1-3.5l-2.5-1l-0.8-4.2L175.2,141.1z"/>
	<path id="reg75" class="st1" d="M181.2,220.4l-3.8,4l-0.4,0.8l-0.7,1.2l-1.1-0.9l-0.6-1.5l-5.5,0.2l-4.8,1l-5.6,0.4v2.8l-2.5,1.6
		l-6-1.4l-4.5,1.9l2.1,3v2.4l4.6,3.8l-1.2,2.5l3.1,3.5l-1.3,1.8l2,3l0.6,5.3l-1.2,1.6l1.4,2.3l-1.3,2.5l0.2,2.2l1.8-1.3l1.5,1.5
		l-2.4,1.5l-1,1.2l-2.1,0.6l-2.3,1.1l0,0l-0.5-0.4v0.1l-2.6-1.9l-3.6,1.5l-1.1-3.1l-3,0.2l-6.4,3.9l1.5,1.3l-2.9,2.4l-0.3,1.9
		l-2.6,0.3l-1.5-1.7l-3.8-0.3l-0.4-1.9l-2.6-1.7l-3.8,1.4l2.5,3.6h2.8l2.7,1.7l2.2,1.8l4-0.2l0.8,1.7l2.7,0.6l1,2.7l1.7,0.7
		l-0.2,1.6l-2.2-0.3l-1,1.5l1.8,2.6l-0.9,3.9l-2.4-0.2l-0.6-1.3l-0.9-0.8l-0.4-4.8l-3.4-0.4l-3.1-3.8l-0.5,7.8l4.5,3.3l0.4,3.6
		l0.8,4.2l0.4,4.6l2.5-0.2l4,3.3l2.6,1.5l0.2,2l2.3,0.4l6.1,6.1l1.4,6.3l0.1,0.6l0,0l1.6,6.6l0.4,5.6l-0.5,0.8l-0.8-4l-2.8-10.8
		l-9.9-9l0.2-4.2l-2.4-0.2l-3.3,4.9l-1,16.5l-2.5,16.6l-1.8,12.9l-0.2,3.3l0.6,0.1l1.3-4.4l2.5-3.2l3.6,3.3l0.4,1.1l0.8,1.2
		l-4.1,0.2l-0.8-1.2l-2.3,0.9l-0.4,3l-2.2,2.9v4.5v0.1l-3.5,18.6l-4.5,17.2l-1.4,6.7l-1.1,4.7l-2.8,4.7l-0.1,0.2l-0.2,0.3l-0.6,1.1
		l-4.4,5.4l-3.4,1.3l-2.8,0.4v2.6l2.5,2.3l3.3,0.2l0.2,2.5l3.2,0.2l0.8-1.7l3.5,1.5l2.2,0.5l0.5,2l-1.3,1.2v3.6l-2.7,1.4l-0.2,2.1
		l1.9,2.1l3.5,1.1l0.7-3.2l1.1-1.2l-0.1,1.8l1.5,2.2h3.5l1.5,2.1l4.8,0.8l4.5,2.8h7.2l0.4,3.9l5.1,4l2.1,2.5l2.3-1.2l1.8-0.3l1,1
		l5.5-3l0.3-4.1l1.6-1.2l0.8-6.2l2.7,0.5l1.5-1l-1.4-2.8l5.1-4.3l3.2-7.1l2.1-2.7l-3.9-5.8l2.2-2l-3.5-5.8l-5.2-0.4l-0.1-0.1
		l-0.2-0.4l-1.2-2l1.3-3.6l2-2.6l-0.6-3.3l1.6-1.6l-2.3-3.9l1.8-2.1l2-0.4l2,0.8l2.6-2.2l0.8,2.5l1.1,1.6l2.6-0.7l-0.2-2.7l0.7-1.4
		l0.5-1.1l2.2,1.9l3.1-3.1l1.3,1.8l3.5-0.6l3.7-0.4l1.6-2.8l5.5-0.5l3.1,3l1.2-1.1l2.2-0.7l-0.8-2.7l2.6-0.7l4-0.9l-0.8-2.5l1.1-1.2
		l1.1-4l-2.2-2.3l1.2-3.9l2.7,1.6l4.8-0.9l-2.1-4.6l-1.5-5.5l3.7-0.2l1-2.5l0.1-0.2l1.8-1.8l0.2-2.8l4.2-0.4l3.1-4.3l-1.4-0.5
		l-0.2-1.6l3.2-0.4l0.2-2l1.4-0.9l1.9-3.4l-1.8-2v-1.9l1.4-1.2h0.1l4.1-1.9l4.8,2.1l3.9,5.6l2.5-0.3l3.1-3.1l1.1,1.9l2.4-2.3
		l2.7,0.7l0.1,0.9l3.1-2.2l-0.9-2.2l-1.1-1.1l1.3-1.6h1.7l1-3.3l0.8-1.7l-0.6-3.5l2.4-3.3l3.6-2.2l0.2-5.2l1.2,0.7l2,2.2h2.2
		l1.4-1.6l-1-2.4l0.9-3.5l-0.6-3.5l-1.2-1.3V310l1.8-2.9l-0.4-2.9l-0.2-0.3l-4.2-4.2l-0.3-1.4l3.5-2l2.3-1.2l0.6-2.8l2.4-1.8
		l-0.8-3.9l-1.6-2l-0.4-6l-2.2-5.3l-2.2-0.8l-1.7-3l-1.4,1.8l-1.7-1.4v-2.3l-2.5-3.5l-6.6,0.8l-3.7-0.9l-10-1.2l-1.2,3.1l-3.2-0.2
		l-0.8-0.4l-2.3,0.2l-1.9-1.3l-3,3.5l-0.4,0.5l-0.2,0.2l-0.2,0.3l-3.1-3.1l-1.9,1.8l-3.5-0.2l0.4-3.3l-2.2-1.2l-1.2-4.2l-3.2-0.4
		l-1.9-1.9l-3.6-2.8l0.7-2.2v-3.9l-3.5-3.5l-0.4-2.8l-3.4-3.5l-1.2-4.8l-1.4-0.6l-1.7-2.3l-2,1.2l0.4,2.1l-4.7,1.1h-5.5l0.2-2.1
		v-3.9l-4.7-1.4v-2.4l-3.8-0.8l-0.8-3.2L181.2,220.4L181.2,220.4z M131.6,293l0.2,2.8l0.3,0.7h-2l-0.3-1.2L131.6,293z"/>
	<path id="reg11" class="st1" d="M248.2,104.2l-1.9,2.3l-1.2,4.4l-1.2,1.9l0,0l-0.1,0.2l-5.4,1.6l-1,1.2l1.1,1.7v1.7l1.4,0.3
		l-0.7,0.7l0.2,1.5l0.3-0.2l1.7,1.7l0.6,2.3l1.5,1.5l-0.7,2v2.2l1.3,1.5l-1.3,2.3l1.5,3.6l2.7,1.9l0.4,2.2l2.3,0.4l0.6,4.2l1.9,2.3
		l3.3,0.6l0.7,0.1l0.3,2.3l0.4,0.7l0.4,5.5l6.7-0.6l2.4-2.2l2,1.7l5.2,0.4l1.2,1.8l0.7,1.1l2.2,1.1l0.2,3l-3.3,2.3l2.2,2l2.2-1.4
		l5.3,0.2l2.1-0.4l0.6-1.5l1.7,0.2l0.4,1.8l5.2-2.9l4.4-5.2l-1.6-1.8l1.2-2.7l3.3-1.7l7.7,0.4l1.6-1.2l0.4,0.4l0.5-3.9l0.8-3.8
		l1.4-1.8l0.2-2.2l2.7-1.2v-2.1l-3,0.2l-0.5-1l1-1.7l-0.8-3.2l-1.5-0.9l0.4-2.4l1.6-1l-0.2-1.2l0.8-1l-3.6-0.8l-1-2.3l-1.8-0.6
		l-5.1-4.9l-0.6-4.3l-2.4-1.8l-1.4,0.7l-1.8,1.5l-1.9-0.6l-3.3,1.4l-2.8-1.6l-1.2,1.7l-1.5,0.2l-1.1-0.9l-2.1-1.2l-2.3,1.5l-0.3-0.3
		l-0.9-0.8l-4.3-2.6l-4.2-2.2l-2.2,1l-2.2,0.6l-1.5-1.1l-3.3-2l-2.6,2l-3.6,0.4l-5.1-0.4l-1.1-1.8L248.2,104.2L248.2,104.2z"/>
	<path id="reg32" class="st1" d="M278.5-1.3l-6.5,3l-9.7,1.6L262,3.4h-0.1l-0.6,0.1l0,0l-10.4,2l-8.8,6.8v26.5v0.4l-0.1,0.6
		l-0.5,6.3l4.3,3.9v1.3l-5-3l-6.8,8.3l2.1,0.9l2-0.2l0.9,1.8l8.6,8.4l0.6,3.4l1.9,3.4l-0.5,0.7l-1.3,1.5l-1,2.4h1.6l-0.7,1.6l-0.8,4
		l1.2,2v3.6h1.8l-1.9,3.5l-0.6,1.9l1.8,1.6l0.5,4.4l0.8,1.3l-0.9,0.2l-2-1.1l-0.5,3.8l0.5-0.6l0.6,1.3l1.3,2.1l5.5,0.4l3.8-0.4
		l2.4-1.9l2.9,1.8l1.7,1.3l2.5-0.7l2-0.9l4,2.1l4.2,2.5l1.5,1.5l2.4-1.6l1.8,1l1.3,1l2-0.2l1.1-1.4l2.6,1.5l3.4-1.4l2,0.6l2-1.6
		l1-0.5l0.1,0.1l0,0l0.3,0.2l0.2,0.2l1.3,0.9l0.6,4.3l5.3,5.1l1.7,0.6l1,2.4l3.6,0.8l0.6-0.7l1-2l2.9-1.4l1.6-4.1l1.9-1.3l-1.3-1.8
		h-2.4l-0.2-0.9l1.6-0.7l1-1.5l-1.8-1.2l0.4-1.4l4.7-0.4l-1-2.2l-2.7-1.8v-4.9l3.5-2.6h4.4l-0.4-2.1l2-0.8l3.3,2.2l1.7-0.5l-0.2-6.9
		l0.6-2.3l0.8-3l-2.5-1.3l0.4-1.2l3.8-0.8V78l2.9-1.5l0.8-2.6l-1-1.6l0.2-2.7l1.8-1.6l-1.8-3.4l0.6-3.7h-3.3h-1l-0.1-1.5l3.9-2.3
		l-0.7-4.1l-3.4-0.9l0.7-0.7v-2.5l3-2.2l-0.9-1.8l-6.4-5L322,40.5l-1.2,1.9h-0.9l0.2-6.7l-3.3-3.9l-2.3,0.4l-1.4-1.6l-3.9,1.8
		l-1.3-1.3l-2.7-0.4l-0.7-2.3l-0.2-8l-1.8-0.8l-0.2-1.3h-1.2l-0.4-2.4l-2.9,0.2l-5,1.6l-2.3,2.9h-2.1l-1.4-1.8l-0.6-2.1l-2.1-2.4
		h-2.7l-1-1.9v-3l1.4-2.2l-0.8-3.1C281.2,4.1,278.5-1.3,278.5-1.3z"/>
	<path id="reg93" class="st1" d="M439.9,333.9l-2,0.9l-0.4,2.9l-3,0.3l-0.6-2.6l-1.3-1.3l-3.8,0.4l-1.5,1.3l-0.8,4.3l0.7,1.2l4,0.4
		l0.8,2.5l1.5,0.8v3.8l-3.5-0.2l-1.6,1.7l-4.4-0.8l-2.5,2.1l-1.8-0.8l-2.9,2.2l1,1.8l-1.3,1.3h-5.1v2.8l1.5,0.8l-0.4,1l-3.2,1.3
		l-4.2,0.4l-1.3,4l-0.2,2.5l2,1.6l-1.8,2.1l-2.5-1.2l-3.5-0.2l-0.5,2.2l1.8,1.2l-2.2,1.4l0.9,3.7l6.7,1.8l1.2,2.6l1.8,0.3l-0.6,6
		v0.3l-0.8-0.9l-1.9-1.7l-1.1,3.3l-1.6,1.4h-0.4h-0.3h-0.3l-1.3-0.1l-2.8-2.1l-0.8-2.6l-5.7-0.4l-3.9-0.4l-0.3-2l1.3-2.9l-0.5-0.3
		l-2.4,2.1l-3.6-0.4l-0.6-1.1l2.8-3.8l-3-2.8l-3,0.2l-2.2,3.5l0.6,3.8l3.2,0.4l-0.4,1l-2.5,0.2l-2.8,2.8l-0.5-0.6l0.6-3.9l-1.4-1.5
		l-5.6,0.8l-1.2,2.5l0.8,0.4l3.2,5.4v4.5l5.8,5.8v2.2l-2.6,1.5l-5.1,2.9l-1.4,10.3l-5.7-0.8l-1.8,4.8l1.3,1.8l-6.2,3.8l-2,4.5
		l6.6,0.3l8.1,0.6l1,1h-2.4l-2.2,3.8l8.8,1.8l7.3-1.3l-3.7-3.5l1.9-1.6l3.5,1.5l1.8,3.8l11.4,0.2l2.7-1.1l0.4,1.3l-3.5,3.1l4.7,0.2
		l-0.6,1.5l-1.6,1.8h10.2l4.6,1.5l0.3,0.5l0.6,0.9l3.5,1.5l1,4l2.5,0.4l2.1-1.4l3.4-2.1l5.7,0.6l-0.1,1.1l-1.8,0.9l0.1,0.6l5.4,0.2
		l-1.6-1.7l-0.4-2.2l2.2-1.6l2.8,0.9l1.1,0.4l1.1,1.3l1.7-1.2l0.4-2.6l1.4-1.2h4.2l1.2-1.8l2.6,0.8l3.4-1.5v-5.6l-3.2,0.2l2.2-1.3
		l1.6-2.2l0.4-3l5.6-0.8l3-3.3l0,0l0.2-0.2l0.2-0.2v-0.1l0.2-4.2l3.8,0.8l1.4-1.8l2.1,0.4l0.2-6.2l4.3-0.3l3.9-3.5h3.7l0.2-2.3
		l3.6-2.2l-2-4.5l2.9-2.5l-0.6-2.8l4.2-1.3l1.2-4.5l-0.6-3l-1-1.8l-0.8-2.8l-3.2,0.2l-9.2,3.3h-2.8l-5-4l-5.2-1.4h-2.7v-3.4
		l-4.1-2.5v-3.5l3.2-0.4l-2.1-1.8l-1.9-0.6l-0.9-2.3l0.7-1.6l3.6-3.8l-0.6-2.8l0.3-0.3l0.1-0.1l0.5-0.5l1.3-1.4l2.3,0.2V356
		l-2.7-1.4l-0.6-5.7l-2.4-0.9l-2.7,0.4l-4.8-2.4l-0.8-5.9l-3-1l-0.9-1.9l-1.3-3L439.9,333.9L439.9,333.9z"/>
	<path id="reg94" class="st1" d="M470.5,444.6l-3.2,2.2l0.4,2.1l1.4,1.8l-1.7,1.3l0.4,0.8l0.4,0.8l-1.1,1.3v2l2,1.8v2.5l-1.1,2.4
		l-1,0.4l-0.6-0.8l-0.9-1.3l-2.8,0.2l-0.6-0.4h-2.5l-2.3,2.1l-0.8,3.2l-5,0.9l-4,3.4l-0.7,2l-1.6-0.2l-1.3-1.6l-0.6,3.8l-1.4,0.6
		l-0.4,3.4l0.5,1.2l-2,1.5l-0.5,1.4h-1.7v2.6l2.1,1.5l3.2,1.9l0.2,1.2l-1.7,0.5l-3.4,0.6v1.7l1.2,1.2l0.2,4l4.5,1.4l1.4,0.3l1.2,1.9
		l-0.8,1.1l-1.6,0.6l-1.2,2.2l-1.2,1.5l0.6,3.9l3.1-0.2l0.8,0.6l2.8-1.3l0.5,0.5l-1.4,2.9l1.3,1.3l-2.1,1.6l-1.8,3.9l4.7,1.1
		l5.5,0.5l-2,2.3c-0.4-0.1-1.2-0.4-1.8-0.1c0,0-0.1,0-0.1,0.1c0,0,0,0-0.1,0.1c0,0-0.1,0-0.1,0.1l-0.1,0.1l0,0l0,0v0.1v0.1
		c0,0.7-0.9,2.6-1.3,3.2l-0.1,0.2l2.1,2.3l3.6,2.2l6.7,1.8l1.9,0.8l1.5,0.6l-1.3,2.4l3.4-0.2l0.6,1.3h3.6l0.9-4.2l-1.8-0.3l2.6-2.7
		l-1.1-1.1l0.2-1.5l3.5-1.9l0.2-2.6l-2.8-0.2l-1.2,1v-1l3-0.2l1-2.5l0.8-6.9v-0.1l-0.6-2.9L477,510l-0.1-5.8l4.7-6.6v-11l-0.1-0.2
		l-1.8-3.7l-0.6-11.7l-1.4-2.2l-2.5-1.9l-0.4-7.1l1.2-3.3l-1.6-5.3l-1-4.3l-0.9-1.3L470.5,444.6L470.5,444.6z"/>
	<path id="reg28" class="st1" d="M234.5,56.2l-1.4,1.7l-8.3,6.4L210,68l-9.8,3.5l-8,4.3l-4.9,7.1l-1.1,5.8l4.1,3.1l4.2,0.9l-3.9,0.7
		l-7.5,4.3l-8.2,3.2l-6.5-3.7l-16.1-2.3l-3.8-2l-5.6,1.4l-1.8,0.4l-0.2-4.4l-5-6l1.4-3.6h2.4l-2.1-5.9l-8.7-0.4l-4.4,3.1l-4.9-3.2
		l-7.6-2.2l-1,2.4l4.2,3.4V82l-1.7,2.1l1.2,1.2l0.4,0.3l-0.4,3.6l1.4,3.2l4.5,5.1l0.9,4.4l1,1.4v6.9l2.3,4.8v5.3l-2.6,5.1l2.8,7.3
		l4.2,0.9l0.3,1.6l-1.9,0.8h-4l0.7,2.8l1.2,3.8l3.4,3l1.9,0.5l1.6-2.2l1.8-0.2l2-2.4l1.8,1.4h2.4l1.3,0.7v0.5l3.7,0.4l1.9-1.5
		l2.7,1.1l0,0l0.2,0.3l1.1,1.9l2.4,1.8l2.9-2l1.9,1.4l5.4-3.2l5.2,0.8l3.1-1.2l0.8-1.9l1.6-0.2l1.6,1.4l0.8,4.3l2.6,1l1,3.6l3.7,0.2
		l5.3-4.9l5-0.2l1.4,1.9l1,7.2l3.4,1.2l2,3h4l0.2,1.1h0.6l0.2-1.7h0.4l2.7,4.1l2.6,0.4v-5.1l-1.3-1.8l-0.3-1.3l2.7-1.6l3-0.6
		l2.1-2.5l-0.4-7.5l-4.1-3.5l-0.2-3.4l-0.5-0.3l2.4-2.3h2.6l7.1-3.7l2.2,0.9h5.2l1.3-1.6V127l3.9-1.9v-3.2l1.1-0.9l-0.1-0.9l1.3-1.3
		l-2.1-0.4V117l-0.9-1.5l0.6-0.7l5.5-1.6l1.4-2.5l1.2-4.3l1.5-1.8l0.2-1.9l1.5,0.8l1.9-0.5l-1.2-1.8l-0.6-4.5l-1.7-1.5l0.5-1.5
		l1.4-2.6l1-1.8h-2.2v-3.2l-1.1-1.9l0.8-3.7l0.9-2.4h-1.6l0.6-1.5l2-2.5l-2-3.7l-0.6-3.6l-8.6-8.4l-1.1-2.1l-2.1,0.6L234.5,56.2
		L234.5,56.2z"/>
	<path id="reg44" class="st1" d="M360.1,50.6l-2,3l-1.8,1.8v4.1l-2.2,1.5l-4.2,1.3l-2.2,0.9l-2.7-2.1h-4.1l-0.6,3.8l1.7,3.2
		l-1.7,1.5l-0.2,3.2l0.9,1.5l-0.7,2.1l-3,1.6v2.5l-3.7,0.8l-0.7,2l2.6,1.4l-0.7,2.5l-0.6,2.4l0.1,5.2l0.1,1.2l-1,0.3l-3.3-2.2
		l-2.7,1.2l0.4,1.8H324l-3.9,2.9v5.6l2.8,1.8l0.6,1.3l-4.3,0.3l-0.7,2.2l1.7,1.1l-0.6,0.9l-1.9,0.8l0.5,1.8h2.6l0.7,1l-1.6,1.1
		l-1.6,4.1l-2.9,1.4l-1,2.2l-1.1,1.3l0.2,1.1l-1.5,1l-0.5,3l1.6,1l0.7,2.7l-1,1.8l0.8,1.7l2.8-0.2v0.4v0.6l-2.7,1.2l-0.2,2.4
		l-1.3,1.7l-0.8,4.1l-0.5,3.4l1.4,1.2h2.3l4.9,5.1l-0.6,5.3l3.8,2.9l1.9-1.3l2.9,3.4l0.4,3.5l2.2,2.9l1,2.3l8.1,0.4l3.7-1.9l1.1,2
		l1.8,0.2l1-2.2l6.2-0.2l2.8-1.5l0.4-2.4h5.3l1.3,0.8l1.7,0.9l3.4,3.7l4.3,5.9l-2.6,2.8l1.9,1.3l0.2,3.4l3.2-0.2l0.8,1.6l2.6,0.2
		l1.6-0.9l2.9,3.7l0.5,1.2l4.7-1l0.8-1.9l0.3,0.1v-2.2l2.4-1.1l3.1,1.2l3-1.2h1.9l0.6-4.1l1.3-1.5l-2.1-0.2l-0.2-1.8l2.7-0.6
		l0.2-1.5h2.8v-2.6l2.2-0.8l-0.6-1.6l0.2-0.1h0.1l0.5-0.3l1.2-0.8l-0.8-1.2l0.5-0.3l1.3,1.6l2.3-1.6l0.6-1.8l3.4-0.6l0.8,0.6
		l-0.2,2.2l2.8,2.1l1.8-0.2l1.7-1.4h3.8l2.9,3.3h1.2l1.8-1.1l0.2-1.1l1.3-0.7l1.6,1.1l1.7,1.9l6.2,3.3l0.9,1.7l3.2,0.2l3.4,2.6
		l0.5,1.2l-0.2,2.2l-1,1.8l0.4,2.7l2.8-0.4l0.5,1.9l1,4.4l2.2-0.3l-0.4,1.9l1.6,1.4l7.4-0.2l3.9-3.1l0.2-4.3l2.1-2.7l-2.7-3.1
		l-1.2-2.9l1.5-2.1v-5l1-2.3v-3.9l1.8-2.6l-2-2.8l-0.2-5.1v-0.4v-0.2v-0.3l5.1-9.9l0.1-0.1l-0.6-5.7l2.3-7.6l0.6-6.5l5.1-3.7v-2.4
		l1.8-2.4h1.6l1.9-1.9l-0.4-3.4l1.7-4.5l3.2-0.7l-3.3-2.6l-4.9-0.6l-4.4-2.2l-2.8,1.7l-1.5-1.7h-2.2l-3.1,0.8l0,0l-0.6,0.2l-0.3,0.1
		h-0.1l-1.2-1.8l-3.9-2.4l-1.4-2.2l-5,0.4l-2.8,2.5l-6.4,0.2l-1.8-1.3c-0.2-0.4-1.2-2-2-2.5l-0.1-0.1h-0.1h-0.2v0.3l-0.1-0.3
		c-0.7,0-2.1-0.7-2.8-1.1l-0.1-0.1l-3.1,1.3l-0.2,2.3l-2.9,0.3l-1.9-3.6l-1.1-0.4V97l-2.8-1.2l-0.2-4.6l-2.1-2l-4.2-2h-2.2l-0.6,0.4
		h-1.8l-2.7-2.3l-3.2,0.2l-2.4,2l-0.6,0.9h-3l-1.2-1.2h-0.3H402l-3.5-3.9h-4.8l-2.3,2.2l-3.3,0.2l-1.2,1.2h-0.4h-0.4l-0.8-3.6
		l-1.7-1.7l-0.8-0.1l-0.6-0.1l-1-0.2l-0.8-3.8l-1.7-1.3l-5.4-0.6l-0.9-2.4l-1.8-1.2l-6.2-0.8l-0.3-4.1l0.8-0.8v-2l-3.1-1.9l0.5-1.9
		l0.9-2.2l-1.3-1.1l2-1.8v-3.8l-1-0.7h-2.8L360.1,50.6L360.1,50.6z"/>
	<path id="reg76" class="st1" d="M240,342l-4.2,2l-1,0.2l0.2,0.4l-1.2,1.1v2.4l1.7,1.9l-1.6,2.8l-1.6,1.1l-0.2,1.8l-3.4,0.4l0.2,2.6
		l1,0.3l-2.4,3.5l-4.4,0.4l-0.2,3.1l-1.7,1.7l-1,2.5l-4.1,0.2l1.7,6.2l1.7,3.8l0.1,0.2l-3.8,0.7l-3.2-1.9l-1.5,5l2.2,2.3l-0.9,3.5
		l-1.2,1.4l0.8,2.2l-3.4,0.7l-3.2,0.8l0.8,2.8l-1,0.3l-0.5,0.2l-0.2,0.1l-0.9,0.8l-2.8-2.8l-6.1,0.6l-1.6,2.8l-3.4,0.4l-3.1,0.5
		l-1.5-2.1l-3.2,3.2l-2.4-2l-1.6,3.3l0.2,2.4l-1.7,0.5l-0.8-1.2l-1.1-3.3l-2.9,2.5l-1.8-0.8l-2.4,0.4l-2.1,2.6l2.3,3.9l-1.5,1.5
		l0.6,3.3l-1.8,2.4l-1.5,3.9l1.7,3l4.8,0.3l0.5,0.1l3.1,5.1l-2.2,2l3.9,5.9l-1.8,2.4l-3.1,7l-5.4,4.6l1.3,2.7l-0.8,0.6l-3.1-0.6
		l-0.8,6.6l-1.6,1.2l-0.3,4.8l0.8-0.5l3.2,1.9l3.8,2.9l0.4,2.3l3.3,2.7h2.7l6.3-2.7l2.6,3l4,1.1l1.4-2.3l1.5,0.7l3.6,0.2l8.5,0.6
		l0.4-9.6l2.3,0.3l3.6,2.1l1.4,0.8l6.2,1.2h2.4l3.3,4.3l8.4-0.4l3.4,5.3l3.1-1.2l8.3,1.2l0.6,3.1l0.1,0.6l0.3,1.8l3,2.8l5.8,1.6
		l0.2,3.4l3.3,2.9l2.6-0.5l3.3-4.1l3.9-0.8l6.3,2.1l5.7,4.8l1.7-2.1h1.1l1.4,1l1.5-0.7l0.2-2.7l5.8-1.3l1.9-2.5l2.8-0.9h3.9l2.6,2.7
		l3.6,0.2v-3.6l-1.7-2.3l-2.7-1.2l-0.4-16.4l-0.2-6.1l0.2-6.8l-2.5,0.2l-1.8-2.6l1.3-2.1l3.2,3l3.2-2.5l2.1-2l0.2-1.9l0.2-1.1l7-2.2
		l0.8-1.7l5.4-0.2l1.8-2.2l10.5-8.4l6.6-4.6l1.8,0.1l3.4,0.2v3.9l4.8-0.2l2.6,0.1l1.8-4.2l6.5-4l-1.5-2.1l1.5-4l5.8,0.8l1.4-10.7
		l7.8-4.4v-2.8l-5.8-5.8v-3.8l-3.4-5.7l-7.3-4.1l-0.6,3.2l-2.3,0.2l-0.8-3.1l-3.2,0.6l-0.5,3.7l-1.8-0.7l-4.8-3.2l-1.9,1v-5.2
		l-3.3-2l-0.8-0.5l0.6-4.1l-3.3-3.6l-1.4-7.1l-5.2-6.6l-3.5,0.8l-0.8-2.7h-2.5l-0.4,2.4l-4.6,1.4l-3.5-9l-5.8,2.1l-1.5,3.3l-3.6-2.4
		l-2.8,9l-2.6,6l-1.3-1.7l-0.6-5.7H294l-0.9-5.6l-3.8,0.6l-0.5-3.3l-0.8-1.2l-5.9,5v4.5h-1.3l-0.6,4.5l-1.3,0.5l-1.1,2.4h-5.7
		l-0.5-0.8h-3.1l-1.7,2.7h-0.3l-1.3-0.2l1.1-3.2l-2.5-1.1l2.5-5.8l-3.4-2.5l-1.1-7.2l-3.4-0.9l-2.1,2l-1.1-1.9l-3.5,3.5l-1.9,0.2
		L246,344L240,342z"/>
	<path id="reg84" class="st1" d="M294.1,242.7l-2.7,3.5l-1.6,0.2l-1.6,1.7l-2-2.2l-5.6,5.6v3.4l1,0.8l0.2,1.2l-2.5,2l-2.5-0.8
		l-5.1,1l-2.6,3l-1.2,2.6l0.5-0.1l2.2,3.1v2.3l1.6,2.1l1.3-1.7l1.4,2.4l2.1,0.8l2.1,4.9l0.1,1.5l0,0l0.3,4.5l1.6,1.9l0.7,3.5
		l-2.3,1.7l-0.6,2.7l-2,1.1l-3.9,2.2l0.4,2.1l4.5,4.5l0.4,2.5l-1.8,2.9v2.9l1.2,1.4l0.6,3.2l-0.4,1.6l-0.6,2l1,2.2l-1,1.2h-1.7
		l-1.9-2.1l-2.2-1.3l-0.2,5.8l-3.4,2.1l-2.7,3.7l0.6,3.6l-0.8,1.5l-0.9,2.9h-1.5l-1.8,2.2l1.3,1.3l0.7,1.7l-2.5,1.8l1.1,6.8l3.2,2.4
		l-2.5,5.8l2.5,1.1l-1.1,3.4l2.8,0.4l1.7-2.8h2.4l0.5,0.8h6.5l1.1-2.5l1.4-0.6l0.6-4.3h1.4V353l5.2-4.4l0.3,0.5l0.6,3.8l3.9-0.6
		l0.8,5.5h1.9l0.5,5.2v0.1l2.1,2.6l3-7l2.6-8.2l3.5,2.3l1.7-3.7l4.9-1.8l0.1-0.1l3.5,9l5.5-1.7l0.4-2.3h1.5l0.8,2.8l3.7-0.9l4.2,5.4
		l0.4,0.5l0.2,0.2l1.3,7.1v0.1l3.3,3.5l-0.6,4.2l4.2,2.5v5.8l2.5-1.3l4.6,3l2.6,1l0.5-4.1l2.3-0.4l0.8,3l3.2-0.3l0.5-2.8l6.2,3.5
		l1.1-2.2l2.8-0.4l2.2-0.3l1,1.1l-0.6,3.9l1.1,1.3l3.1-3.1l2.7-0.2l0.8-2.1l-3.5-0.4l-0.5-3.2l2-3.1l2.5-0.2l2.4,2.3l-2.7,3.7l1,1.7
		l4.2,0.4l1.6-1.3l-0.8,1.8l0.5,2.7l4.3,0.4l5.3,0.4l0.8,2.4l3.1,2.3l2.8,0.2l1.9-1.7l0.9-2.6l1.2,1.1l1.6,1.9l0.9-8.2l-2.1-0.4
		l-1.2-2.5l-6.6-1.8l-0.7-2.9l2.6-1.7l-2.2-1.5l0.3-1.3l2.8,0.2l2.9,1.4l2.5-2.9l-2.2-1.8l0.2-2.1l1.1-3.5l3.9-0.4l3.5-1.4l0.3-0.7
		l0.1-0.2l0.2-0.4l0,0l0.2-0.5l-1.7-0.8v-1.8h4.7l1.8-1.8l-0.9-1.7l2.2-1.7l1.8,0.8l2.6-2.2l4.5,0.8l1.6-1.8l3.9,0.2v-4.8l-1.6-0.8
		L432,341l-4.2-0.4l-0.4-0.8l0.7-3.9l1.2-1l3.3-0.4l1,1l0.6,2.9l4-0.5l0.4-3l1.5-0.7l4.2,0.2l-0.2-0.3l5.4-2.2l2.1,1.3h2.5l0.2-2.5
		l2.4-1.3l1-1.2l5.2-2l0.7-3.6l-1-1.5l2.8-4.8l-2.8-1l-0.8-2.7l-5.2-3.1c0.1-1.1,0.3-5.9-0.2-7l0.4-0.3h-0.9
		c-0.6,0.2-2.9,0.3-3.5,0.4l-2.8-3.1l0.1-3.4l0.1-2.9l6.6-2.8l0.8-2.1l-0.4-4.5l-4.5-4.7l-1.1,0.7v-4.4l-3.8-1.8l-0.1-1.3l2.1-2.3
		v-3l-3.5-3.7l-0.2-2.7h-7l-4.5,0.8l-4.1,3.3l-1.1-1.6l-2.5,0.2l-2,4.5v0.1l0.2,1.9l1.9,1.6l-3.6,2.4l-2.4,2.3h-4.3l0,0h-1.7v-3.2
		l2.2-1.2l3.7-0.4l0.3-2.4l-1.1-0.7l2.8-3.6l-0.5-1.4l-3.7-2l-8.2,9h-5.2V268l-3.5-1.7l-3.8,4.2l-2.5,0.3v-2.6l-2.6-1.2l-3.9-5.5
		l-3.5-1.3l-1.2-2.6l-2.2-0.5l-2,1.4l-1.4,0.4l-2.1-1.8l-2.4,0.2l-1.5,2.8l-3.7,14.4l-0.5,1.2l0,0l-0.6,1.3l-0.9-0.1l-0.7-3.8
		l-1.1-3.3l-2.5,0.2l-1.6,1.6l-1.2-1.6l-1.8,1.6l-2.3-1.5h-2.1l-0.9,0.7l-0.5,2.5l-0.7,3.6h-2l-1.4,1.4l-1.1-1.1l-6.3-1h-0.1
		l-2.4,1.4h-1.2l-0.3-1.3l-2.9-0.6l-0.2-3.1l-0.5-0.2l3.8-2.9l0.2-7.8l-1.5-2.2h-3.1l-1.2-1.6h-3.3l-0.8-1v-2.8l-4-7.5l-2.3-1.7
		l-3.8,5.2l-1.2,0.3L315,248l-2.2-1l-0.8,1.7h-2.7l-0.4-1.9l-2.3,1.3l-1.9,1.1l-2.2-2.4l-3.3-1.6l-0.2-2.6L294.1,242.7L294.1,242.7z
		"/>
	<path id="reg24" class="st1" d="M239.8,120.7l-1.5,1.2v3.1l-3.9,1.9v3l-1,1.2h-4.7l-2.4-1l-7.1,3.7h-2.8l-3.2,3l0.8,0.6l0.2,3.3
		l4.1,3.5l0.4,7l-1.8,2.2l-2.8,0.6l-3.2,1.9l0.4,1.8l1.3,1.8v4.8l0.6,0.1l2.4,1.7l-0.7,0.8l-0.2,0.3l-0.2,0.2l-1.1,1.4l-1.7,2.9
		l2,1.8l-0.2,3.9l-0.7,2.5h-2v3.9l-2.6,3.4l-2.9,1.2l-1.5,2l0.5,1.2l0.2,0.4l0.1,0.2l0.2,0.4l-5.4,1.5l-1.2,1.8l-2.8-1.8l1.3,4.3
		H195l-4.1-2.9l-2.2,4.4l1,1.2v0.9l-2,2.6l0.2,4.3l-3.1,3.6l-2.4,8.5h0.4l0.8,3.1l3.7,0.8v2.3l4.7,1.4v3.5l-0.2,2.7h6.2l5.4-1.2
		l-0.4-2.2l1.2-0.7l1.4,2l1.3,0.6l1.2,4.6l3.3,3.5l0.4,2.8l3.2,3.2l0.3,0.3v3.6l-0.8,2.5l3.9,3l2,2l3,0.4l1.2,4l2,1.1l-0.3,2.5
		L225,267v0.6l0.6,0.1l5,0.4l1.7-1.6l3.1,3.1l3.9-4.5l1.6,1.1l2.3-0.2l0.7,0.4l3.9,0.2l1.2-3.1l9.5,1.2l3.8,1l1.4-0.2l0.5-0.1h0.1
		l4.5-0.6l1-2.1l2.4-2.8l4.7-1l2.7,0.8l3-2.3l-0.2-1.8l-1-0.8v-2.9l5-5l2,2.2l1.9-1.9l1.6-0.2l2.7-3.5l4.1,0.3v0.8l0.6,0.1l1.5-4.9
		l-1-1.8l0.2-2.4l0.6-5.2l-2.2-2.2l0.4-4.6l-2-4.1l-0.2-2.8l-3.6-2.8l-0.5-2.1l1.7-2.5v-3.9l-1.8-2.2l-0.4-0.4l0,0l-0.1-0.1
		l-0.2-1.6l4-1.2l-0.7-2.4l-0.6-3.1l-2.5-3.6l-0.5-1.7h3.6l2.9-2.1l0.4-3.2l-1.6-1.8l4.9-4.2V174l-2.6-2.8l-1-3.1l-3.8-3.6l-4.7,2.7
		l-0.3-1.4l-2.6-0.2l-0.6,1.6l-1.7,0.3l-5.4-0.2l-2,1.3l-1.3-1.2l3-2l-0.2-3.7l-2.4-1.2l-2-3l-5.3-0.4l-2.3-1.9l-2.6,2.5l-5.1,0.4
		l0,0l-0.5,0.1H258h-0.1l-0.4-5l-0.4-0.6l-0.4-2.7l-4.2-0.8l-1.7-2l-0.6-4.4l-2.3-0.4l-0.4-2.1l-2.8-2l-1.3-3.1l1.4-2.4l-1.5-1.6
		v-1.8l0.8-2.3l-1.7-1.7l-0.6-2.3L239.8,120.7L239.8,120.7z"/>
	<path id="reg27" class="st1" d="M311,152l-1.8,1.4l-7.6-0.4l-3.7,1.8l-1.5,3.2l1.5,1.7l-4.2,4.9l3.7,3.5l0.9,3.1l2.6,2.8v3.3
		l-5.2,4.4l1.8,2.1l-0.3,2.7l-2.6,1.8h-4.2l0.7,2.5l2.5,3.5l0.6,3.1l0.5,1.9l-2,0.6l-1.9,0.6l0.2,2.3l2.3,2.7v3.5l-1.8,2.6l0.6,2.6
		l3.5,2.7l0.2,2.6l2,4.2l-0.4,4.8l2.2,2.1l-0.6,5l-0.2,2.6l0.9,1.7l-1.5,4.7l0.2,1.7l3.4,1.6l2.5,2.7l2.3-1.3l1.6-1l0.4,1.6h3.3
		l0.7-1.5l1.3,0.6l0.6,2.7l2-0.5l3.6-4.9l1.6,1.2l0.4,0.8l3.4,6.5v3l1.1,1.4h3.3l1.2,1.6h3.1l1.2,1.7l-0.2,7.4l-4,3.1l-0.3,0.8
		l0.8-0.1l0.3,0.1l0.2,3.2l3,0.6l0.4,1.4h1.9l2.3-1.4l6,0.9l1.3,1.3l1.7-1.7h2.3l1.2-6.4l0.6-0.5h1.8l2.5,1.7l1.7-1.5l1.2,1.6
		l1.9-1.9l1.8-0.2l0.9,2.8l0.8,4.1l1.8,0.2l1.3-3l3.7-14.4l1.3-2.4l1.9-0.2l2.2,1.8l1.7-0.4l1.9-1.3l1.7,0.3l1.2,2.5l1.2,0.5h0.1
		l2.2,0.9l3.9,5.5l2.4,1.1v2.9l3.4-0.5l3.6-4l2.8,1.4v2.5h6.1l8.5-9.3l-0.5-0.3l0.3-3.8l3.2-3.8l-2.1-0.8l0.2-1l12-11.3l0.1-0.1
		l-0.4-9.3l4.1-2l2.9-1.4l2.9-2.7l0.2-3.7l2.6-1.3l6.5-7.4l-0.9-2.2l1.9-0.8l2.8-3.4l-1.7-1.7l-4.6,0.9l-0.1-0.3l4.5-5.2l0,0
		l0.4-0.5l2.8-0.4l-1-4.5l-0.7-2.4l-2.7,0.4l-0.3-1.9l0.9-1.7l0.2-2.5l-0.6-1.5l-3.7-2.8l-3-0.2l-0.7-1.3l-0.1-0.2l-6.3-3.3
		l-1.7-1.9l-2-1.3l-1.5,0.6l-0.2,1.2l-1.4,0.9h-0.8l-2.9-3.3h-4.3l-1.8,1.4l-1.4,0.2l-2.3-1.8l0.2-2.2l-1.2-1l-4,0.7l-0.6,2
		l-1.7,1.2l-1.3-1.6l-1.4,0.9l0.8,1.2l-1.9,1.2l0.6,1.5l-2.1,0.8v2.4h-2.7l-0.2,1.6l-2.8,0.6l0.2,2.8l1.4,0.2l-0.7,0.8l-0.6,3.8
		h-1.5l-2.9,1.2l-3.1-1.2l-3,1.3v1.8h-0.1l-0.8,2.1l-3.9,0.9l-0.3-0.7l-3.3-4.2l-1.9,1.1l-2.1-0.2l-0.8-1.6l-3,0.2l-0.2-3.2
		l-1.6-1.1l2.5-2.7l-4.7-6.3l-3.5-3.7l-3.3-1.8h-6l-0.4,2.6l-2.3,1.3l-6.1,0.2l-0.2-0.7l-0.3,0.7h-0.2l0.1,0.2l-0.9,1.9l-1-0.2
		l-1.2-2.3l-4.1,2.1l-7.6-0.4l-0.9-2.1l-2.1-2.8l-0.4-3.5l-3.4-4l-2,1.4l-3.2-2.5l0.6-5.2l-5.2-5.5h-2.4L311,152L311,152z"/>
	<path id="reg53" class="st1" d="M62.5,117.8l-2,1.6L56,120l-0.9,1.2l-3.1-2.3l-4.5,3l1.6,2.2l-2.4,3.3l-3.2-1.8l-5.8,0.2v3.9h-1
		l-0.4-1.8l-2.3,0.4l-0.4-4.8l-2.4,2.7l-2.2-0.9l-4.6,0.4l-0.8,2l-2.1,0.5l-0.4-2.1l-5,0.7v1.3l-2.7,0.2l-1.4-1l-1.9,0.9l-0.4,2.2
		l-5.2,0.2l-3,3.7l2.3,1.7l-3,2.5l1.1,1.9l-0.8,4.5l3.6,0.4l1.1-1l0.5,0.7l7.6-1l1.5-1.1l-1.3,1.2l0.5,2.5l3.7-1.6l-0.7,2.5l4.4,0.2
		l-0.1,0.5l-4.4-0.2l-3.7-0.9l-4.7-2.2l-3.2,3.6l3.7,1.2l-0.2,5.7l1.5-1.2L13,151l3.8,2.2l1.9,0.4l0.7,2.8l-1.1,1.8L16,158h-2.7
		l-3.9,0.6L2.6,159L1,161.2l2.3,1.4l2.1-0.2l1.7,1.6l2.5-0.2l4,4.5l0.9,4.9l-1.5,3l4.5,0.9l4.7-0.2l1.1-2.1l-1.2-1.6l0.8,0.3
		l1.8-0.2l3.1,1.8l2.3-0.4v-1l0.2,0.8l2.6,4.3l5.9,0.4l0.1-0.7l1,1.4l3.5,0.6h2.4l0,0l2.3,3.7l3.4,0.8l0.3-0.4l-0.2,0.6l2.9,1.3
		l3.5,3.4l1.1,2l-0.8,5.2l2.7,2l1.5-1.8l-1.3-1.7v-3l2.2,0.5l0.6-1.9l0.3,0.7l2.9,2.5l1.5-2.4l-0.2-0.4l0.7,0.9h0.2l-1.9,2.4
		l2.6,0.9l1.8,2.8l10.7-1l2.1,0.5l-1,0.8l0.2,2.1l0.6,0.4l1.1-0.2l1.6-1.6l1,1.2h3.3l3.8-2l5.7-2.2l0.2-5.5l1.2-0.7l3.6-1.9
		l12.2-0.6l0.8-2.3l1.8-1.8l4.4-0.6l0.2-2.1l2.5,0.3l1.7,2.3l4.3,1l0.9-1.8l1-3.5l2.5-6.2l1.2-0.7l3.5,0.4v-5.8l-1.4-1.4v-5.5
		l-0.6-2v-3l2-2V149l-1-0.8l0.2-5.5l-1.7-0.8h-2.4l-2.1-1.7l-2.2,2.7l-1.8,0.2l-1.5,2.1l-1.3-0.3l-3.2-2.8l-1.1-3.6l-0.7-2.7h-9.8
		l-3.2-1.9l2.5-3.3l-5.4-0.2l-2.1,2.3l0,0l-1,1.2l-3.8-0.4l-0.4,2.2l-1.8,0.2l-0.2-2.6l-2.4-0.7l-1,1.1V130l-2.7,2l-3.6-0.6
		l-1.2,2.4l-7.3,4v1.8h-1v-3.4l-4.1-1.9l0.4-3.5l-3.7-2.7v-3.2l-2.7-0.6l0.2-3.2l-2.1-0.2l0.2-2.2h-4.4l-0.4,1.3L62.5,117.8
		L62.5,117.8z M72.3,190.9l1.8,0.4l1.8,2.1l-0.8,1.2l-2.2-0.7l-3-1.4l2.9-0.4L72.3,190.9z"/>
</g>
</svg>
