<svg id="Calque_1" data-name="Calque 1" xmlns="http://www.w3.org/2000/svg" viewBox="0 0 493.38 542.26"><defs><style>.cls-1,.cls-2{stroke:#fff;}.cls-1{stroke-width:0.25px;}.cls-2{stroke-miterlimit:10;}</style></defs><title>france_map</title><g id="departements"><path id="dep2A" class="cls-1" d="M438.1,483.8V486l2,1.4,3.3,1.9,0.2,1.6-2,.6-3.1.6v1.3l1.2,1.2,0.2,3.9,4.3,1.4,1.6,0.4,1.4,2.2-1,1.4-1.6.6-1.2,2.2-1.2,1.4,0.6,3.5,2.9-.2,0.8,0.6,2.8-1.4,0.8,0.8-1.4,2.9,1.4,1.4-2.3,1.8-1.6,3.5,4.3,1,6.1,0.6-2.5,2.9a2.7,2.7,0,0,0-1.7-.2h-0.1v0.1h0v0.2a11.07,11.07,0,0,1-1.3,3.3l1.9,2.1,3.5,2.2L463,535l1.9,0.8,1.8,0.8-1.2,2.2,3.1-.2,0.6,1.4h3.1l0.8-3.7-2-.4,2.8-2.9-1-1,0.2-1.8,3.5-1.9,0.2-2.2-2.3-.2-1.6,1.3V525l3.1-.2,1-2.3,0.8-6.8-0.6-2.9-0.1-2.8-3.4,2.2-4.1.2-0.3-2.8,0.5-.7-1.2-.9-0.3-4.8-0.5-.9h-2.1l-1.1-.9V498l-1.4-.9-1.1-.5-2.1-2.7,0.2-1.6h-2.6l-0.9-2.7H453l-1.9-2.7,0.5-.9-1.2-.7-2.8.5-1.1-.7h-3.9l-0.4-1.1-2.2-.4h-1.9v0.2Z" transform="translate(-0.16 1.96)"/><path id="dep2B" class="cls-1" d="M470.7,444.7l-2.9,2,0.4,1.9,1.6,2L468,452l0.8,1.6-1.2,1.4v1.8l2,1.8v2.7l-1.2,2.5-1.3.6-1.6-2.2-2.8.2-0.6-.4h-2.3l-2.1,2-0.8,3.3-5.1,1-3.9,3.3-0.8,2.2-1.9-.2-1-1.2-0.6,3.3-1.4.6-0.4,3.1,0.6,1.4-2.2,1.6-0.6,1.6,2.2,0.4,0.4,1.1h3.9l1.1,0.7,2.8-.5,1.2,0.7-0.5.9,1.9,2.7h3.7l0.9,2.7h2.6l-0.2,1.6,2.1,2.7,1.1,0.5,1.4,0.9v3.4l1.1,0.9h2.1l0.5,0.9,0.3,4.8,1.2,0.9-0.5.7,0.3,2.8,4.1-.2,3.4-2.2-0.1-5.8,4.7-6.6V487.1l-1.9-3.7-0.6-11.7-1.4-2.2L475,467l-0.4-7.2,1.2-3.3-1.6-5.3-1-4.3-0.8-1.2Z" transform="translate(-0.16 1.96)"/><path id="dep13" class="cls-1" d="M372.5,404.8l-5.5,3.1-1.4,10.5-5.8-.8-1.7,4.4,1.4,1.9-6.3,3.9-1.8,4.1,6.2,0.3,8.2,0.6,1.6,1.6h-2.9l-1.9,3.3,8.4,1.8,6.7-1.2-3.5-3.3,2.3-1.9,3.7,1.6,1.8,3.7,11.2,0.2,2.9-1.2,0.6,1.8-3.1,2.7,4.3,0.2-0.8,2-1.2,1.4h9.6l4.7,1.6,0.5,0.6,0.2-3.9,1.4-1.6,1.8-1.1-0.2-1.1-1.4-1.4h-1.4l-0.9-1.1,1.6-1.4v-0.5l-1.8-.9v-1.4l3.9,0.2,0.9-.7-3.4-3.2,0.2-3.7-2.1-1.8,1.8-3.5,4.2-2.8-3.2-2.1-2.3,1.8-5.3,1.2-4.2-.5-7.6-3.2-4.6.2-3.9-1.8-1.4-2-3-3.3-7.1-3Z" transform="translate(-0.16 1.96)"/><path id="dep84" class="cls-1" d="M379.8,376.2l-2.8.2-2.1,3.3,0.6,3.5,3.3,0.4-0.6,1.6-2.6.2-2.9,2.9-0.8-1,0.6-3.9-1.2-1.4-5.3.8-1,2.1,0.6,0.3,3.3,5.5v4.4l5.8,5.8v2.5l-2.2,1.3,0.2,0.1,7.1,3,3,3.3,1.4,2,3.9,1.8,4.6-.2,7.6,3.2,4.2,0.5,5.3-1.2,2.2-1.7,0.3-1.5-4.1-4.6h-4.4v-1.6l1.6-1.8v-1.9l-3.5-1.8-0.3-2.8,1.9-.9v-2.5l-2.1-.4-0.2-2.7v-0.2l-1.8-.1-2.9-2.2-0.8-2.5-5.5-.4-4.1-.4-0.4-2.3,1.4-2.9-2.5,2.2-3.9-.4-0.8-1.4,2.7-3.7Z" transform="translate(-0.16 1.96)"/><path id="dep83" class="cls-1" d="M450.6,408l-3,.1-1.4,1.4-5.3-.2-4.6,3.3-3.2-2.1-5,1.6-0.9,1.8-3.5,2.7-6.4-4.2-5.2,1.7-0.2,1.4,0.1-.1,3.2,2.1-4.2,2.8-1.8,3.5,2.1,1.8-0.2,3.7,3.4,3.2-0.9.7-3.9-.2v1.4l1.8,0.9v0.5l-1.6,1.4,0.9,1.1h1.4l1.4,1.4,0.2,1.1-1.8,1.1-1.4,1.6-0.2,3.9,0.5,0.7,3.5,1.6,1,3.9,2.2,0.4,2-1.4,3.5-2.2,6.1,0.6-0.2,1.6-2,1,4.7,0.2-1.2-1.2-0.4-2.5,2.5-1.8,2.9,1,1.2,0.4,1,1.2,1.4-1,0.4-2.6,1.6-1.3h4.1l1.2-1.8,2.7,0.8,3.1-1.3v-5.1l-4.1.2,3.1-1.9,1.6-2.2,0.4-3.1,5.7-.8,3.2-3.5-2.2-2.2v-1.2l-1.1-1.1,1.4-1.2-0.3-2-2.3-.9h-1.2l-2.1-2.1-0.4-3.7-2.3-1.1-2.3-.2-0.9-2.1Z" transform="translate(-0.16 1.96)"/><path id="dep04" class="cls-1" d="M456.6,359.2l-2.1,3.2-3,1.8-1.1,2.1-2.7.2v1.9l-0.7,1.1-1.1,2.7-6.3-.2-3-1.6-2,1.4-3.7-.2-0.9,1.2h0.9l0.5,3.3-0.9.4-3.3-2.1v-1.2l-1.9-1.6h-1.1v1.8l-1.6.3-3.4,1.9-2.1,3.6-0.5,1.8,1.2,0.3,0.2,2.8h-1.2l-1.9-1.8-1.1.2,0.5,1.6,3,3.3-1.9.7-1.4-.9h-3.6l-3,2.8h0l-0.1,1.2-1.2-1.4-1.6-1.4-1,2.9-1.8,1.6-0.8-.1V393l0.2,2.7,2.1,0.4v2.5l-1.9.9,0.3,2.8,3.5,1.8V406l-1.6,1.8v1.6h4.4L412,414v0.1l5.2-1.7,6.4,4.2,3.5-2.7,0.9-1.8,5-1.6,3.2,2.1,4.6-3.3,5.3,0.2,1.4-1.4,3-.1h0.1l-0.7-1.8,0.9-1.1-0.3-1.4h2.8l0.7-.9,2.7-1.4,2.1,1.4,1.4-.9-3.3-3-3.6-3.3-1.2-.4-0.2-2.7-2.1-3.2,0.7-4.6,1.1-2.5,1.9-1.6,0.2-2.5,2.7-1.4,0.4-.2v-3.8l2.8-.4-1.6-1.4-2-.6-1-2.5,0.8-1.8,3.5-3.7-0.6-2.8,0.5-.5Z" transform="translate(-0.16 1.96)"/><path id="dep06" class="cls-1" d="M456.7,376.7l-0.4.2-2.7,1.4-0.2,2.5-1.9,1.6-1.1,2.5-0.7,4.6,2.1,3.2,0.2,2.7,1.2,0.4,3.6,3.3,3.3,3-1.4.9-2.1-1.4-2.7,1.4-0.7.9h-2.8l0.3,1.4-0.9,1.1,0.7,1.8-2.3,1.4,0.9,2.1,2.3,0.2,2.3,1.1,0.4,3.7,2.1,2.1h1.2l2.3,0.9,0.3,2-1.4,1.2,1.1,1.1v1.2l2.2,2.2,0.2-.2,0.2-4.5,3.9,0.8,1.4-1.8,2,0.4,0.2-6.1,4.5-.4,3.9-3.5h3.5l0.2-2.2,3.5-2.1-2-4.5,2.9-2.5-0.6-2.9,4.3-1.4,1.2-4.3-0.6-2.9-1-1.8-0.8-2.6-2.9.2-9.2,3.3h-2.9l-5.1-4.1-5.1-1.4h-2.9v-3.5l-4.1-2.5v-0.2h0.1Z" transform="translate(-0.16 1.96)"/><path id="dep05" class="cls-1" d="M440.1,334l-1.8.8-0.4,2.9-3.5.4-0.6-2.8-1.2-1.2-3.5.4-1.4,1.2-0.8,4.1,0.6,1,4.1,0.4,0.8,2.5,1.6,0.8v4.3l-3.7-.2-1.6,1.8-4.5-.8-2.5,2.2L420,351l-2.5,2,1,1.8-1.6,1.6H412v2.3l1.6,0.8-0.6,1.4-3.3,1.3-4.1.4-1.2,3.7-0.2,2.3,2.2,1.8-2.2,2.5-2.7-1.4-3.1-.2-0.4,1.8,2,1.4-2.4,1.6,0.8,3.3,6.6,1.8,1.2,2.5,1.9,0.4-0.7,6.1h0l3-2.8H414l1.4,0.9,1.9-.7-3-3.3-0.5-1.6,1.1-.2,1.9,1.8H418l-0.2-2.8-1.2-.3,0.5-1.8,2.1-3.6,3.4-1.9,1.6-.3v-1.8h1.1l1.9,1.6v1.2l3.3,2.1,0.9-.4-0.5-3.3H430l0.9-1.2,3.7,0.2,2-1.4,3,1.6,6.3,0.2,1.1-2.7,0.7-1.1v-1.9l2.7-.2,1.1-2.1,3-1.8,2.1-3.2,2.5,0.1,1.8-2,2.1,0.2v-1.8l-2.7-1.4-0.6-5.7-2.2-.8-2.7.4-5.1-2.6-0.8-5.8-2.9-1-1-2-1.3-2.8Z" transform="translate(-0.16 1.96)"/><path id="dep48" class="cls-1" d="M313.6,347.1l-5.5,2-1.6,3.5-3.5-2.3-2.8,8.6-2.8,6.5,4.1,5-0.3,3.9,2.8,1.9v4.7l0.8,6.6,3.3,1.4-0.3,2.2,4.7-.8,1.7,0.8-1,.9,6,4,5.2-1.1,0.9-1.2-0.7-1.8,2.1-.5,3,2.8,5.1,0.5,2.3-3.5v-3l1.4-1.6-1.2-.3v-4.1l-2.8-3,2.3-.4,1.2-1.1,1-1.9-1-.6,0.6-4.1-3.3-3.6-1.4-7.2-5-6.3-3.6.9-0.8-2.7h-2l-0.4,2.3-5.1,1.6Z" transform="translate(-0.16 1.96)"/><path id="dep03" class="cls-1" d="M294.4,242.8l-2.7,3.5-1.6.2-1.8,1.8-2-2.2-5.2,5.3v3.1l1,0.8,0.2,1.6-2.7,2.1-2.6-.8-4.9,1-2.5,2.9-0.9,2h0.2l2.3,3.3v2.3l1.3,1.8,1.4-1.8,1.6,2.8,2.2,0.8,2.2,5.1,0.1,1.5,3,2.3,1.6-.7,1.2-3,1.2-.3v-1.6l2.1-.2,0.2,1.1,2.7-3h3l0.5,1.1-1.4,1.9,2.1,2.3,0.4,1.4,4.9,2.8,6,0.9,1.8-.2,2.7,0.5,2.3-1.4,1.8,0.9,0.3,2.5,2.3,0.5,3-.2,0.9,2.1,2.8,1.1,0.1-1,4.7-.2-0.4-11.1-1.4-2.7,0.6-2.2,3.2-.6,0.1-.2,4.1-3.1,0.2-7.6-1.6-2h-3.1l-1.2-1.6h-3.3l-1-1.2v-2.9l-3.9-7.4-1.9-1.4-3.7,5.1-1.6.4-0.6-2.5-1.8-.8-0.8,1.6h-2.9l-0.4-1.8-2,1.2-2.1,1.2-2.3-2.6-3.3-1.6-0.2-2.5Z" transform="translate(-0.16 1.96)"/><path id="dep30" class="cls-1" d="M339,375.9l-1,1.9-1.2,1.1-2.3.4,2.8,3v4.1l1.2,0.3-1.4,1.6v3l-2.3,3.5-5.1-.5-3-2.8-2.1.5,0.7,1.8-0.9,1.2-5.2,1.1-6-4-1.2,1v2.8l-2.2.5,0.6,2.2,2.8,0.6h3L317,403l-3.6,1.7v1.8l2.8,1v1.6l1.2,0.7,1.1-.9h1.4l0.7,1.6h2.1l1.1-3.7h1.8l2.7-3.3,3.2,0.3,0.5,4.6,1.2,1.4,2-1.1,3.3,1.8,1.2,2.1,5.8,3.5,2.1,5v2.6l-3.7,2.1-2.4,2.2,3,0.2v3.9l4.5-.2,2.4,0.1,1.8-4.1,6.3-3.9-1.4-1.9,1.7-4.4,5.8,0.8L367,408l7.7-4.4V401l-5.8-5.8v-4.4l-3.3-5.5-6.9-3.9-0.5,3-2.8.3-0.8-3-2.8.5-0.5,3.9-2.2-.8-4.7-3.1-2.2,1.1v-5.5Z" transform="translate(-0.16 1.96)"/><path id="dep11" class="cls-1" d="M267,433.3l-0.3,3.6-3.6-1.1h-3.9l0.3-1.4-1.9.3-4.1,1.4-1.4-2.5-2.8,2.5,0.8,1.9-3.1,1.4-0.5,3-2.5,1.1,2.2,2.5-0.6,1.7,9.7,4.7,0.8,6.7v3.6l0.6,4.7h-5l-1.4,1.9,6.3,5.2,3.6-1.9,4.4,5.2-0.7.1,0.8,0.5,7.9-3.9-1.9-2.8-0.2-3.3H289l-0.3-2.5,4.2-2.3,4.9,3.9,2.6,1.2-0.2-5.6,0.2-6.4-2.3.2-2-2.9,1.6-2.6,3.3,3.1,2.9-2.3,2-1.9,0.2-2.1-2.5-.1-0.9-2.8-2.5-.2-2.3-3.4-1.8.2-2.1-1.2-0.4-3-1.1.5,0.5,2.1h-2.5l-0.2,3.5-3.7,1.2-1.8-3.7-2.5,1.6-2.1-1.6-1.1-2.5,1.8-2.1-0.8-2.3-0.2.1h-5.8l-6.1-1.1h-1v-0.1h0Z" transform="translate(-0.16 1.96)"/><path id="dep34" class="cls-1" d="M328.3,403.2l-2.7,3.3h-1.8l-1.1,3.7h-2.1l-0.7-1.6h-1.4l-1.1.9-1.2-.7v-1.6l-2.8-1v1l-3.3.5-1.7,1.4,0.5,3.3h-3l-3-1.7h-1.7v1.9l0.3,5.8h-5l-1.1,2.2-7.2,2.5-2.8-1.9-1.7,2.5-0.8,2.8,3,2.8L285,433l-4.2,1.3,0.8,2.3-1.8,2.1,1.1,2.5,2.1,1.6,2.5-1.6,1.8,3.7,3.7-1.2,0.2-3.5h2.5l-0.5-2.1,1.1-.5,0.4,3,2.1,1.2,1.8-.2,2.3,3.4,2.5,0.2,0.9,2.8,2.5,0.1,0.1-1.1,7-2.2,0.8-1.8,5.5-.2,1.8-2.2,10.6-8.4,6.6-4.7,2.7,0.2,2.4-2.2,3.7-2.1v-2.6l-2.1-5-5.8-3.5-1.2-2.1-3.3-1.8-2,1.1-1.2-1.4-0.5-4.6Z" transform="translate(-0.16 1.96)"/><path id="dep66" class="cls-1" d="M293.3,463.5l-4.2,2.3,0.3,2.5H270.9l0.2,3.3,1.9,2.8-7.9,3.9-0.8-.5-6.5.5L257,480l-3.3.8-2.2,1.9-6.1,1.4,0.3,2.1,2.9,2.8,5.8,1.6,0.2,3.5,3.1,2.8,2.3-.4,3.3-4.1,4.1-.8,6.4,2.2,5.5,4.7,1.6-2h1.4l1.4,1,1.2-.6,0.2-2.8,5.9-1.4,1.9-2.5,2.9-1h4.1l2.6,2.7,3.1,0.2V489l-1.6-2.2-2.8-1.2-0.4-17.1-2.6-1.2Z" transform="translate(-0.16 1.96)"/><path id="dep15" class="cls-1" d="M278.6,318.6l-0.6,2.2,1,2.3-1.2,1.4h-1.9l-2-2.2-1.8-1-0.2,5.5-3.5,2.2-2.5,3.5,0.6,3.5-0.8,1.6-1,3.1h-1.6l-1.6,1.9,1.2,1.2,0.8,1.9-2.5,1.8,1,6.5,3.3,2.5-2.5,5.8,2.5,1.1-1.1,3.3,2.2,0.3,1.7-2.8h2.8l0.5,0.8h6.1l1.1-2.5,1.4-.6,0.6-4.4H282v-4.7l5.5-4.7,0.6,0.8,0.5,3.6,3.9-.6,0.8,5.5h1.9l0.6,5.5,1.7,2.1,2.8-6.5,2.8-8.6,3.5,2.3,1.6-3.5,5-1.8v-1.7L312,344l-2.1-1.2,1.1-1.6-0.9-.9,1.1-.3,1.2-1.1-2.1-.2-1.1-1.4-0.3-3.7-1.2-1.2-0.9-3.2h-4.4l-0.9-2.5-1.4-.2-0.7,1.4-2.8-.2-2.7-4.1-1.1-.2-2.1-1.1-1.2,1.2h-3.2l-1.6-3.3Z" transform="translate(-0.16 1.96)"/><path id="dep43" class="cls-1" d="M310.6,321.2l-1.4.7v1.2l-2.1.2-1.9,1.6-3.5.5-0.8,1.2,0.6,0.1,0.9,2.5h4.4l0.9,3.2,1.2,1.2,0.3,3.7,1.1,1.4,2.1,0.2-1.2,1.1-1.1.3,0.9,0.9-1.1,1.6L312,344l1.1,1.6v1.7l0.5-.2,3.5,9,5.1-1.6,0.4-2.3h2l0.8,2.7,3.6-.9,4.5,5.8,2.8-4.5,5.1-3.7h4.7l1.6-4.9,3.1-.2,0.2-3.7h2.9l-0.6-1.4-0.8-2.5,1.2-2,2.8-1.2,1.2-4.7-2.5-2.9-3.1.2,0.4-3.7-6.2-2.7-2.1.2-4.3,3.5-3.9-1.3-0.8.8-2.5-.7-1.8-1.8-1.1,2.1-3-.2-1.4-1.2-1.1,2.5-1.9-.9-1.2-2.3h-1.6l-1.4-1.2-2.1.9-2.5.2-1.4-.9-0.9.5Z" transform="translate(-0.16 1.96)"/><path id="dep63" class="cls-1" d="M291.9,274.3l-2.7,3-0.2-1.1-2.1.2V278l-1.2.3-1.2,3-1.6.7-3-2.3,0.3,4.6,1.6,1.9,0.8,3.7-2.3,1.8-0.6,2.8-2.2,1.2-3.7,2.2,0.4,1.8,4.5,4.5,0.4,2.8-1.8,2.9v2.8l1.2,1.4,0.6,3.3-0.4,1.3,6,1.8,1.6,3.3h3.2l1.2-1.2,2.1,1.1,1.1,0.2,2.7,4.1,2.8,0.2,0.7-1.4,0.8,0.1,0.8-1.2,3.5-.5,1.9-1.6,2.1-.2v-1.2l1.4-.7,0.4,0.9,0.9-.5,1.4,0.9,2.5-.2,2.1-.9,1.4,1.2h1.6l1.2,2.3,1.9,0.9,1.1-2.5,1.4,1.2,3,0.2,1.1-2.1,1.8,1.8,2.5,0.7,0.8-.8-1.5-.5-0.6-2.3,3.7-3.5-1.8-6.4-5.1-3.3-2.1-5.1-2.3-3.1,0.6-4.3,1.8-1.8-3.1-2.5,0.1-.8-2.8-1.1-0.9-2.1-3,.2-2.3-.5-0.3-2.5-1.8-.9-2.3,1.4-2.7-.5-1.8.2-6-.9-4.9-2.8-0.4-1.4-2.1-2.3,1.4-1.9-0.5-1.1h-3.1v-0.5Z" transform="translate(-0.16 1.96)"/><path id="dep65" class="cls-1" d="M172,423.4l-1.9,1h0.3l3.3,5.5-2.2,2,1.6,2.3,2.3,3.5-1.9,2.5-3.1,7-5.3,4.5,1.4,2.8-1.2.8-2.9-.6-0.8,6.4-1.6,1.2-0.3,4,0.5-.3,3.3,2,3.9,2.9,0.4,2.3,3.1,2.5h2.6l6.4-2.8,2.7,3.1,3.7,1,1.4-2.3,1.8,0.8,3.8,0.2-0.2-10.5h2l1.8,0.9,1.2-1.2-0.2-1.9,2.5-1.4-0.9-3.7-1.1-.9-2.1.7,1.1-1.8-0.5-2.3-3.2-2.3,0.2-1.6,1.8-3,2.3-.9v-1.2l1.4-2.1,0.9-1.3-3.6-1.8h-4.8l-0.7-1.4h-2.5l-0.7-1.6h-2.3l-0.7.7h-2.7l-0.2-1.6-2.1-1.4,0.7-.7,0.3-1.8-0.5-.5-1.1-2.8-2.3-.3-2.3-1.2,0.2-3.3h-3v-0.1h0Z" transform="translate(-0.16 1.96)"/><path id="dep64" class="cls-1" d="M164.9,423.7l-2.8,1.6-5.7-.2-0.5-.9-3.7,1.2-2.8.9-2.1-1.6-2.3.7-0.7-.9h-2.8l-1.8.9-4.6-.2-2.5,1.9-4.4-.3-0.9,1.2-1.1-.4,1.4-1.4-2.5-1.9-3,2.7-5.1.3-5.6-2.8-0.8,1.4-4.5,5.5-3.5,1.4-2.5.4v2.2l2.3,2.2,3.5,0.2,0.2,2.5,2.8,0.2,0.8-1.8,3.7,1.6,2.3,0.6,0.6,2.3-1.3,1.2v3.7l-2.8,1.4-0.2,1.8,1.8,2,3.1,1,0.6-2.9,1.8-1.9-0.2,2.5,1.4,2H124l1.6,2.1,4.7,0.8,4.5,2.8h7.4l0.4,4.1,5.1,3.9,2,2.3,2.2-1.2,1.9-.4,1,1,1.8-1,3.4-1.9,0.3-4,1.6-1.2,0.8-6.4,2.9,0.6,1.2-.8-1.4-2.8,5.3-4.5,3.1-7,1.9-2.5-2.3-3.5-1.6-2.3,2.2-2-3.3-5.5-5.3-.4Z" transform="translate(-0.16 1.96)"/><path id="dep40" class="cls-1" d="M132.6,369.3l-6.2,3.2-1.6.1-3.5,18.6-4.5,17.2-1.4,6.7-1.2,4.7-2.9,5,5.6,2.8,5.1-.3,3-2.7,2.5,1.9-1.4,1.4,1.1,0.4,0.9-1.2,4.4,0.3,2.5-1.9,4.6,0.2,1.8-.9h2.8l0.7,0.9,2.3-.7,2.1,1.6,2.8-.9,3.7-1.2,0.5,0.9,5.7,0.2,2.8-1.6-1.4-2.4,1.4-3.7,1.9-2.5-0.6-3.3,1.6-1.6-2.3-3.9,1.9-2.3,2.2-.4,1.9,0.8,2.8-2.3,1,2.9,1,1.4,2.2-.6-0.2-2.5,0.6-1.4-0.5-1.2,0.5-3.9,2.1-2.1-1.1-1.2-2.3-.2-2.7-1-3.9.3-0.7-4.2-2.5-3-1.1-.3,0.4,3.5V390l-3.4.2-3.5-1.2-0.7-4.4-2.5-2.7-1.8-.2-0.2-1.6-1.9-1.2-3.2-.9,0.9-1.1v-1.1l-1.1-.9-1.2-1.1-3.6.5-2.1,1.8-1.4.2-2.3-1.6-3.4,1.4L134,375l1.4-1.8,0.2-2.3Z" transform="translate(-0.16 1.96)"/><path id="dep33" class="cls-1" d="M134,310.1l-3.1,4.7-1,16.4-2.5,16.6-1.8,12.9-0.2,3.3,1.4-4.5,2.7-3.5,3.9,3.5,0.4,1.2,1.2,1.6-4.9.2-0.8-1.2-1.9.8L127,365l-2.2,2.9v4.7l1.6-.1,6.2-3.2,3.3,1.2-0.2,2.3-1.4,1.8,1.6,1.1,3.4-1.4,2.3,1.6,1.4-.2,2.1-1.8,3.6-.5,1.2,1.1,1.1,0.9v1.1l-0.9,1.1,3.2,0.9,1.9,1.2,0.2,1.6,1.8,0.2,2.5,2.7,0.7,4.4,3.5,1.2,3.4-.2v-1.1l-0.4-3.5,1.1,0.3,2,2.4,3.1-.5,1.4-1.4-0.2-1.9-1.2-1.1,0.4-2h1.9l1.9-1.2-0.9-1.8-0.5-2.7,1.4-2.5,3-4.6,1.8-2.1,1.6-.5,0.3-1.8-2.1-.2-0.9-1.9,0.7-1.9,2.5-.5,1.8-.5,2.1-.3-0.1-.1-0.2-3.9,1.9-1.4-2.5-1.6-2.5,3-6,.2-0.5-1.4-1.8-.9,1.4-1.8v-1.9l-0.7-1.1v-1.1l1.8-1.1,0.5-3.2,1.1-2.8-1.1-1.6h-1.9l-1-1.2-1,2.1-1.9-1.4-2.8,1.4-2.3-.4-4.5-4.5-2.8-.2-0.8-6.2-5.1-.6-0.2-2.9-1,1h-5.8l0.3,1.2,1.4,5.7,0.4,5.7-1,1.6-1-4.7-2.8-10.7-10-9,0.2-4.1Z" transform="translate(-0.16 1.96)"/><path id="dep24" class="cls-1" d="M202.6,305.3l-1.8,3.1-2.8.4-0.2,4.7-9.2,6.2-0.2,6.8-3.5,3.5-1.9,1.8-3.9-.4-2.2,3.7-0.6,1.2,1,1.2h1.9l1.1,1.6-1.1,2.8-0.5,3.2-1.8,1.1v1.1l0.7,1.1v1.9l-1.4,1.8L178,353l0.5,1.4,6-.2,2.5-3,2.5,1.6-1.9,1.4,0.2,3.9,2.8,2,0.3,3.7,3,1.1,1.8-1.6h3.9l2.1-1.8,1.2,0.2,0.3,1.4h3.9L208,362l1.4,0.2L211,364v1.2l-1.4.9,0.5,1.2,1.9,0.2,2.5-2.3h2.1l1.4,1.6,3.1,1.3,0.2-.5,1.8-1.8,0.2-2.9,4.3-.4,2.8-3.9-1.2-.4-0.2-2.1,3.3-.4,0.2-1.9,1.6-1,1.8-3.1-1.8-1.9v-2.2l1.3-1.2-1.8-2.8,0.2-4.3-4.3.2-1.8-1.2,1.6-1.9-2.2-1.8,1.6-2-1.6-.8v-2.7l3.9-3.5-2.2-1.8L228,319l-4.1-.6-1.4-1,2.9-1.4-1-1.3-4.3-.6-1-3.9-6.2-.6-1.4,2-1.3.4-1.8-2.3,0.8-2.2-1-1.9Z" transform="translate(-0.16 1.96)"/><path id="dep47" class="cls-1" d="M188,358.2l-2.1.3-1.8.5-2.5.5-0.7,1.9,0.9,1.9,2.1,0.2-0.3,1.8-1.6.5-1.8,2.1-3,4.6-1.4,2.5,0.5,2.7,0.9,1.8-1.9,1.2h-1.9l-0.4,2,1.2,1.1,0.2,1.9-1.4,1.4-3.1.5,0.5,0.6,0.7,4.2,3.9-.3,2.7,1,2.3,0.2,1.1,1.2-2.1,2.1-0.5,3.9,0.5,1.2,0.8-1.6,2.3,2,3.1-3.1,1.4,1.9,3.3-.6,3.5-.4,1.6-2.8,5.8-.6,2.9,2.9,1-1,1.9-.6-0.8-2.7,2.9-.8,3.7-.8-0.8-2.3,1.2-1.4,1-3.7-2.2-2.3,1.4-4.5,2.9,1.8,4.3-.8-2-4.3-1.6-5.8,3.9-.2,0.8-2.1-3.1-1.3-1.4-1.6h-2.1l-2.5,2.3-1.9-.2-0.5-1.2,1.4-.9v-1l-1.6-1.8-1.4-.2-0.9,1.1h-3.9l-0.3-1.4-1.2-.2-2.1,1.8h-3.9l-1.8,1.6-3-1.1-0.3-3.7Z" transform="translate(-0.16 1.96)"/><path id="dep46" class="cls-1" d="M240.2,342.2l-4.2,1.9-0.6.1,0.1,0.2-1.3,1.2v2.2l1.8,1.9-1.8,3.1-1.6,1-0.2,1.9-3.3.4,0.2,2.1,1.2,0.4-2.8,3.9-4.3.4-0.2,2.9-1.8,1.8-1,2.6-3.9.2,1.6,5.8,1.7,3.6,2.5-.1,0.2,1-1.4,1.6,1.1,2.1h1.6l1.8,1.9h1.6l1.2-1.4,0.3,0.4v1.8l0.5,2.3,3.7,0.2,3-3.2,1.6-.2,0.5,0.9,0.9,1.9h1.4l0.5-3.5,3,0.4,1.8-2.1,2.8,0.7,4.2-1.9V383l1.4-1.4-1.8-2.7-0.7-3.5,2.3-1.9,1.1,0.3,3.2-3.5,1.8,0.2,0.7-.9h3.5l1.2-1.4,0.3-1.1-1.6-.2,1.1-3.3-2.5-1.1,2.5-5.8-3.3-2.5-1.1-7.2-3-.8-2.2,2.2-1.1-1.9-3.3,3.3-2.2.3-3.8-5.5Z" transform="translate(-0.16 1.96)"/><path id="dep09" class="cls-1" d="M230,441.2l-1.2.9-0.5,1.1,2.5,1.8,0.7,1.2-0.5,1-4.2.4-1.2,1.8,0.2,0.5,1.6,0.5,0.9,1.2-1.1,1.8-1.2-.2-1.9-1.8-2.3-.7-2.3.2-4.1,2.5,0.2,3.4,1.1,0.7-0.7,2.6-4.6,1.2-1.8,2.1v3.5l0.7,1.1-1.7,1.5,1.1,0.6,6,1.2h2.6l3.3,4.3,8.4-.4,3.3,5.3,2.9-1.2,8.6,1.2,0.6,3.6,6.1-1.4,2.2-1.9,3.3-.8,0.8-1.7,7.2-.5-4.4-5.2-3.6,1.9-6.3-5.2,1.4-1.9h5l-0.6-4.7V459l-0.8-6.7-9.7-4.7,0.6-1.7-1.8-2.1-1.6.7-2.1.3-3.9-1.8-1.1-.3,1.6,1.9-0.7,1.6-3.4-.3-0.2-1.8-2-2.7Z" transform="translate(-0.16 1.96)"/><path id="dep32" class="cls-1" d="M200.6,396.7l-5.8.6-1.6,2.8-3.5.4-3.3.6-1.4-1.9-3.1,3.1-2.3-2-1.4,2.9,0.2,2.5-2.2.6-1-1.4-1-2.9-2.8,2.3-1.9-.8-2.2.4-1.9,2.3,2.3,3.9-1.6,1.6,0.6,3.3-1.9,2.5-1.4,3.7L165,424l4.9,0.3,1.9-1h3l-0.2,3.3,2.3,1.2,2.3,0.3,1.1,2.8,0.5,0.5-0.3,1.8-0.7.7,2.1,1.4,0.2,1.6h2.7l0.7-.7h2.3l0.7,1.6H191l0.7,1.4h4.8l3.6,1.8,0.3-.4,1.9-1.1,3.5-4.6,6.6,0.5,2.8,1.9,0.9-1.2,1.4-4.2,1.8-4.1,3.7-1.6,1.8-.7-0.5-1.6-1.8-.2-0.7-1.8h-1.4l-2.3-2.3,0.2-1.6-3-3-0.5-1.9-1.9.8-0.5-1.1,1.2-1.9-1.4-1.4V407l-1.2-1.2-4,.2v-2.3l2.1-1.6v-1.8l2.3-1.1-1.2-.7-1.4.7H206l-0.9-.8-0.5.2-1,1Z" transform="translate(-0.16 1.96)"/><path id="dep31" class="cls-1" d="M237.8,407.3l-2.8,1.1-0.9,1.4-1.1-1.2-1.9-.2-0.4,1.8-1.2.5,1.8,0.9-1.2,1.9-4.4,1.2-1.9-2.3H222l-1.4.9h-5.1l-0.5.2,0.5,1.9,3,3-0.2,1.6,2.3,2.3H222l0.7,1.8,1.8,0.2,0.5,1.6-1.8.7-3.7,1.6-1.8,4.1-1.4,4.2-0.9,1.2-2.8-1.9-6.6-.5-3.5,4.6-1.9,1.1-1.2,1.8-1.4,2.1v1.2l-2.3.9-1.8,3-0.2,1.6,3.2,2.3,0.5,2.3-1.1,1.8,2.1-.7,1.1,0.9,0.9,3.7-2.5,1.4,0.2,1.9-1.2,1.2-1.8-.9h-2l0.2,10.5,7.9,0.5,0.4-9.6,2.7,0.4,4,2.3,1.7-1.5-0.7-1.1v-3.5l1.8-2.1,4.6-1.2,0.7-2.6-1.1-.7-0.2-3.4,4.1-2.5,2.3-.2,2.3,0.7,1.9,1.8,1.2,0.2,1.1-1.8-0.9-1.2-1.6-.5-0.2-.5,1.2-1.8,4.2-.4,0.5-1-0.7-1.2-2.5-1.8,0.5-1.1,1.2-.9,1.2,0.3,2,2.7,0.2,1.8,3.4,0.3,0.7-1.6-1.6-1.9,1.1,0.3,3.9,1.8,2.1-.3,1.6-.7-0.4-.4,2.5-1.1,0.5-3,3.1-1.4-0.8-1.9,2.8-2.5,1.4,2.5,4.1-1.4,0.8-.1,0.1-1.3v-2.5l-2.1.4-2.7-.7-2.3-2.8-0.9-1.2-4.6-1.9-1.1-1.6,1.4-.5v-1.9l-1.4-1.6-1.8-2.8-0.2-2.5-0.5-.3-2.1-2.5-0.9-2.6Z" transform="translate(-0.16 1.96)"/><path id="dep82" class="cls-1" d="M213,379.5l-1.4,4.5,2.2,2.3-1,3.7-1.2,1.4,0.8,2.3-3.7.8-2.9.8,0.8,2.7-1.5.4,0.9,0.8h2.8l1.4-.7,1.2,0.7-2.3,1.1v1.8l-2.1,1.6V406l3.9,0.2,1.2,1.2v2.5l1.4,1.4-1.2,1.9,0.5,1.1,2.5-1.1h5.1l1.4-.9h1.8l1.9,2.3,4.4-1.2,1.2-1.9-1.8-.9,1.2-.5,0.4-1.8,1.9,0.2,1.1,1.2,0.9-1.4,2.8-1.1,1.3,0.6,1-1.7-1.8-1.9h3.3l1.1-1.9,2.3-2.1h-2.3l0.7-3,6-.7,2.3-1.4,2.8-1.1,0.9-.9-1.1-2.8,1.6-3.2-2.8-.2-0.3-4.4-4.2,1.9-2.8-.7-1.8,2.1-3-.4-0.5,3.5H239l-0.9-1.9-0.5-.9-1.6.2-3,3.2-3.7-.2-0.5-2.3v-1.8l-0.3-.4-1.2,1.4h-1.6l-1.8-1.9h-1.6l-1.1-2.1,1.4-1.6-0.2-1-2.5.1,0.3,0.7-4.3.8Z" transform="translate(-0.16 1.96)"/><path id="dep12" class="cls-1" d="M287.5,348.2l-5.5,4.7v4.7h-1.4L280,362l-1.4.6-1.1,2.5h-6.1l-0.5-.8h-2.8l-1.7,2.8-0.6-.1-0.3,1.1-1.2,1.4h-3.5l-0.7.9-1.8-.2-3.2,3.5-1.1-.3-2.3,1.9,0.7,3.5,1.8,2.7-1.4,1.4,0.3,4,2.8,0.2-1.6,3.2,1.2,3.2,1.6-.9,0.7,1.6,2.3-2.3,3.4-.2,3.3,2.5,5.8,1.1,2.1,3.7,3,1.4,1.6,4.1-0.2,1.6,1.9,3.6v1.9l3.5,4.6,3.4,1.8,2.1-.5,1.1-1.4,1.6,0.4,3.7,2.3h4.9L301,413v-1.9h1.7l3,1.7h3l-0.5-3.3,1.7-1.4,3.3-.5v-2.8l3.6-1.7-0.8-3.8h-3l-2.8-.6-0.6-2.2,2.2-.5v-3l2.2-1.9-1.7-.8-4.7.8,0.3-2.2-3.3-1.4-0.8-6.6v-4.7l-2.8-1.9,0.3-3.9-5.8-7.2-0.6-5.5H293l-0.8-5.5-3.9.6-0.5-3.6Z" transform="translate(-0.16 1.96)"/><path id="dep81" class="cls-1" d="M263.6,391.7l-3.4.2-2.3,2.3-0.7-1.6-1.6.9-0.2-.4-0.9.9-2.8,1.1-2.3,1.4-6,.7-0.7,3H245l-2.3,2.1-1.1,1.9h-3.3l1.8,1.9-1,1.7,0.3,0.1,0.9,2.6,2.1,2.5,0.5,0.3,0.2,2.5,1.8,2.8,1.4,1.6v1.9l-1.4.5,1.1,1.6,4.6,1.9,0.9,1.2,2.3,2.8,2.7,0.7,2.1-.4v2.5l-0.1,1.3,1.2-.2-0.3,1.4h3.9l3.6,1.1,0.3-3.6h1.7L275,434h5.8l4.4-1.4,1.1-3.6-3-2.8,0.8-2.8,1.7-2.5,2.8,1.9,7.2-2.5,1.1-2.2-3.7-2.3-1.6-.4-1.1,1.4-2.1.5-3.4-1.8-3.5-4.6V409l-1.9-3.6,0.2-1.6-1.6-4.1-3-1.4-2.1-3.7-5.8-1.1Z" transform="translate(-0.16 1.96)"/><path id="dep01" class="cls-1" d="M376.1,257.4l-2.2.2-1.4,2.5-3.7,14.4-0.5,1.2-0.4,4.6-1.1,1.5v6.6l-0.6,1.5,3.8,2.3,1.5,0.2,2.3,2.1,0.4,3.4,2.6-.8,4,1.2,0.1-.8h1.9l2.8,2.6,2.6-1.3,1.3-3.8,1.3-1.5,1.7,0.2,1.7,1.5,0.9,2.8,7.8,9.6,2.3-1.7,0.4-3.6,2.6-.4v-6.4l1.3-1.1,0.4-5.7,0.5,0.4-0.1-2.1-1.1-1.9,0.4-5.5,1.9,1.1,1.1-1.9,1.9-.6,2-1.6h-2.1v-3.7l2.3-1.4,3.5-.4,0.2-2-1.2-.8,2.9-3.7-0.4-1.2-3.3-1.8-8.1,8.9h-5.7v-2.3l-3.1-1.6-3.7,4.1-2.9.4v-2.8l-2.5-1.2-3.9-5.5-3.5-1.4-1.2-2.5-2-.4-1.9,1.4-1.6.4Z" transform="translate(-0.16 1.96)"/><path id="dep38" class="cls-1" d="M390.7,293.5l-1.3,1.5-1.3,3.8-2.6,1.3-2.8-2.6h-1.9l-0.2,2.8,2.8,2.3-4.2,5.5-5.5,1.3-4.2,1.5,2.8,2.8L373,315l-4.2,2.1-0.4,6.2-0.1.1,1.2,2.5,3.4,1.1,2.3-.8,2.8-1.9,3.6,3h3l2.1,3-0.9,2.1,0.4,3-1.1,3,0.4,1.1,1.5-.4,3.4,1.1,4.5,1.3,1.9-1.3,0.8-1.5h0.7l0.2,15.9,1.1,1.1h2.8l2.5,1.5,1.9,1.5,1.9,0.2,1.2,1.1,3.5,0.4,0.2-.6L412,359v-2.3h4.9l1.6-1.6-1-1.8,2.5-2,1.8,0.8,2.5-2.2,4.5,0.8,1.6-1.8,3.7,0.2v-4.3l-1.6-.8-0.8-2.5-4.1-.4-0.6-1,0.8-4.1,1.4-1.2-1.1-1.5L426,332l-1.3,1.3,0.4-1.7v-1.7l-1.7-1.7,0.9-4,1.9-1.1-0.2-2.8-4-4h-1.5l-1.1,1.5-2.5-3.4-1.5.2-1.3,2.8,0.9,1.7-0.7.7-1.7-1.3-4.9-1.1-2.3-4.2v-1.7l-2.3-2.5-0.2-1.1-7.8-9.5-0.9-2.8-1.7-1.5Z" transform="translate(-0.16 1.96)"/><path id="dep74" class="cls-1" d="M438.9,261l-4.5.8-4.3,3.5-1.2-1.8-2.2.2-2,4.3,0.2,1.8,2.1,1.8-3.9,2.6-2.5,2.3h-4.3l-2,1.6-1.9.6-1.1,1.9-1.9-1.1L409,285l1.1,1.9,0.1,2.1,1.6,1.3v5.5l3.8,0.6,1.5,2.8,3.4,0.4,0.6-1.2h1.7l3,3.2,1.1,1.1,3.4-.7,0.8-1.7,0.8-3.4,1.9-1.5,1.5-4.4,1.9-1.3,1.5,0.4,0.4,1.3-1.1,1.3,1.9,2.3h3.2l1.9,3.2-0.4,1.1,1.9-1.3,1.5-1.7,1.3,0.2,0.1-3.4,6.7-2.8,0.8-1.9-0.4-4.3-4.3-4.5-1.4.8v-4.7l-3.7-1.8-0.2-1.6,2.2-2.3v-2.7l-3.5-3.7-0.2-2.5-6.5-.1h0Z" transform="translate(-0.16 1.96)"/><path id="dep42" class="cls-1" d="M332.3,272.9l-3.5.6-0.6,2.2,1.4,2.7,0.4,11.1-4.7.2-0.2,1.8,3.1,2.5-1.8,1.8-0.6,4.3,2.3,3.1,2.1,5.1,5.1,3.3,1.8,6.4-3.7,3.5,0.6,2.3,5.5,1.8,4.3-3.5,2.1-.2,6.2,2.7-0.4,3.7,3.1-.2,2.5,2.8,1.8-.5,3.4-.6,0.9-3.8,4.7-2.8,0.4-6.2,0.2-.1-2.3-.3-2.1.8-1.7-1.1,2.1-2.5-0.6-1.9-6.6-1.1-5.5-5.1V304l1.3-1.1v-1.5l-1.5-.9,1.2-1.9v-2.8l-2.5-2.3v-2.3l-1.7-1.7v-1.9l-0.8-3.2,1.3-1.3,0.2-3.8h4l1.1-1.3-1.3-2.1V274l-1.1-.8-0.8,4h-2.2l-1.6,1.6-1.2-1.2-6.2-1-2.3,1.4h-1.6l-0.4-1.4L333,276l-0.2-3.1h-0.5Z" transform="translate(-0.16 1.96)"/><path id="dep69" class="cls-1" d="M364.5,270.2l-2.1.2-1.8,1.8-1.2-1.6-1.8,1.6-2.4-1.6h-1.9l-0.8.6-0.4,2.2,1.1,0.8v1.9l1.3,2.1-1.1,1.3h-4l-0.2,3.8-1.3,1.3,0.8,3.2v1.9l1.7,1.7v2.3l2.5,2.3v2.8l-1.2,1.9,1.5,0.9v1.5l-1.3,1.1v1.7l5.5,5.1,6.6,1.1,0.6,1.9-2.1,2.5,1.7,1.1,2.1-.8,2.3,0.3,4.1-2-0.7-1.3-2.8-2.8,4.2-1.5,5.5-1.3,4.2-5.5-2.8-2.3,0.2-2-4-1.2-2.6.8-0.4-3.4-2.3-2.1-1.5-.2-3.8-2.3,0.6-1.5v-6.6l1.1-1.5,0.4-4.6-0.7,1.6-1.4-.2-0.8-3.9Z" transform="translate(-0.16 1.96)"/><path id="dep73" class="cls-1" d="M409.8,288.7l-0.4,5.7-1.3,1.1v6.4l-2.6.4-0.4,3.6-2.3,1.7h0l0.2,1.1,2.3,2.5v1.7l2.3,4.2,4.9,1.1,1.7,1.3,0.7-.7-0.9-1.7,1.3-2.8,1.5-.2,2.5,3.4,1.1-1.5h1.5l4,4,0.2,2.8-1.9,1.1-0.9,4,1.7,1.7v1.7l-0.4,1.7,1.3-1.3L428,333l1.1,1.5,3.5-.4,1.2,1.2,0.6,2.8,3.5-.4,0.4-2.9,1.8-.8,3.8,0.2-0.1-.1,5.8-2.3,2.2,1.4H454l0.2-2.3,2.5-1.4,1-1.2,5.1-2,0.6-3.3-1-1.6,2.8-4.7-2.5-1-0.8-2.8-5.3-3.1s0.3-6-.2-7.1a0.1,0.1,0,0,0-.1-0.1h0c-0.8.2-3.7,0.4-3.7,0.4l-2.9-3.3,0.1-3.2-1.3-.2L447,298l-1.9,1.3,0.4-1.1-1.9-3.2h-3.2l-1.9-2.3,1.1-1.3-0.4-1.3-1.5-.4-1.9,1.3-1.5,4.4-1.9,1.5-0.8,3.4-0.8,1.7-3.4.7-1.1-1.1-3-3.2h-1.7l-0.6,1.2-3.4-.4-1.5-2.8-3.8-.6v-5.5Z" transform="translate(-0.16 1.96)"/><path id="dep07" class="cls-1" d="M368,323.3l-4.5,2.7-0.9,3.8-3.4.6-1.8.5,0.1,0.1-1.2,4.7-2.8,1.2-1.2,2,0.8,2.5,0.6,1.4h-2.9l-0.2,3.7-3.1.2-1.6,4.9h-4.7l-5.1,3.7-2.8,4.5,0.5,0.6,1.4,7.2,3.3,3.6-0.6,4.1,4.2,2.5v5.5l2.2-1.1,4.7,3.1,2.2,0.8,0.5-3.9,2.8-.5,0.8,3,2.8-.3,0.5-3,6.3,3.6,1-2.1,2.7-.4,0.2-4.1-0.6-.9-0.8-.2v-1.5l0.6-1.5-1.1-1.7,0.6-3.8,2.6-3v-4.2l-1.1-4.9,1.9-.4,0.4-2.1,1.9-3.6,1.1-2.8-1.7-4.2-1.1-3.4-1.5-5.9v-8l-1.1-.3Z" transform="translate(-0.16 1.96)"/><path id="dep26" class="cls-1" d="M377.7,324.1L375,326l-2.3.8-2.3-.7v8l1.5,5.9,1.1,3.4,1.7,4.2-1.1,2.8-1.9,3.6-0.4,2.1-1.9.4,1.1,4.9v4.2l-2.6,3-0.6,3.8,1.1,1.7-0.6,1.5v1.5l0.8,0.2,0.6,0.9-0.2,4.1,2.6-.4,1.2,1.4-0.6,3.9,0.8,1,2.9-2.9,2.6-.2,0.6-1.6-3.3-.4-0.6-3.5,2.1-3.3,2.8-.2,2.7,2.6-2.7,3.7,0.8,1.4,3.9,0.4,2.5-2.2-1.4,2.9,0.4,2.3,4.1,0.4,5.5,0.4,0.8,2.5,2.9,2.2,2.5,0.2,1.8-1.6,1-2.9,1.6,1.4,1.2,1.4,0.8-7.2-1.9-.4-1.2-2.5-6.6-1.8L398,376l2.4-1.6-2-1.4,0.4-1.8,3.1,0.2,2.7,1.4,2.2-2.5-2.2-1.8,0.2-2.3,1.2-3.7,4.1-.4,3.3-1.3,0.3-.8-3.5-.4-1.2-1.1-1.9-.2-1.9-1.5-2.5-1.5h-2.8l-1.1-1.1-0.2-15.9h-0.7l-0.8,1.5-1.9,1.3-4.5-1.3-3.4-1.1-1.5.4-0.4-1.1,1.1-3-0.4-3,0.9-2.1-2.1-3h-3Z" transform="translate(-0.16 1.96)"/><path id="dep17" class="cls-1" d="M142.1,265.5l-2.8.2-6,3.6,1.4,1.3-3.1,2.5-0.4,2-2.9.4-1.6-1.8-3.9-.4-0.4-2-2.3-1.6-3.3,1.2L119,274h2.7l2.8,1.8,2.2,1.8,4.1-.2,0.8,1.8,2.7,0.6,1,2.7,1.8,0.8-0.2,2.2-2.3-.4-0.8,1.2,1.8,2.5-1,4.3-2.3-.2,0.2,2.7,0.6,1h-2.8l-0.4-1.6,1.8-2.3-0.6-1.3-1-.8-0.4-4.7-3.3-.4-2.7-3.3-0.4,6.8,4.5,3.3,0.4,3.7,0.8,4.3,0.4,4.3,2.3-.2,4.1,3.3,2.8,1.6,0.2,1.9,2.2,0.4,6.2,6.2,1.5,6.8h5.8l1-1,0.2,2.9,5.1,0.6,0.8,6.2,2.8,0.2,4.5,4.5,2.3,0.4L174,337l1.9,1.4,1.6-3.3,1.6-2.7-4.2-2.8-1.3-1.7-1.7-1.9-4,.7-1.3-.7-0.2-1.1,2.1-.8v-0.4l-1.5-.4-1.1-.8,2.6-2.1v-1.5l-1.3-1.3,0.8-.8,0.4-2.1-1.5-1.5-1.3-2.1-2.3-2.1-1.7-1.1,1.5-1.7-0.8-.2-0.2-4.5-1.7-.7,2.3-1.2h2.8l1.2-1.1H169l0.4,1.1,2.1,0.2,1.5-.6,0.4-4,1.7-6.2h0.1l-1.5-1.5-0.4-2.1-2.8-1.3-3.6-2.5-4.5.4-2.8-3.6-4-.2-3.2-2.3v-1.3l-2.1-2.3-0.1-2.9L147,267l-3.7,1.6Z" transform="translate(-0.16 1.96)"/><path id="dep19" class="cls-1" d="M258.5,302.5l-0.8,2.1-3.2.6-1.2,2.1h-1.5l-2.1-.6-1.5,2.5-2.3.2-1.5,2.8h-1.9l-1.5,1.5-3.8-.4-1.3,2.1-1.5-.2-2.6,3.2-2.3-.9-1.1,2.2,0.8,2.2,2.2,1.8-3.9,3.5v2.7l1.6,0.8-1.6,2,2.2,1.8-1.6,1.9,1.8,1.2,4.3-.2-0.2,4.3,1.6,2.6,0.6-.1,4.2-1.9,5,2.2,3.8,5.5,2.2-.3,3.3-3.3,1.1,1.9,2.2-2.2,3,0.8,0.1,0.7,2.5-1.8-0.8-1.9-1.2-1.2,1.6-1.9h1.6l1-3.1,0.8-1.6-0.6-3.5,2.5-3.5,3.5-2.2,0.2-5.5,1.8,1,2,2.2h1.9l1.2-1.4-1-2.3,1-3.5-0.6-3.3-1.2-1.4v-2.8l1.8-2.9-0.4-2.8-0.4-.4-2,1.5h-3.8l-1.2,1.9H269l-1.9-1.9-0.9-1.3h-4.9l-1.1-1.5h-1.7Z" transform="translate(-0.16 1.96)"/><path id="dep23" class="cls-1" d="M248.9,262.7l-1.2,3.1-3.5-.2-0.8-.4-2.3.2-1.8-1.2-3.4,3.9L236,271l-2.3,4.7,0.4,2.3,2.5,0.6,1.7,4.2,1.7,1.7-0.6,8.1,3.6-1.1,1.5,1.9-2.3,1.9v1.9l1.9,0.2,3.4-.2,1.1-1.5h0.8l-0.4,2.6,2.8,1.2,2.6,1.7v1.1h-1.5l0.4,2.5,1,0.6,0.2-.4,3.2-.6,0.8-2.1H260l1.1,1.5H266l0.9,1.3,1.9,1.9h2.3l1.2-1.9h3.8l2-1.5-4.1-4.1-0.4-1.8,3.7-2.2,2.2-1.2,0.6-2.8,2.3-1.8-0.8-3.7-1.6-1.9-0.4-6.1-2.2-5.1-2.2-.8-1.6-2.8-1.4,1.8-1.3-1.8V267l-2.3-3.3-6.4.8-3.7-1Z" transform="translate(-0.16 1.96)"/><path id="dep87" class="cls-1" d="M232.3,265.7l-1.8,1.8-4.9-.4L225,267l-3.7.7-2.2,1.8v2.3l-4.3.2-2.5,2.9-1.6,1.2,1.3,1.6-0.2,5.3-1,1.8,1.6,1.8,2.7,0.2,0.6,2.7,0.2,1.8-3.5.8-1.8.6,0.4,4.9-2.3,1.6-2,.6-1,2.8-1.6.2-0.7,3L208,306l1,1.9-0.8,2.2,1.8,2.3,1.3-.4,1.4-2,6.2,0.6,1,3.9,4.3,0.6,1,1.3-2.9,1.4,1.4,1,4.1,0.6,0.3,0.8,1.1-2.2,2.3,0.9,2.6-3.2,1.5,0.2,1.3-2.1,3.8,0.4,1.5-1.5h1.9l1.5-2.8,2.3-.2,1.5-2.5,2.1,0.6H253l1-1.7-1-.6-0.4-2.5h1.5v-1.1l-2.6-1.7-2.8-1.2,0.4-2.6h-0.8l-1.1,1.5-3.4.2-1.9-.2V296l2.3-1.9-1.5-1.9-3.6,1.1,0.6-8.1-1.7-1.7-1.7-4.2-2.5-.6-0.4-2.3,2.3-4.7-0.1-2.9-0.5.6Z" transform="translate(-0.16 1.96)"/><path id="dep86" class="cls-1" d="M181.5,220.5l-3.7,3.9-0.9,1.6,0.3,4.8,1.7-.2,0.2,2.1,0.7,3.4,1.1,2.3-1.3,1.5,0.6,1.1-0.8,1.5v0.6l1.5,1.7v1.1l-0.7,1.7-2.1,3.2,2.1,0.8,0.7,1.5-0.9,2.3-0.2,1.1-1.3,2.1v1.5l0.8,0.2v4.5l1.5,1.1-0.7,1.5,0.2,1.3,1.7,1.9,0.9-1.3v-1.1l1.7-.8,1.3,0.8v3.2l-1.3,1.5-1.1,2.5,1.5,2.3,3,0.8-0.7,1.9-2.8.5,2.6,3.1,3.4-.2,3-1.1,3,1.7,1.1-.8-0.2-2.8,1.7-1.3,1.5,2.6,1.2,1.3,3.6-1.5,1.5-1.7h3.4l1.8,0.9,0.1-3.7-1.3-1.6,1.6-1.2,2.5-2.9,4.3-.2v-2.3l2.2-1.8,5.3-1,0.4-2.9-2.1-1.2-1.2-4.1-3.1-.4-1.9-1.9-3.7-2.9,0.8-2.3V247l-3.5-3.5-0.4-2.8-3.3-3.5-1.2-4.7-1.4-.6-1.6-2.2-1.6,1,0.4,2.2-5.1,1.2h-5.8l0.2-2.3v-3.7l-4.7-1.4v-2.3l-3.7-.8-0.8-3.1h-2Z" transform="translate(-0.16 1.96)"/><path id="dep16" class="cls-1" d="M199.1,279.7l-1.7,1.3,0.2,2.8-1.1.8-3-1.7-3,1.1-3.4.2-2.6-3.1-0.8.2-3.4,1.7-2.6.7v1.5l-1.5,1.7,0.4,1.1-1.9,1.1-1.7,6.2-0.4,4-1.5.6-2.1-.2-0.4-1.1h-2.3l-1.2,1.1h-2.8l-2.3,1.2,1.7,0.7,0.2,4.5,0.8,0.2-1.5,1.7,1.7,1.1,2.3,2.1,1.3,2.1,1.5,1.5-0.4,2.1-0.8.8,1.3,1.3v1.5l-2.6,2.1,1.1,0.8,1.5,0.4v0.4l-2.1.8,0.2,1.1,1.3,0.7,4-.7,1.7,1.9,1.3,1.7,4.2,2.8,0.6-1,3.9,0.4,1.9-1.8,3.5-3.5,0.2-6.8,9.2-6.2,0.2-4.7,2.8-.4,1.8-3.1h1.1l0.7-3,1.6-.2,1-2.8,2-.6,2.3-1.6-0.4-4.9,1.8-.6,3.5-.8-0.2-1.8-0.6-2.7-2.7-.2-1.6-1.8,1-1.8,0.1-1.6-1.8-.9h-3.4l-1.5,1.7-3.6,1.5-1.2-1.3Z" transform="translate(-0.16 1.96)"/><path id="dep79" class="cls-1" d="M174.5,224.3l-5.3.2-4.9,1-5.3.4v2.7l-2.7,1.8-6.1-1.4-4.1,1.8,1.9,2.8v2.3l4.7,3.9-1.2,2.5,3.1,3.5-1.4,1.8,1.9,2.9,0.6,5.5-1.2,1.6,1.4,2.3-1.4,2.6,0.2,1.6,1.6-1.2,1.9,2-2.7,1.8-1,1.2-2.2.6-2.5,1.2-0.2-.2,0.1,2.9,2.1,2.3V276l3.2,2.3,4,0.2,2.8,3.6,4.5-.4,3.6,2.5,2.8,1.3,0.4,2.1,1.5,1.5,1.8-1L176,287l1.5-1.7v-1.5l2.6-.7,3.4-1.7,3.6-.6,0.7-1.9-3-.8-1.5-2.3,1.1-2.5,1.3-1.5v-3.2l-1.3-.8-1.7.8v1.1l-0.9,1.3-1.7-1.9-0.2-1.3,0.7-1.5-1.5-1.1v-4.5l-0.8-.2V259l1.3-2.1,0.2-1.1,0.9-2.3L180,252l-2.1-.8L180,248l0.7-1.7v-1.1l-1.5-1.7v-0.6l0.8-1.5-0.6-1.1,1.3-1.5-1.1-2.3-0.7-3.4-0.2-2.1-1.7.2-0.3-4.8-0.4.7-1.4-1.2Z" transform="translate(-0.16 1.96)"/><path id="dep85" class="cls-1" d="M131.3,224.4l-1.1,2.1H127l1.3,1.3-1,3.2-2.9,1-1.1-.8,0.5-3.2-0.8-1.8h-1.8l-1.3,1.4,0.6,4.5,1.5,2.1-1.5,1.6-2.7-.5-4-1-1.1-3.1L110,231l-3.4-1.5-0.8-1.9-3.7-2.4-5.8,7.5-0.2,4.7,6,5.8L102,245h1.8l3.7,11.2,3.9,1.9,3.9,3.9h4.5l1.8,3.9h4.3l1.9,2.9,4.3,2.2,0.2-2.8,1.1,1,6-3.6,2.8-.2,1.2,3.1,3.7-1.6,3.1,2.3,2.5-1.2,2.2-.6,1-1.2,2.7-1.8-1.9-2-1.6,1.2-0.2-1.6,1.4-2.6-1.4-2.3,1.2-1.6-0.6-5.5-1.9-2.9,1.4-1.8-3.1-3.5,1.2-2.5-4.7-3.9v-2.3l-1.9-2.8,0.4-.2-2.7-2.2h-5l-1.6-1-2.6.1-2.6-2.4Z" transform="translate(-0.16 1.96)"/><path id="dep50" class="cls-1" d="M112.3,72.3l-0.8,2,4.1,3.3v4.3L114,83.8l1,1,0.6,0.4-0.4,3.7,1.4,3.1,4.5,5.1,1,4.5,1,1.4v7l2.3,4.7v5.5l-2.5,5.1,2.7,7,4.3,1,0.4,2-2.1,1h-3.7l0.6,2.5,1.2,3.7,3.3,2.9,1.6,0.4,1.6-2.1,1.8-.2,2.1-2.5,2,1.6H141l1.6,0.8v0.4l3.3,0.4,2-1.6,2.9,1.2,0.1,0.1,3.3-2.8,1.1-3.7-0.3-1.6,0.5-1.9-1.9-1.9-5-3.2-3.7-.3-3.7-4.7,3.1-1.1,1.3-2.4-1.6-1.5,1.4-1.3,1.4,1.1,2.6-1.6,1.6-2.6,0.6-2.6-1.1-2.3,0.7-.8-1.5-2.4,1.6-2.1-1.3-1.6-1.6,2.1-2.2-1.3-3.7-3.7-0.2-1.6,1.1-1.1-0.3-2.2-1.8.5-0.2-4.7-5.1-6,1.6-3.9h2.2l-1.9-5.3-8.4-.4L125,78.1l-5.1-3.3Z" transform="translate(-0.16 1.96)"/><path id="dep44" class="cls-1" d="M125.6,180.7l-0.2,2.2-4.3.6-2,1.9-0.8,2.2-12.1.6-5.1,2.7-0.2,5.5-5.5,2.2-3.7,1.9H88.6l-1.2-1.3L85.6,201H85l1,0.7L82.3,205l0.8,0.8,0.8,1.6-2,2.8,2.2,1.2,3.7,0.8,0.4-1.6,2.2,2.8h3.5l2.5-2.8h3.3l-3.5,1.8,0.2,2,0.8,1.8L95,218.4H92.7L93,221l4.3-.8,5.1,4.7-0.2.3,3.7,2.4,0.8,1.9,3.4,1.5,2.6,0.3,1.1,3.1,4,1,2.7,0.5,1.5-1.6-1.5-2.1-0.6-4.5,1.3-1.4H123l0.8,1.8-0.5,3.2,1.1,0.8,2.9-1,1-3.2-1.3-1.3h3.2l1.1-2.1,1.1,0.2,2.6,2.4,1.9,0.2,0.1-2-1.6-2.1H134l-0.5.2-1-.5,0.8-.8v-1.5l1.6-.5,1-2.2L135,217l-0.2-2.8h-2.1l-2.1-2.6v-1.9l2.2-1.2,4-.8,6.3,0.2,1.9-1.3-0.7-4-2.9-2.7-3.5.5-1-.8-0.2-2.9,2.6-2.3-1.9-2.4-1.3-3.4-2.1-1.3v-2.2l-0.2-.7-3.7-.9-1.8-2.3Z" transform="translate(-0.16 1.96)"/><path id="dep49" class="cls-1" d="M134.7,183.5l-0.4.9-0.3-.1,0.2,0.7v2.2l2.1,1.3,1.3,3.4,1.9,2.4-2.6,2.3,0.2,2.9,1,0.8,3.5-.5,2.9,2.7,0.7,4-1.9,1.3-6.3-.2-4,.8-2.2,1.2v1.9l2.1,2.6H135l0.2,2.8,0.8,0.8-1,2.2-1.6.5v1.5l-0.8.8,1,0.5,0.5-.2h1.4l1.6,2.1-0.1,2,0.4,0.1,1.6,1h5l2.7,2.2,3.7-1.6,6.1,1.4,2.7-1.8v-2.7l5.3-.4,4.9-1,5.3-.2,0.6,1.4,1.4,1.2,1.3-2.3,3.7-3.9h1.5l2.2-8,3.1-3.7-0.2-4.3,2-2.6v-1.2l-1-1.2,0.6-1.3-2.7-1-8.2-5-7.6-2.2-2.9-.2V188l-1.8-1.5h-1.9l-3.6-1.1-2.2,2.2-5.2.2-2.3-1.3-5.8-1.8-1.3,1.6-3.2-2.1h-2.9Z" transform="translate(-0.16 1.96)"/><path id="dep72" class="cls-1" d="M195.2,146.7l-5.3.2-5.3,4.9-2.8-.2-3.7,1.2-1.1,1.9-0.5,4.2,0.3,2.6-2.9,2.4-0.8,1.6,0.7,1.5-0.8,1.9,0.3,0.8-3.2.3-0.5,1.4L171,175l-0.2,1-1.3,1.1-2.8.2-0.3,1,0.7,1v5.8l-0.6,1.5,1.8,1.4v1.9l2.9,0.2,7.6,2.2,8.2,5,2.7,1,1.3-2.6,3.9,2.8h2.2l-1.2-3.9,2.4,1.6,1.3-2,5.7-1.6-1-2.3,1.4-1.8,2.9-1.2,2.7-3.5v-3.7h2l0.8-2.7,0.2-4.1-1.9-1.8,1.6-2.7,2.3-2.9-2.7-1.9-2.5-.4-2.8-4.1h-0.8l-0.2,1.9-0.2-1.3H203l-2-2.9-3.3-1.2-1-7Z" transform="translate(-0.16 1.96)"/><path id="dep53" class="cls-1" d="M175.3,141.3l-1.9.2-0.8,1.9-2.9,1.2-5.3-.8-5.3,3.1-1.9-1.4-2.9,2-2.2-1.6-1.4-2.3-2.9-1.2-2,1.6-3.3-.4-0.2,5.1,1,0.8v3.9l-2,2v3.1l0.6,1.9v5.7l1.4,1.4v5.3l-3.3-.4-1.4.8-2.5,6.2-1,3.5-0.3.7,3.5,0.7h2.9l3.2,2.1,1.3-1.6,5.8,1.8,2.3,1.3,5.2-.2,2.2-2.2,3.6,1.1h1.9l0.6-1.5v-5.8l-0.7-1,0.3-1,2.8-.2L171,176l0.2-1-1.4-3.6,0.5-1.4,3.2-.3-0.3-.8L174,167l-0.7-1.5,0.8-1.6,2.9-2.4-0.3-2.6,0.5-4.2,1.1-1.9,3.7-1.2h-0.6l-1-3.5-2.5-1-0.8-4.3Z" transform="translate(-0.16 1.96)"/><path id="dep14" class="cls-1" d="M195.4,92.6l-4.6.8-7.4,4.3L175,101l-6.7-3.7-16-2.3-3.7-1.9-5.8,1.5,0.3,2.2L142,97.9l0.2,1.6,3.7,3.7,2.2,1.3,1.6-2.1L151,104l-1.6,2.1,1.5,2.4-0.7.8,1.1,2.3-0.6,2.6-1.6,2.6-2.6,1.6-1.4-1.1-1.4,1.3,1.6,1.5-1.3,2.4-3.1,1.1,3.7,4.7,3.7,0.3,2.8,1.8,3.9-1.2,2.9-3.4,4,1.1,3.5-2.4,2.1-.8,2.2,2.2,3.7-.7,3.2,1.8,4-1.3,3.7-2.8,2.4-2.8,1.6-.3,0.5,2.1,1.3-.3,0.2-1.5,3.7-.6,1.3,0.8,4-.9,0.7-1.9-0.2-1.8-2-.8-0.2-1.4,1.8-1.2,0.2-2-1.2-4.7-2.3-3.3,2-1.2v-0.8l-2-.6Z" transform="translate(-0.16 1.96)"/><path id="dep61" class="cls-1" d="M199.6,119.5l-4,.9-1.3-.8-3.7.6-0.2,1.5-1.3.3-0.5-2.1-1.6.3-2.4,2.8-3.7,2.8-4,1.3-3.2-1.8-3.7.7-2.2-2.2-2.1.8-3.5,2.4-4-1.1-2.9,3.4-3.9,1.2,2.2,1.4,1.9,1.9-0.5,1.9,0.3,1.6-1.1,3.7-3.3,2.8,1.3,2.2,2.2,1.6,2.9-2,1.9,1.4,5.3-3.1,5.3,0.8,2.9-1.2,0.8-1.9,1.9-.2,1.8,1.6,0.8,4.3,2.5,1,1,3.5,3.3,0.2,5.3-4.9,5.3-.2L197,149l1,7,3.3,1.2,2,2.9h4.1l0.2,1.3,0.2-1.9h0.8l2.8,4.1,2.1,0.3v-4.6l-1.3-1.8-0.4-1.6,2.9-1.8,2.9-.6,1.9-2.3-0.4-7.2-4.1-3.5-0.2-3.3-3.5-2.3,1.4-1.9-0.8-2.9-2.7-1-2-2-1.2-2.7-5.5-.2-1.6-2Z" transform="translate(-0.16 1.96)"/><path id="dep28" class="cls-1" d="M239.9,120.9l-1.2,1V125l-3.9,1.9v2.9l-1.2,1.4h-4.9l-2.3-1-7.1,3.7h-2.7l-2.8,2.7,0.7,0.4,0.2,3.3,4.1,3.5,0.4,7.2-1.9,2.3-2.9.6-2.9,1.8,0.4,1.6,1.3,1.8v4.6l0.4,0.1,2.7,1.9-1,1.2,1.9,1,3.1-.6h1.8l-0.1.8-1.7,1,1.1,0.8h2.8l1,2.2,1.7,1,1.2,2.8,4.3,1.1,2.7-.3,2.4-2.2,2.1,0.6,0.5-1.2-0.1-1.2,1.1-.8,1.8,1.1,1.1-.8v-1.5l1.5-1,1.4,0.6,1.2,1.4,2.2-1.2h2.4l1.7-1.8,1-3.6,1.5-.3-0.4-3.7,1.8-1.5-0.6-1.1,0.2-.4-0.5.1L257,153l-0.4-.6-0.4-2.5-4.1-.8-1.8-2.2-0.6-4.3-2.3-.4L247,140l-2.7-1.9-1.4-3.3,1.4-2.3-1.4-1.6V129l0.8-2.2-1.6-1.6-0.6-2.3Z" transform="translate(-0.16 1.96)"/><path id="dep89" class="cls-1" d="M311.2,152.2l-1.8,1.3-7.6-.4-3.5,1.8-1.4,2.9,1.6,1.8-2.3,2.8-1.8,2.1,3.5,3.3,1,3.1,2.6,2.7v3.5l-5.1,4.3,1.8,2-0.4,2.9-2.8,2h-3.9l0.6,2.2,2.5,3.5,0.6,3.1,0.6,2.2-1.2.3,2.5,0.6h1.8l1-1.5h1.2l1.4,1.2-0.3,1.6,1.3,0.8h1.8l2.5,1.7,1.1-.6,1.1,1,1.1-.3,1.9-1.2,1.8,0.6,1.2-.3v-3.5l0.7,0.1,0.4,1.8,2.2,1.4v2.1l3.2,0.1,4.2,3.9,2.7,0.1-0.2-1.2,1.1-1.7,1,1.2-0.8,1.4,0.4,1.3,1.5-1h1.8l-0.2,2.8,1.7,1.1,1.3-.6,3.1-2.1-0.2-.4-1.8-1.1-0.1-2,2-1,0.8-1.1-0.6-1v-2.2l1.5-2.2,2.2-4.8,0.4-2.1,1.4-.6,0.2-.4-0.7-.6v-1.7l2.2-1.7,0.6-2.8-1-1.7H345l-0.4-.4v-2.4l2-1.4-0.2-1.4-0.3-1.4-1,2.2-1.4-.2-1.2-2.2-3.9,2-7.8-.4-1-2.2-2.2-2.9L328,169l-3.1-3.7-2,1.4-3.5-2.7,0.6-5.3-5.1-5.3h-2.3Z" transform="translate(-0.16 1.96)"/><path id="dep70" class="cls-1" d="M416.3,170.3l-3.7.6-0.6,1.9-2,1.4-1.3-1.6-1,.6,0.8,1.2-1.9,1.2,0.6,1.6-2.2.8v2.5h-2.8l-0.2,1.6-2.7.6,0.2,2.3,1.8,0.2-1,1.2-0.6,3.9h-1.8l-2.9,1.2-3.1-1.2-2.7,1.2v2l2.1,0.4,1.6,3.1,0.2,1.6-2.5,2.9-1.2.4-0.8,1,2.2,1,0.4,3.1,1.8,0.2,0.2,3.9,0.8,0.8,0.1,0.6,1.5,0.4,1.7,1.4h2.5l1-1,1.7,0.1,1.8,0.1,3.9-3.2h1.1l1.2-1,4.1,0.1,3.1-2.5,2.2-.4,0.8-2.1,1.8-.6,1.8-3.1,2.5-2,2.7-.4,2,1.4,3.7-.4v-2l1.5-.8,1.2-1.6h2.2l1.2-1.3,0.5-3.1v-1.9l-0.8-3v-2.5l1.5-1.1,1.8-.9-0.2-.4-6.2-3.3-1.8-2-1.8-1.2-1.6.8-0.2,1.2-1.6,1h-1l-2.9-3.3h-4.1l-1.8,1.4-1.6.2-2.5-1.9,0.2-2.2Z" transform="translate(-0.16 1.96)"/><path id="dep76" class="cls-1" d="M234.7,56.3l-1.3,1.6L225,64.3,210.2,68l-9.8,3.5-8,4.3-4.7,7-1,5.5,3.9,2.9,5.7,1.2-0.9.2v0.2l4.4-.6,2.2-2.4,1.7-.4,1.9,3.4,2.7-.3,1.1,1.9,4.8-.3,4.8,3.4-3.1,1,2.2,1.7h1.4l1.2,2.7h2.2l0.7-1.7-1.7-1.1,4.8-1.4,5-.6,1.3-3.7,2.4-2.1,4.5-.1,5.2,2.7,3.1,0.3,0.5-1.6,1.4-2.6,0.8-1.3h-2V86.4l-1.2-1.9,0.8-3.9,0.8-2h-1.6l0.8-1.9,1.9-2.3-1.9-3.5-0.6-3.5L239.3,59l-1-1.9-2.2.2Z" transform="translate(-0.16 1.96)"/><path id="dep27" class="cls-1" d="M203.8,89.4l-1.7.4-2.2,2.4-4.4.6,0.9,7.2,2,0.6v0.8l-2,1.2,2.3,3.3,1.2,4.7-0.2,2-1.8,1.2,0.2,1.4,2,0.8,0.2,1.8-1.6,4.5,1.6,2,5.5,0.2,1.2,2.7,2,2,2.7,1,0.8,2.9-1.4,1.9,2.8,1.9,2.8-2.7h2.7l7.1-3.7,2.3,1h4.9l1.2-1.4V127l3.9-1.9V122l1.1-.9-0.1-.9,1-1-1.8-.4v-1.6l-1-1.6,0.8-1,5.5-1.6,1.4-2.3,1.2-4.3,1.4-1.8,0.3-2.3,1.8,1,1.4-.4-1-1.6-0.6-4.5-1.8-1.6V95.1l-3.1-.3-5.2-2.7-4.5.1-2.4,2.1L231.9,98l-5,.6-4.8,1.4,1.7,1.1-0.7,1.7h-2.2l-1.2-2.7h-1.4l-2.2-1.7,3.1-1L214.4,94l-4.8.3-1.1-1.9-2.7.3Z" transform="translate(-0.16 1.96)"/><path id="dep37" class="cls-1" d="M205,191.7l0.4,0.9-5.7,1.6-1.3,2-2.4-1.6,1.2,3.9H195l-3.9-2.8-1.9,3.9,1,1.2V202l-2,2.6,0.2,4.3-3.1,3.7-2.2,8h0.2l0.8,3.1,3.7,0.8v2.3l4.7,1.4v3.7l-0.2,2.3h5.8l5.1-1.2-0.4-2.2,1.6-1L206,232l1.4,0.6,1.2,4.7,3.3,3.5,0.4,2.8,3,3,1.7-.2,2.1-2,1.5-8,1-2.8,0.7-3.5,3.1-1.1,2.1,0.4,1.4,1.3,1.5-2.5,1.4-1.3v-1.5l1.8-.1,0.4-1.8-1.6-2.1,0.2-.9-1.1-.9-2.9-4.3h-3.8l-1.1-1.7v-7l-1.5-4.1-0.3-5-2-.2-2.2-1.7h-0.6l-2,1.4-1.2-.8-0.3-1.9,1.4-.7,0.1-.7-0.8-.7Z" transform="translate(-0.16 1.96)"/><path id="dep45" class="cls-1" d="M266.5,155.3l-2.5,2.3-5.7.5-0.2.4,0.6,1.1-1.8,1.5,0.4,3.7-1.5.3-1,3.6-1.7,1.8h-2.4l-2.2,1.2-1.2-1.4-1.4-.6-1.5,1v1.5l-1.1.8-1.8-1.1-1.1.8,0.1,1.2-0.5,1.2,0.4,0.1h1.7l-0.1,1.1-1.1,1.9v1H242l1,1.1,0.3,1.1-2.2,2.2,1.1,2.7v1.2l1.8,1.2,2.5,0.3,1.7,1.4,0.4,2.4,1.8,2.1,2-.6,0.8-1.8,3.1,0.4,0.7,0.7h2l1-1.1,7.2,0.3,1.7,2.5,2,0.8,1.7,1.6,2.1-.3,0.6-.7h1.2l1.6,2,3.2,0.2,0.8,1.1,2.2,3.1,1,0.8,1.2-.1,0.2-2.8,0.6-.3,0.8,0.1,1.4,1.8,1,0.4,2-.8-0.3-.3-0.2-2,3.9-1.2-0.6-2.2-0.6-3.1-2.5-3.5-0.6-2.2h3.9l2.8-2,0.4-2.9-1.8-2,5.1-4.3V173l-2.6-2.7-1-3.1-3.5-3.3-4.9,2.8-0.4-1.6-2.2-.2-0.6,1.6-1.9.4-5.3-.2-2.2,1.4-1.8-1.6,3.1-2.2-0.2-3.3-2.3-1.2-2-2.9-5.2-.4Z" transform="translate(-0.16 1.96)"/><path id="dep36" class="cls-1" d="M247.5,216.3l-1.2.4-2.5-.2-2.9,1-0.7,1.5-0.3-.6-3.4.2-1.7,1.4-2,.3-0.3,1,1.6,2.1-0.4,1.8-1.8.1v1.5l-1.4,1.3-1.5,2.5-1.4-1.3-2.1-.4-3.1,1.1-0.7,3.5-1,2.8-1.5,8-2.1,2-1.7.2,0.5,0.5v3.7l-0.8,2.3,3.7,2.9,1.9,1.9,3.1,0.4,1.2,4.1,2.1,1.2-0.4,2.9-1.6.3,0.6,0.1,4.9,0.4,1.8-1.8,3.1,3.1,3.9-4.5,1.8,1.2,2.3-.2,0.8,0.4,3.5,0.2,1.2-3.1,9.8,1.2,3.7,1,1.7-.2,0.1-1.6,2-2-0.4-1.7-1.1-2.2,0.4-.8,0.2-2.5,0.7-.8,0.2-.6-1.7-1.5-0.6-2-2.7-1.4v-1.7l1.9-1.1v-1.1l-1.8-1.5-0.6-1,1.4-.7-0.1-1.2,2.2-1.8-0.1-.8h-1.8l-1.1-1.3v-0.7l1-1.7v-1.2l-2.2-3,0.4-2.7-1.3-1-2.7.1-2.1.8-2.8-.4-1.4-1.1-0.3-.8,2.2-1.8,0.2-2.2-3-1.7Z" transform="translate(-0.16 1.96)"/><path id="dep41" class="cls-1" d="M215.3,167.1l-1.3,1.7-1.6,2.7,1.9,1.8-0.2,4.1-0.8,2.7h-2v3.7l-2.7,3.5-2.9,1.2-1.4,1.8,0.6,1.5,9.5,0.3,0.8,0.7-0.1.7-1.4.7,0.3,1.9,1.2,0.8,2-1.4h0.6l2.2,1.7,2,0.2,0.3,5,1.5,4.1v7l1.1,1.7h3.8l2.9,4.3,1.1,0.9v-0.1l2-.3,1.7-1.4,3.4-.2,0.3,0.6,0.7-1.5,2.9-1,2.5,0.2,1.2-.4,1.7,1.6,3,1.7,2.5-.2-0.1-2.5,1.1-1.2,1.1-.1,1,1.1,3.9-.4,2.5-1.4-0.3-1-0.7-.8,0.1-1.8L265,208l2.4-1v-2.1l0.6-1.2-1.5-.6-1-2.1-2.5-.7-0.1-.8,2.5-2.1,2.8-1.4-1.6-2.4-7.2-.3-1,1.1h-2l-0.7-.7-3.1-.4-0.8,1.8-2,.6-1.8-2.1-0.4-2.4-1.7-1.4-2.5-.3-1.8-1.2v-1.2l-1.1-2.7,2.2-2.2-0.3-1.1-1-1.1h-1.1v-1l1.1-1.9,0.1-1.1h-1.7l-2.5-.7-2.4,2.2-2.7.3-4.3-1.1-1.2-2.8-1.7-1-1-2.2h-2.8l-1.1-.8,1.7-1,0.1-.8h-1.8l-3.1.6Z" transform="translate(-0.16 1.96)"/><path id="dep18" class="cls-1" d="M268.3,195.7l-2.8,1.4-2.5,2.1,0.1,0.8,2.5,0.7,1,2.1,1.5,0.6-0.6,1.2v2.1l-2.4,1-1.8,3.3-0.1,1.8,0.7,0.8,0.3,1-2.5,1.4-3.9.4-1-1.1-1.1.1-1.1,1.2,0.1,2.5-2.5.2-0.2,2.2-2.2,1.8,0.3,0.8,1.4,1.1,2.8,0.4,2.1-.8,2.7-.1,1.3,1-0.4,2.7,2.2,3v1.2l-1,1.7V235l1.1,1.3h1.8l0.1,0.8-2.2,1.8,0.1,1.2-1.4.7,0.6,1,1.8,1.5v1.1l-1.9,1.1v1.7l2.7,1.4,0.6,2,1.7,1.5-0.2.6-0.7.8-0.2,2.5-0.4.8,1.1,2.2,0.4,1.7-2,2-0.1,1.6,4.6-.6,0.9-2,2.5-2.9,4.9-1,2.6,0.8,2.7-2.1-0.2-1.6-1-.8V251l5.2-5.3,2,2.2,1.8-1.8,1.6-.2,2.7-3.5,4.5,0.4,0.1,1.1,1.5-4.8-1-1.8,0.2-2.5,0.6-5.1-2.2-2.1,0.4-4.7-2-4.1-0.2-2.7-3.5-2.8-0.6-2.3,1.8-2.5v-3.7l-2-2.4-2,.8-1-.4-1.4-1.8-0.8-.1-0.6.3L286,204l-1.2.1-1-.8-2.2-3.1-0.8-1.1-3.2-.2-1.6-2h-1.2l-0.6.7-2.1.3-1.7-1.6-2-.8Z" transform="translate(-0.16 1.96)"/><path id="dep21" class="cls-1" d="M356.1,172.1l-0.4,2.5-2.5,1.4-6.4.2,0.3,1.4,0.2,1.4-2,1.4v2.4l0.4,0.4h1.6l1,1.7-0.6,2.8-2.2,1.7v1.7l0.7,0.6-0.2.4-1.4.6-0.4,2.1-2.2,4.8-1.5,2.2V204l0.6,1-0.8,1.1-2,1,0.1,2,1.8,1.1,0.7,1.5-0.3,2.1-0.4,1.5,1,1.7,2.8,0.6,1.2,2v0.8l-0.8.3v2l0.2,0.1,3.8,3.9,3.9-.1,3.5,2.7,2.5,1.8,0.1,2.4,2.7,0.6,2.2,1.8,5.9-2.1,4.1-1.3,1.8-.3,0.6-.8,2,0.1,1.5,1,2.2-.6,2.2-1.5,1.7,0.2v-0.2l1.3-.8-0.2-1-0.4-1.2,1-1.6,3.3-1.6v-1.6l1.2-1.6,1.2-1.6-0.4-1.4,0.6-2.2,0.4-3.1h0.8l-0.2-1.2-0.8-.8-0.2-3.9-1.8-.2-0.4-3.1-2.2-1,0.8-1,1.2-.4,2.5-2.9-0.2-1.6-1.6-3.1-2.3-.4-0.8,2-4.3,1-0.4-1-3.1-3.9-1.8,1-2.3-.2-0.8-1.6-3.1.2-0.2-3.3-1.8-1.2,2.5-2.7-4.5-6.1-3.5-3.7-3.1-1.8h-5.6v0.3h0Z" transform="translate(-0.16 1.96)"/><path id="dep58" class="cls-1" d="M299.5,198.6l-1,1.5h-1.8l-2.5-.6-2.8.8,0.2,2,2.3,2.7v3.7l-1.8,2.5,0.6,2.3,3.5,2.8,0.2,2.7,2,4.1-0.4,4.7,2.2,2.1-0.6,5.1-0.2,2.5,1,1.8-1.5,4.8,0.1,1.5,3.3,1.6,2.3,2.6,2.1-1.2,2-1.2,0.4,1.8H312l0.8-1.6,1.8,0.8,0.6,2.5,1.6-.4,3.7-5.1,1.9,1.4,0.3,0.6,3.1-1.9,1.2,0.2,1,2.4,1.8-.3,1.4-1.4H333l1.4-1.8,1.4-.3,0.3-1,3.1,0.2,0.2-.7-1.4-1.2v-1.2l2-1.1v-0.8l-1.8-1.1-0.3-2.1,0.2-2-1.2-.8L338,231l1-.6,0.7-1.7-1-.6-1.1-1.7,1.4-2,2.4-1.4h2.9v-2.2l0.8-.3v-0.8l-1.2-2L341,217l-1-1.7,0.4-1.5,0.3-2.1-0.5-1.1-3.1,2.1-1.3.6-1.7-1.1,0.2-2.8h-1.8l-1.5,1-0.4-1.3,0.8-1.4-1-1.2-1.1,1.7,0.2,1.2-2.7-.1-4.2-3.9-3.2-.1V203l-2.2-1.4-0.4-1.8-0.7-.1v3.5l-1.2.3-1.8-.6-1.9,1.2-1.1.3-1.1-1-1.1.6-2.5-1.7h-1.8l-1.3-.8,0.3-1.6-1.4-1.2-1.7-.1h0Z" transform="translate(-0.16 1.96)"/><path id="dep71" class="cls-1" d="M344.2,222.7v0.2h-2.9l-2.4,1.4-1.4,2,1.1,1.7,1,0.6-0.7,1.7-1,.6-1.1,1.5,1.2,0.8-0.2,2,0.3,2.1,1.8,1.1v0.8l-2,1.1v1.2l1.4,1.2-0.2.7-3.1-.2-0.3,1-1.4.3-1.4,1.8h-1.8l-1.4,1.4-1.8.3-1-2.4-1.2-.2-3.1,1.9,3.6,6.8V257l1,1.2h3.3l1.2,1.6h3.1l1.4,1.9-0.2,7.6-4.1,3.1-0.1.2h0.3l0.6,0.2,0.2,3.1,2.9,0.6,0.4,1.4h1.6l2.3-1.4,6.2,1,1.2,1.2,1.6-1.6h2.2l1.2-6.2,0.8-.6h1.9l2.4,1.6,1.8-1.6,1.2,1.6,1.8-1.8,2.1-.2,1,3.1,0.8,3.9,1.4,0.2,1.2-2.8,3.7-14.4,1.4-2.5,2.2-.2,2.2,1.8,1.6-.4,1.9-1.4,2,0.4,1.2,2.5,1.1,0.4,5.1-.6,2-1.6-0.8-1.2-2.3-.8-0.2-2.7,2-1.4,0.8-3.3-1.8-3.1-1.2-1.6,0.6-.6V242l-1.6-1-0.4-1.6,4.5-.6,0.4-1.6h-1.4l-1.2-1.4h-2.2l-1.8-2.9-1.6-.2,0.2-2.3-1.7-.2-2.2,1.5-2.2.6-1.5-1-2-.1-0.6.8-1.8.3-4.1,1.3-5.9,2.1-2.2-1.8-2.7-.6-0.1-2.4-2.5-1.8-3.5-2.7-3.9.1-3.8-3.9Z" transform="translate(-0.16 1.96)"/><path id="dep39" class="cls-1" d="M393.9,212.4l0.1,0.5h-0.8l-0.4,3.1-0.6,2.2,0.4,1.4-1.2,1.6-1.2,1.6v1.6l-3.3,1.6-1,1.6,0.4,1.2,0.2,1-1.3.8-0.2,2.5,1.6,0.2,1.8,2.9h2.2l1.2,1.4h1.4l-0.4,1.6-4.5.6,0.4,1.6,1.6,1v1.9l-0.6.6,1.2,1.6,1.8,3.1-0.8,3.3-2,1.4,0.2,2.7,2.3,0.8,0.8,1.2-2,1.6-5.1.6,2.4,0.9,3.9,5.5,2.5,1.2v2.8l2.9-.4,3.7-4.1,3.1,1.6V271h5.7l8.1-8.9-0.3-.2,0.4-4.1,2.9-3.5-2-.8,0.2-1.2-2.4-.2-0.2-1.4,1.5-1.5-0.4-1.5-0.8-2,3.5-1.1,1.3-1.8,0.3-2.2-2.8-2.7-2-.5-4.3-1.4v-3.9l-0.3-2.9-3.5.3-5.5-1.8,0.8-1.9,1.2-3,0.4-1.9-1.4-1.8-2.5-1.7-0.3-2.1v-1.2l-1.7-.1-1,1H397l-1.7-1.4Z" transform="translate(-0.16 1.96)"/><path id="dep51" class="cls-1" d="M330.1,94.2l-2.3,1,0.4,1.9h-4.1l-3.7,2.8v5.2l2.7,1.8,0.8,1.8-4.5.4-0.6,1.8,1.8,1.2-0.8,1.2-1.8.8,0.4,1.3h2.5l1,1.4-1.8,1.2-1.6,4.1-2.9,1.4-1,2.1-1,1.2,0.2,1.2-1.6,1-0.4,2.7,1.6,1,0.8,2.9-1,1.8,0.6,1.4,2.9-.2v1l0.8-.2,3.4,3.6,4.8-.8,5.6-3.8h3.3L338,136l4-2.2,3,0.2,0.4,4,3.6,5.3h4l5.6-1.2,4,1.4,4.2-3,0.6-4.9,4.6-.8-0.1-3.1-3.7-2.9-0.4-1.6,1.4-2.3-1.2-1,1.2-2.9,2.2-1,1.6-4.9-3.1.2,1.8-1.9-1.4-4.3-1.3-2.9,1.8-1.6-1-.2-0.2-1.3h-0.3l-1.8-1.6-2,2h-0.6l-0.8-1L359,102l-0.8,1.2h-1.4l-1.2-2.6H353l-0.6.6-2.6-.2-3.2-2.4-2.2-.6-0.8-1.2-4.2-2.6-4.8-.1,0.1,1.8-1.4.4Z" transform="translate(-0.16 1.96)"/><path id="dep60" class="cls-1" d="M250,75.1l-1.3,1.5-0.8,1.9h1.6l-0.8,2-0.8,3.9,1.2,1.9v3.3h2l-0.8,1.3-1.4,2.6-0.6,1.8,1.8,1.6,0.6,4.5,1,1.6-1.4.4-1.8-1-0.3,2.3,0.1-.2,0.8,1.8,1.2,1.9,5.3,0.4,3.7-.4,2.5-1.9,3.1,1.9,1.6,1.2,2.3-.6,2.1-1L275,110l4.3,2.5,1.4,1.4,2.3-1.6,1.9,1.2,1.2,1,1.8-.2,1.2-1.6,2.7,1.6,3.3-1.4,1.9,0.6,1.9-1.6,1.2-.6,0.4,0.3,0.4-2.7-1.4-1.6-2.4-1.6-1,1.6-0.6.2-0.2-3,1.8-.4-0.4-2.8-2.4-.4,1.2-2,3.4-.8,1.2-4.8,1.8-.8-2.4-1.8,0.8-1.8,0.4-5.9-0.8-4.6-4.1.4-2.8-.4L288,80l-4.4,4.2L280,83l-3.6-.4-2.8-2.8-5-1.4L262,79l-1.8-1.4h-3.6l-2.6,1-1.2-.8V75.6l-0.4-.6-2.4.1h0Z" transform="translate(-0.16 1.96)"/><path id="dep62" class="cls-1" d="M262,3.5L251.2,5.6l-8.6,6.6V38.6l-0.1.8,3,0.7,1,2.2,2.3-.6,1.4-1.8,1.8,0.6,3.7,2.9,1.4-.6,1,2.3,3.5,1.6v1.9l2.6,1,2.5-1,4.9-.6,1.2,1,2.3-1,1.2,2-2.9,1.9v2.8l1,1,0.8-.2,0.6-1.6,1.8-1.2,1.8,1.4,4.1,1.4h1.8v-2l2.6,1.8,0.2,1.6-1.2,1.8,2.2-1.2,1.8-.8,0.8,1.4v1.4l2.9-1.6h4.7l0.2,0.2,1.2-2.2-0.6-1-1.8-.4h-2l-1.2-.4,2-1.2,1.8,0.2,1.8-.2,0.2-3.2,1.2-.8,0.2-1.8-2.2-1.4-2.6-.2-0.6-.4,1.6-1.2,0.4-1.2-1.4-1-2-2.4,0.2-1.2,2.6-1.2,0.4-1.4-1.8-.8-1-2.6-3.6-.4-3.6-1-0.4-4,2.6-1.6-1-2h-2l-1.4,2.2-6.2-.4-5-1.2-2.8-3V18.3l2.2-1-1.8-1.4-4.3-.2L266,9.1Z" transform="translate(-0.16 1.96)"/><path id="dep59" class="cls-1" d="M278.6-1.1l-6.2,2.9-9.8,1.6-0.6.1,3.7,5.9,2.6,6.6,4.3,0.2,1.8,1.4-2.2,1V21l2.8,3,5,1.2,6.2,0.4,1.4-2.2h2l1,2L288,27l0.4,4,3.6,1,3.6,0.4,1,2.6,1.8,0.8L298,37.2l-2.6,1.2-0.2,1.2,2,2.4,1.4,1-0.4,1.2-1.6,1.2,0.6,0.4,2.6,0.2,2.2,1.4-0.2,1.8-1.2.8-0.2,3.2-1.8.2-1.8-.2-2,1.2,1.2,0.4h2l1.8,0.4,0.6,1-1.2,2.2,1.6,1.6,1.6,0.4,1.6-1h2.2l0.6,1.2,0.8-.2,2.3-1.4,2.1,1,3.1-2.2h1.4l1.6,1.4,3.1-2.2,1.3,0.2,1.2,1,4.3,0.4,0.4,1.8,2.2-1.9h1.2l0.8,2.5,3.7,1,1.1-.7H337l-0.2-1.9,3.9-2.3-0.6-3.7-3.7-1,1-1V48.7l2.9-2.2-0.8-1.6L333.3,40l-10.9.6-1.2,1.9h-1.4l0.2-6.8L316.9,32l-2.3.4-1.4-1.6-3.9,1.8L308,31.3l-2.8-.4-0.8-2.5-0.2-7.8-1.8-.8-0.2-1.2H301l-0.4-2.3-2.5.2-4.9,1.6L290.9,21h-2.3L287,19.1l-0.6-2.2-1.9-2.2h-2.8l-1.2-2.1V9.1L281.8,7l-0.7-3Z" transform="translate(-0.16 1.96)"/><path id="dep02" class="cls-1" d="M321.2,57.1l-3.1,2.2-1.6-1.4h-1.4L312,60l-2.3-1.4L307.4,60l-0.8.2L306,59h-2.2l-1.6,1h-0.1l0.5,2.8L300,65.6v2.6l-1.8,2,0.4,2.4,1,4,1.2,6.8-0.4,5.9-0.8,1.8,2.4,1.8-1.8.8L299,98.5l-3.4.8-1.2,2,2.4,0.4,0.4,2.8-1.8.4,0.2,3,0.6-.2,1-1.6,2.4,1.6,1.4,1.6-0.4,2.7,1.8,1.3,0.6,4.3,5.2,5.1,1.8,0.6,1,2.3,3.3,0.7,0.4-.5,1-2.1,2.9-1.4,1.6-4.1L322,117l-1-1.4h-2.5l-0.4-1.3,1.8-.8,0.8-1.2-1.8-1.2,0.6-1.8,4.5-.4-0.8-1.8-2.7-1.8v-5.2l3.7-2.8h4.1l-0.4-1.9,2.3-1,3.3,2.2,1.4-.4-0.2-6.7,0.6-2.3,0.8-2.7-2.6-1.4,0.6-1.6,3.7-.8V78l2.9-1.6,0.8-2.3-1-1.6,0.2-2.9,1.8-1.6-1.8-3.3,0.5-3.5h-4l-1.1.7-3.7-1-0.8-2.5h-1.2l-2.2,1.9-0.4-1.8-4.3-.4-1.2-1h-1.1Z" transform="translate(-0.16 1.96)"/><path id="dep80" class="cls-1" d="M242.6,39.3l-0.5,6.4,4.3,3.9v2l-5.3-3.1-6.3,7.8,1.7,0.7,2.2-.2,1,1.9,8.6,8.4,0.6,3.5,1.9,3.5-0.7.8h2.5l0.4,0.6v2.2l1.2,0.8,2.6-1h3.6L262,79l6.7-.6,5,1.4,2.8,2.8L280,83l3.6,1.2L288,80l5.2-1.4L296,79l4.1-.4-0.4-2.2-1-4L298.3,70l1.8-2V65.4l2.6-2.8-0.5-2.8-1.5-.4-1.8-1.8h-4.7l-2.9,1.6V58l-0.8-1.4-1.8.8-2.2,1.2,1.2-1.8-0.2-1.6-2.6-1.8v2h-1.8L279,54l-1.8-1.4-1.8,1.2-0.6,1.6-0.8.2-1-1V52l2.9-1.9-1.2-2-2.3,1-1.2-1-4.9.6-2.5,1-2.6-1V46.8l-3.5-1.6-1-2.3-1.4.6-3.7-2.9-1.8-.6-1.4,1.8-2.3.6-1-2.2Z" transform="translate(-0.16 1.96)"/><path id="dep08" class="cls-1" d="M360.4,50.7l-2,2.9-1.8,1.8v4.1l-2.3,1.6L350,62.5l-2.3,1-2.8-2.2h-3.7l-0.5,3.5,1.8,3.3-1.8,1.6-0.2,2.9,1,1.6-0.8,2.3-2.9,1.6v2.5l-3.7.8L333.5,83l2.6,1.4-0.8,2.7-0.6,2.3,0.1,4.9,4.8,0.1,4.2,2.6,0.8,1.2,2.2,0.6,3.2,2.4,2.6,0.2,0.6-.6h2.6l1.2,2.6h1.4l0.8-1.2,4.8,0.2,0.8,1h0.6l2-2,1.8,1.6h0.3l-0.5-1,2.3-1.2,1.2-1.2-0.8-1.9-0.2-1.4,2.2-1.8,0.8-3.9-2.3-2.9,0.8-1.4,2-3.7,0.6,0.8h2.9l1.4,1.3,1.8-1.2,1.4-2.2-1.4-.2-0.8-3.9L379.3,76l-5.5-.6-1-2.5L371,71.7l-6.2-.8-0.4-4.5,0.8-.8V64l-3.1-2,0.6-2.2,0.8-1.9-1.4-1.2,2.2-1.9V51.3l-0.8-.6h-3.1Z" transform="translate(-0.16 1.96)"/><path id="dep10" class="cls-1" d="M342.1,133.5l-4,2.2-3.4,2.4h-3.3l-5.6,3.8-4.8.8-3.4-3.6-0.8.2v0.6l-2.7,1.2-0.2,2.3-1.4,1.8-0.8,3.9-0.4,3.3,1.2,1h2.3l5.1,5.3-0.6,5.3,3.5,2.7,2-1.4,3.1,3.7,0.4,3.5,2.2,2.9,1,2.2,7.8,0.4,3.9-2,1.2,2.2,1.4,0.2,1-2.2,6.4-.2,2.5-1.4,0.4-2.5h5.7l0.8,0.4-0.7-2.5-1.6-1,2.2-2,3.4-.2,1.2-1.8-0.2-7.1-0.8-4.2-3.4-1.2-3.6-5,0.2-3,1-2.2-1.8-.6-5.6,1.2h-4l-3.6-5.3-0.4-4Z" transform="translate(-0.16 1.96)"/><path id="dep52" class="cls-1" d="M371.9,134.6l-4.6.8-0.6,4.9-4.2,3-2.2-.8-1,2.2-0.2,3,3.6,5,3.4,1.2,0.8,4.2,0.2,7.1-1.2,1.8-3.4.2-2.2,2,1.6,1,0.7,2.5,2.3,1.3,3.5,3.7,4.5,6.1-2.5,2.7,1.8,1.2,0.2,3.3,3.1-.2,0.8,1.6,2.3,0.2,1.8-1,3.1,3.9,0.4,1,4.3-1,0.8-2h0.2v-2l2.7-1.2,3.1,1.2,2.9-1.2h1.8l0.6-3.9,1-1.2-1.8-.2-0.2-2.3,2.7-.6,0.2-1.6H405V178l2.2-.8-0.6-1.6,0.6-.4-1.8-1.4-2.1.8v-4.1l-5.5-2.7,1.2-5.3,1.8-1.2-0.6-1.8-2.6-.4-0.6-2.6h-2.3l-2.8-3.7-3.1-.2-1.3-1.9,1.8-1.8-4.1-4.5-1.8-.6-4.7-2.3-2.5-2.7-4.1-.6Z" transform="translate(-0.16 1.96)"/><path id="dep67" class="cls-1" d="M473.5,107.1l-3.7,1-1.7,3V114l-1.6,1.4h-1.4l-2.5-1.8-2,1.4h-2.3l-1.9-1.9-3.7-.6-2.2-1-0.8-2.9-1.8,1.9-1,4.5-2.6.8v2.5l2.6,1.2,1.9,1.4-0.8,1.8,1.8,1.2,3.1-2.3,5.4,3.1L456,129l0.2,1.4,1.6,1.6-1.2,4.1-3.9,3.9-2.2-.2,1.4,1.3-0.8,3.5,0.8,5.3,3.7,1-0.3.7,2.9-.2,1.7,2.1,1.5,1.9,3.8-.2,1.7,5,3,1.3v-0.6l5.1-10-0.6-5.7,2.3-7.6,0.6-6.7,5.1-3.7v-2.3l2-2.6H486l1.8-1.8-0.4-3.3,1.8-4.7,2.7-.6-2.7-2.2-4.9-.6-4.3-2.2-2.9,1.8-1.6-1.8h-2v0.2h0Z" transform="translate(-0.16 1.96)"/><path id="dep54" class="cls-1" d="M394.4,83.3l-2.3,2.2-3.3.2-1.2,1.2h-0.2l-0.1,2.3,1.2,1.9-0.4,1.2-0.4,1.3,0.2,0.8,1-.8,0.9-1.7,1.9-.2,3.2-1,1.7,1.3,0.8,1.5,0.6,1.7V97l0.9,0.8v1.3l-0.9,1.2-0.2,2.5,0.8,1.2,0.2,1.5L399,108l1.2,1,1.7,0.8-0.8,1.5,2.1,1.9-1.9,2.1,0.4,1.3,1.9,0.9v1h-2.3l-1,1.3,0.2,1,1.5,1.5-1.3,3.6-1.5,3.4,0.8,2.1v3.4l0.8,1.7h1.1l0.6,1h-1.7l-1.5.8v1.2l1.9,1.7v2.7l1.9-.6,2.9,0.2,0.2,3.1,1.2,0.4-1.3.9-0.2,1,2.1,0.4,1.3,1.7,6.3-.4,1.3-2.5h2.9l1.2-.9,1.9,1.2,1.7-.6,2.5,0.2,2.1-.8,2.1-1.5,1.2,1.2,0.2-2.7,1.5-.6,0.8,2.5,2.3,0.2,2.3,0.6,0.9,0.2,3.3-1.5,1.7-1.2,1.5-1.9,3.1-1.2,2-.4-1.1-1.1,2.2,0.2,0.4-.4-2.3-.8-3.2-2.3-2.9-2.1h-3.4l-3.6-2.1-2.9-.2v-0.8l-4.4-2.7-5-2.1H423l-0.9-2.7-3.8-4.8h-3.8l-1.5-2.1h-3.1l0.2-3.1-4-2.5,0.2-2.5h2.1v-2.1l0.8-1.5-1.7-1.7,1.5-2.7-1.2-3.1-0.9-.8-2.5-5.3,1-1.5s-0.1-1.3-.2-2.9h-2.6l-3.5-3.9h-4.7Z" transform="translate(-0.16 1.96)"/><path id="dep77" class="cls-1" d="M300.3,111.3l-1.2.6-1.9,1.6-1.9-.6-3.3,1.4-2.7-1.6-1.2,1.6-1.8.2-1.2-1-1.9-1.2-2.3,1.6-0.1-.1-0.8,5.4,1.2,6.9v4.6l-1.5,3.8,0.4,2.7-1.7,1.3,0.9,5.2-0.8,1.1-0.6,5.2,1.3,1.7-4.4,2.9v3.9l1.2,1.8,2.3,1.2,0.2,3.3-3.1,2.2,1.8,1.6,2.2-1.4,5.3,0.2,1.9-.4,0.6-1.6,2.2,0.2,0.4,1.6,4.9-2.8,1.8-2.1,2.3-2.8-1.6-1.8,1.4-2.9,3.5-1.8,7.6,0.4,1.8-1.3,0.2,0.2,0.4-3.3,0.8-3.9,1.4-1.8,0.2-2.3,2.7-1.2v-1.6l-2.9.2-0.6-1.4,1-1.8-0.8-2.9-1.6-1,0.4-2.7,1.6-1-0.2-1.2,0.6-.7-3.3-.7-1-2.3-1.8-.6-5.2-5.1-0.6-4.3Z" transform="translate(-0.16 1.96)"/><path id="dep68" class="cls-1" d="M458.4,151.4l-2.9.2-1.8,4.2-2.3,4.7,0.6,2.9-1.9,4.5-3.3,2.9-0.2,7.6-2.4,2.1,0.1,0.1,0.8,1.6,3.1,0.2,3.5,2.8,0.6,1.3-0.2,2.3-1,1.8,0.4,2.3,2.8-.4,0.6,2.2,1,4.2,2.3-.4-0.4,2.1,1.4,1.2,7.2-.2,3.7-2.9,0.2-4.3,2-2.5-2.6-2.9-1.3-3.1,1.6-2.1v-4.9l1-2.3v-3.9l1.8-2.5-1.9-2.7-0.2-5.6-3-1.3-1.7-5-3.8.2-1.5-1.9Z" transform="translate(-0.16 1.96)"/><path id="dep55" class="cls-1" d="M382.9,81.4l-1.4,2.2-1.8,1.2-1.4-1.3h-2.9l-0.6-.8-2,3.7L372,87.8l2.3,2.9-0.8,3.9-2.2,1.8,0.2,1.4,0.8,1.9-1.2,1.2L369,102l0.4,2.2,1,0.2-1.8,1.6,1.3,2.9,1.4,4.3-1.8,1.9,3.1-.2-1.6,4.9-2.2,1-1.2,2.9,1.2,1-1.4,2.3,0.4,1.6,3.7,2.9,0.2,6.8,4.1,0.6,2.5,2.7,4.7,2.3,1.8,0.6,4.1,4.5-0.4.4,3.4-.4v-1.7l3.8-.8v-1.3h0.9v1.1l3.1-.9,1.2-1.6-0.2.1v-2.7l-1.9-1.7v-1.2l1.5-.8H402l-0.6-1h-1.1l-0.8-1.7v-3.4l-0.8-2.1,1.5-3.4,1.3-3.6-1.5-1.5-0.2-1,1-1.3h2.3v-1l-1.9-.9-0.4-1.3,1.9-2.1-2.1-1.9,0.8-1.5-1.7-.8-1.2-1-0.2-2.5-0.2-1.5-0.8-1.2,0.2-2.5,0.9-1.2V97.8l-0.9-.8V95.3l-0.6-1.7-0.8-1.5-1.7-1.3-3.2,1-1.9.2-0.9,1.7-1,.8-0.2-.8,0.4-1.3,0.4-1.2-1.2-1.9,0.1-2.3H386l-0.8-3.7-1.6-1.6Z" transform="translate(-0.16 1.96)"/><path id="dep57" class="cls-1" d="M415.9,85.3l-2.9.2-2.3,2-0.6,1h-3.3l-1.2-1.2H405c0.1,1.7.2,2.9,0.2,2.9l-1,1.5,2.5,5.3,0.9,0.8,1.2,3.1-1.5,2.7,1.7,1.7-0.8,1.5v2.1h-2.1l-0.2,2.5,4,2.5-0.2,3.1h3.1l1.5,2.1h3.8l3.8,4.8,0.9,2.7h2.5l5,2.1,4.4,2.7v0.8l2.9,0.2,3.6,2.1h3.4l2.9,2.1,3.2,2.3,2.3,0.8,3.5-3.5,1.2-4.1-1.6-1.6-0.2-1.4,2.3-4.3-5.4-3.1-3.1,2.3-1.8-1.2,0.8-1.8-1.9-1.4-2.6-1.2v-2.5l2.6-.8,1-4.5,1.8-1.9,0.8,2.9,2.2,1,3.7,0.6,1.9,1.9h2.3l2-1.4,2.5,1.8h1.4l1.6-1.4v-2.9l1.7-3-0.4.1-1.3-1.9-3.9-2.3-1.4-2.2-4.7.4-2.8,2.5-6.6.2-2-1.4a8.45,8.45,0,0,0-1.9-2.4,0.1,0.1,0,0,1-.1-0.1h-0.3a7.21,7.21,0,0,1-2.9-1.2l-2.8,1.2-0.2,2.3-3.3.4-2-3.7-1.2-.4V97l-2.8-1.2-0.2-4.7-2-1.9-4.1-2h-1.9l-0.6.4h-2Z" transform="translate(-0.16 1.96)"/><path id="dep88" class="cls-1" d="M451.8,140.8l-2,.4-3.1,1.2-1.5,1.9-1.7,1.2-3.3,1.5-0.9-.2-2.3-.6-2.3-.2-0.8-2.5-1.5.6-0.2,2.7-1.2-1.2-2.1,1.5-2.1.8-2.5-.2-1.7.6-1.9-1.2-1.2.9h-2.9l-1.3,2.5-6.3.5-1.3-1.7-2.1-.4,0.2-1,1.3-.9-1.2-.4-0.2-3.1-2.9-.2-1.7.5-1.2,1.6-3.1.9v-1.1H396v1.3l-3.8.8V149l-3.4.4-1.3,1.3,1.3,1.9,3.1,0.2,2.8,3.7H397l0.6,2.6,2.6,0.4,0.6,1.8-1.8,1.2-1.2,5.3,5.5,2.7v4.1l2.1-.8,1.8,1.4,1.3-.8-0.8-1.2,1-.6,1.3,1.6,2-1.4,0.6-1.9,3.7-.6,1,0.8-0.2,2.2,2.5,1.9,1.6-.2,1.8-1.4h4.1l2.9,3.3h1l1.6-1,0.2-1.2,1.6-.8,1.8,1.2,1.8,2,6.2,3.2,2.4-2.1,0.2-7.6,3.3-2.9,1.9-4.5-0.6-2.9,2.3-4.7,2.2-4.9-3.7-1-0.8-5.3,0.8-3.5Z" transform="translate(-0.16 1.96)"/><path id="dep91" class="cls-1" d="M267,131.3l-1.8.8-1.9.8-0.4,2.1-2.9,1.3-0.4,2.1,1.3,2.3-1.9,2.7h-2.8l1.1,1.7-1.3,1.5-0.5,3.1,0.9,0.2,0.4,2.5,0.4,0.6,0.4,5.2,6.2-.6,2.5-2.3,2.2,1.8,5.2,0.4,0.8,1.1v-3.9l4.4-2.9-1.3-1.7,0.6-5.2,0.8-1.1-0.9-5.2,1.7-1.3-0.3-2.4-2.2-1h-3.6l-2.1-1.2-1.5.8Z" transform="translate(-0.16 1.96)"/><path id="dep78" class="cls-1" d="M244.3,113l-0.1.1-5.5,1.6-0.8,1,1,1.6v1.6l1.8,0.4-1,1,0.1,0.9,0.1-.1,1.9,1.9,0.6,2.3,1.6,1.6-0.8,2.2V131l1.4,1.6-1.4,2.3,1.4,3.3,2.7,1.9,0.4,2.2,2.3,0.4,0.6,4.3,1.8,2.2,3.2,0.6,0.5-3.1,1.3-1.5-1.1-1.7h2.8l1.9-2.7-1.3-2.3,0.4-2.1,2.9-1.3,0.4-2.1,1.9-.8,1.8-.8,0.3,0.2v-0.2l-1.8-2-1.1-3,1.8-3.8-0.9-2.9-3.4-2.1-4.8-.2-4.5-2.9-3.6.7Z" transform="translate(-0.16 1.96)"/><path id="dep95" class="cls-1" d="M248.3,104.5l-1.6,1.9-1.2,4.3-1.3,2.2L249,115l3.6-.7,4.5,2.9,4.8,0.2,3.4,2.1,0.9,2.9v0.1l0.4-.1,3.5-1.9,5.2-.3,2.9-1.3,1.8-1.3,0.6-3.8-1.3-1.3L275,110l-4.1-2.2-2.1,1-2.3.6-1.6-1.2-3.1-1.9-2.5,1.9-3.7.4-5.3-.4-1.2-1.9Z" transform="translate(-0.16 1.96)"/><path id="dep93" class="cls-1" d="M280.1,117.7l-1.8,1.3-2.9,1.3-5.2.3,0.2,0.7,0.4,0.1,0.4,0.6-0.4.9-0.5.1,0.4,0.9h2.5l0.8,1.2,0.2,1.8,0.9-.1,0.8-.7,1.2,0.1,1.5,0.9,0.9,1,0.4,0.2,0.2,0.5,1,0.2v-2.8l-1.2-6.9Z" transform="translate(-0.16 1.96)"/><path id="dep75" class="cls-1" d="M273.1,123.9h-2.5l-1.1.5-0.5.6-1,.1-0.9,1.1v0.6l0.2,0.7,1.6,0.4,1.9,1L272,129l0.8-.2,0.8-.6,0.3,0.2,1.8,0.2,0.3-.7v-0.7l-0.3-.1-1.2.1,0.1,0.3-0.2.2H274l0.2-.4,0.1-.4H274l-0.2-1.8Z" transform="translate(-0.16 1.96)"/><path id="dep92" class="cls-1" d="M270.1,120.6l-3.5,1.9-0.4.1-1.7,3.8,1.1,3,1.8,2v0.2l2.7,1.9,0.7-.3-0.5-.9,0.5-1.5-0.3-.5,0.3-1.2h-0.1l-1.9-1-1.6-.4L267,127v-0.6l0.9-1.1,1-.1,0.5-.6,1.1-.5-0.4-.9,0.5-.1,0.4-.9-0.4-.6-0.4-.1Z" transform="translate(-0.16 1.96)"/><path id="dep94" class="cls-1" d="M275.7,126.1l-0.8.7-0.8.1-0.1.4-0.2.4h0.4l0.2-.2-0.1-.3,1.2-.1,0.3,0.1v0.7l-0.3.7-1.8-.2-0.3-.2-0.8.6-0.8.2-1.2-.1-0.3,1.2,0.3,0.5-0.5,1.5,0.5,0.9,0.9-.4,2.1,1.2h3.6l2.2,1v-0.2l1.5-3.8V129l-1-.2-0.2-.5-0.4-.2-0.9-1-1.5-.9Z" transform="translate(-0.16 1.96)"/><path id="dep25" class="cls-1" d="M440.2,194.6l-0.2.2h-2.2l-1.2,1.6-1.5.8v2l-3.7.4-2-1.4-2.7.4-2.5,2-1.8,3.1-1.8.6-0.8,2.1-2.2.4-3.1,2.5-4.1-.1-1.2,1h-1.1l-3.9,3.2-1.8-.1v1.2l0.3,2.1,2.5,1.7,1.4,1.8-0.4,1.9-1.2,3-0.8,1.9,5.5,1.8,3.5-.3,0.3,2.9v3.9l4.3,1.4,2,0.5,2.8,2.7-0.3,2.2-1.3,1.8-3.5,1.1,0.8,2,0.4,1.5-1.5,1.5,0.2,1.4,2.4,0.2v-0.2L431.9,240l-0.4-9.4,4.3-2.1,2.9-1.4,2.7-2.5,0.2-3.7,2.7-1.4,6.2-7.2-1-2.3,2.2-1,2.5-3.1-1.4-1.4-4.7,1-0.2-.8,4.3-5Z" transform="translate(-0.16 1.96)"/><path id="dep90" class="cls-1" d="M444.2,180.9l-1.8.9-1.5,1.1v2.5l0.8,3v1.9l-0.5,3.1-1.1,1.1,12,5.4,0.8-.9,2.6-.4-1-4.2-0.6-2.2-2.8.4-0.4-2.3,1-1.8,0.2-2.3-0.6-1.3-3.5-2.8-3.1-.2Z" transform="translate(-0.16 1.96)"/><path id="dep22" class="cls-1" d="M62.6,118.1l-1.8,1.4-4.5.6-1,1.4-3.1-2.3L48.1,122l1.6,2.1L47,127.8l-0.1-.1-1.1,5.2,2.4,0.2L48,135.2l1.8,1.1-1.6,1.6-1.1.8,0.2,1.9,2.4,0.8-2.3.7v2.4l1.5,1.9,0.3,5.7-1,1L49,156l3.1,0.8,0.3,1.6,1.9,0.2,1.6-1.1,1,1,3.7,1.6,3.1-1.6,0.8-1.6,2.6-.2,2.9,2.6,2.8-.7,2.4,2.4h1.1l1.1,1.4h2.3l0.8-1.1,1,2.1,2.4,1,3.1-1.9v-2.1l2.2-.8h1.4l1.8,3.2,3.9,0.3,1.9-2.4,2.1-4.5,2.8-1,1.4-2.1,1.5,1.4,3.1-.6,1-8.9,1-3.6-1-1.9-1.6-.6-1.1-5.9-1.2,1.4-3.7-.4-0.4,2.2-2.3.2-0.2-2.7-2-.6-1.4,1.6v-3.9l-2.3,1.8-3.5-.6-1.2,2.3L82,138.2v2H80.4v-3.5l-4.1-1.9,0.4-3.5L73,128.6v-3.3l-2.8-.6,0.2-3.1L68,121l0.2-2.2H64.3l-0.6,1.9Z" transform="translate(-0.16 1.96)"/><path id="dep56" class="cls-1" d="M48.8,155.4L45.6,157H43.3l-2.4,1.9,0.2,1.4,1.4,3.7,0.8,2.9,5,0.8,2.4,1.9,1-1.2,1.6,2.1-0.8,1-0.2,2.9H50.9l-1.1,1.8H47.5L46.6,180l2.2,3.5,3.1,0.8,1.2-1.8-0.6,2.1,2.7,1.2,3.5,3.5,1.2,2.2L59.5,194l-0.4,2.6,2.3,1.8,1.2-1.4-1.2-1.6v-3.5l2.3,0.6,0.8-2.3,0.6,1.4,2.5,2.2,1.2-2-1.2-2.7,2.2,2.9,2.7-.4-0.6-1.4,2.5,0.6,1.9,2.3-1,1.6-2.5-.8-2.9-1.4-1.6,2,2.3,0.8,1.8,2.7L83,197l2.7,0.6-1.3,1.2,0.2,1.8L85,201l0.8-.2,1.8-1.8,1.2,1.3h3.1l3.7-1.9,5.5-2.2,0.2-5.5,1.2-.6-2.1-3.9,1.8-1.4-0.3-1-1.1-.7,1.8-.8,1.6-1.9-0.2-1.9h-2.1l-0.5-1.9,1.5-1.9-1.6-2.9-2.4-1.5H96l-1-.3v-1.3l1.4-1.3,0.8-3.2-0.5-2.1-0.7.8-3.9-.3-1.8-3.2H88.9l-2.2.8v2.1l-3.1,1.9-2.4-1-1-2.1-0.8,1.1H77.1L76,160.8H75l-2.4-2.4-2.8.7-2.9-2.6-2.6.2-0.8,1.6-3.1,1.6-3.7-1.6-1-1-1.6,1.1-1.9-.2-0.3-1.6-3.1-.8v-0.4Z" transform="translate(-0.16 1.96)"/><path id="dep29" class="cls-1" d="M33.4,123.9l-2.1,2.3-2.3-1-4.3.4-0.8,1.9-2.5.6L21,125.9l-4.5.6v1.4l-3.1.2-1.4-1-1.6.8L10,130.2l-5.2.2L2,133.9l2.3,1.8-3.1,2.6,1,1.8-0.8,4.3,3.1,0.4,1.2-1.2,0.6,0.8,7.4-1,4.9-3.5L14.3,144l0.4,1.9,3.9-1.8-0.8,2.8,4.3,0.2-0.2,1.2-4.7-.2-3.7-1L9,144.8l-2.7,3.1,3.5,1.2-0.2,5.2,1-.8,2.2-3.3,4.1,2.3,2,0.4,0.8,3.1-1.2,2.1-2.5-.2H13.7l-3.9.6-6.8.6-1.3,1.8,1.9,1.2,2.2-.2,1.8,1.6,2.5-.2,4.1,4.7,1,5.1-1.4,2.8,4.1,0.8,4.5-.2,1-1.8-1.8-2.3,1.8,0.8,1.8-.2,3.1,1.8,1.9-.4v-3.3l0.8,3.3,2.5,4.1,5.5,0.4,0.2-1.2,1.3,1.9,3.3,0.6h2.5l0.2,0.2,0.9-3.8h2.3l1.1-1.8h1.4l0.2-2.9,0.8-1-1.6-2.1-1,1.2-2.4-1.9-5-.8-0.8-2.9L41,160.7l-0.2-1.4,2.4-1.9h2.3l3.2-1.6L48,153.3l1-1-0.3-5.7-1.5-1.9V142l2.3-.7-2.4-.8-0.2-1.9,1.1-.8,1.6-1.6-1.8-1.1L48,133l-2.4-.2,1.1-5.2-3.2-1.9-5.5.2v3.9H36.4L36,128l-2.3.4Z" transform="translate(-0.16 1.96)"/><path id="dep35" class="cls-1" d="M109,130.8l-1.9,2.1,1.1,5.9,1.6,0.6,1,1.9-1,3.6-1,8.9-3.1.6-1.5-1.4-1.4,2.1-2.8,1-2.1,4.5-1.3,1.6,0.5,2.1-0.8,3.2-1.4,1.3v1.3l1,0.3h2.8l2.4,1.5,1.6,2.9-1.5,1.9,0.5,1.9h2.1l0.2,1.9-1.6,1.9-1.8.8,1.1,0.7,0.3,1-1.8,1.4,2.1,3.9,3.9-2.1,12.1-.6,0.8-2.2,2-1.9,4.3-.6,0.2-2.2,2.9,0.4,1.8,2.3,3.9,1,0.8-1.6,1-3.5,2.5-6.2,1.4-.8,3.3,0.4v-5.3l-1.4-1.4v-5.7l-0.6-1.9v-3.1l2-2v-3.9l-1-.8,0.2-5.5-1.6-.8h-2.3l-2-1.6-2.1,2.5-1.8.2-1.6,2.1-1.6-.4-3.3-2.9-1.2-3.7-0.6-2.5h-9.6l-3.5-2.2,2.3-3.1Z" transform="translate(-0.16 1.96)"/></g><g id="regions"><path id="reg52" class="cls-2" d="M175.2,141.1l-2.2.2-0.8,2-2.7,1.1-5.3-.8-5.2,3.1-1.9-1.4-2.9,2-1.9-1.4-1.4-2.4-3.2-1.3-2,1.6-3.5-.4L142,149l1,0.8v3.6l-2,2v3.2l0.6,2v5.7l1.4,1.4v4.8l-3.1-.4-1.6.9-2.6,6.4-1,3.5-0.3.7-0.3.7-0.3-.1-3.3-.8-1.8-2.4-3.4-.4-0.2,2.2-4.2.6-2,2-0.8,2.1-11.9.6-5.4,2.8-0.2,5.4-5.3,2.1-3.7,1.9H88.7l-1.3-1.5-1.9,1.9L84,201l1.3,0.9-3.7,3.3,1,1,0.7,1.4-2.1,2.9,2.4,1.3,4.1,0.9,0.3-1.2,1.9,2.4h3.8l2.6-3h1.9l-2.5,1.3,0.2,2.2,0.7,1.7L94.7,218H92.1l0.5,3.6,4.4-.8,4.8,4.4-0.1.1-0.2.3-5.7,7.3-0.2,4.9,6,5.8-0.2,1.9h1.9l3.7,11.1,4,2,4,4h4.4l1.8,3.9h4.3l1.9,2.9,4.8,2.4,0.2-2.6,0.8,0.8,6.1-3.7,2.4-.2,1.2,3.2,3.8-1.6,3.2,2.4,2.6-1.2,2.2-.6,1-1.2,3-1.9-2.4-2.4-1.4,1-0.1-1,1.4-2.6-1.4-2.3,1.1-1.5-0.6-5.6-1.8-2.8,1.4-1.8-3.2-3.5,1.2-2.6-4.8-4v-2.3l-1.8-2.5,0.5-.2,3.2-1.4,6.1,1.4,2.9-2v-2.6l5.1-.4,4.8-1,5.1-.2,0.5,1.2,1.7,1.5,1.5-2.6,3.6-3.8h1.6l2.2-8.2,3.2-3.8-0.2-4.3,2-2.6v-1.4l-0.9-1.1,0.6-1.2,1.1-2.2,3.7,2.6h2.7l-1.1-3.5,1.9,1.3,1.5-2.1,5.9-1.6-1-2.5,1.2-1.6,2.9-1.2,2.8-3.7v-3.5h1.9l0.8-3,0.2-4.2-1.8-1.7,1.4-2.5,2.5-3.2-3-2.1-2.5-.4-2.8-4.1h-1.2l-0.1.6h-4l-1.9-2.9-3.2-1.2-0.9-6.8-1.7-2.4-5.5.2-5.3,4.9-2.7-.2h-0.3l-1-3.5-2.5-1-0.8-4.2Z" transform="translate(-0.16 1.96)"/><path id="reg75" class="cls-2" d="M181.2,220.4l-3.8,4-0.4.8-0.7,1.2-1.1-.9-0.6-1.5-5.5.2-4.8,1-5.6.4v2.8l-2.5,1.6-6-1.4-4.5,1.9,2.1,3v2.4l4.6,3.8-1.2,2.5,3.1,3.5-1.3,1.8,2,3,0.6,5.3-1.2,1.6,1.4,2.3-1.3,2.5,0.2,2.2,1.8-1.3,1.5,1.5-2.4,1.5-1,1.2-2.1.6-2.3,1.1h0l-0.5-.4v0.1l-2.6-1.9-3.6,1.5-1.1-3.1-3,.2-6.4,3.9,1.5,1.3-2.9,2.4-0.3,1.9-2.6.3-1.5-1.7-3.8-.3-0.4-1.9-2.6-1.7-3.8,1.4,2.5,3.6h2.8l2.7,1.7,2.2,1.8,4-.2,0.8,1.7,2.7,0.6,1,2.7,1.7,0.7-0.2,1.6-2.2-.3-1,1.5,1.8,2.6-0.9,3.9-2.4-.2-0.6-1.3-0.9-.8-0.4-4.8-3.4-.4-3.1-3.8-0.5,7.8,4.5,3.3,0.4,3.6,0.8,4.2,0.4,4.6,2.5-.2,4,3.3,2.6,1.5,0.2,2,2.3,0.4,6.1,6.1,1.4,6.3,0.1,0.6h0l1.6,6.6,0.4,5.6-0.5.8-0.8-4-2.8-10.8-9.9-9,0.2-4.2-2.4-.2-3.3,4.9-1,16.5-2.5,16.6-1.8,12.9-0.2,3.3,0.6,0.1,1.3-4.4,2.5-3.2,3.6,3.3,0.4,1.1,0.8,1.2-4.1.2-0.8-1.2-2.3.9-0.4,3-2.2,2.9v4.6l-3.5,18.6-4.5,17.2-1.4,6.7-1.1,4.7-2.8,4.7-0.1.2-0.2.3-0.6,1.1-4.4,5.4-3.4,1.3-2.8.4v2.6l2.5,2.3,3.3,0.2,0.2,2.5,3.2,0.2,0.8-1.7,3.5,1.5,2.2,0.5,0.5,2-1.3,1.2v3.6l-2.7,1.4-0.2,2.1,1.9,2.1,3.5,1.1,0.7-3.2,1.1-1.2-0.1,1.8,1.5,2.2h3.5l1.5,2.1,4.8,0.8,4.5,2.8h7.2l0.4,3.9,5.1,4,2.1,2.5,2.3-1.2,1.8-.3,1,1,5.5-3,0.3-4.1,1.6-1.2,0.8-6.2,2.7,0.5,1.5-1-1.4-2.8,5.1-4.3,3.2-7.1,2.1-2.7-3.9-5.8,2.2-2-3.5-5.8-5.2-.4-0.1-.1-0.2-.4-1.2-2,1.3-3.6,2-2.6-0.6-3.3,1.6-1.6-2.3-3.9,1.8-2.1,2-.4,2,0.8,2.6-2.2,0.8,2.5,1.1,1.6,2.6-.7-0.2-2.7,0.7-1.4,0.5-1.1,2.2,1.9,3.1-3.1,1.3,1.8,3.5-.6,3.7-.4,1.6-2.8,5.5-.5,3.1,3,1.2-1.1,2.2-.7-0.8-2.7,2.6-.7,4-.9-0.8-2.5,1.1-1.2,1.1-4-2.2-2.3,1.2-3.9,2.7,1.6,4.8-.9-2.1-4.6-1.5-5.5,3.7-.2,1-2.5,0.1-.2,1.8-1.8,0.2-2.8,4.2-.4,3.1-4.3-1.4-.5-0.2-1.6,3.2-.4,0.2-2,1.4-.9,1.9-3.4-1.8-2v-1.9l1.4-1.2h0.1l4.1-1.9,4.8,2.1,3.9,5.6,2.5-.3,3.1-3.1,1.1,1.9,2.4-2.3,2.7,0.7,0.1,0.9,3.1-2.2-0.9-2.2-1.1-1.1,1.3-1.6h1.7l1-3.3,0.8-1.7-0.6-3.5,2.4-3.3,3.6-2.2,0.2-5.2,1.2,0.7,2,2.2h2.2l1.4-1.6-1-2.4,0.9-3.5-0.6-3.5-1.2-1.3V310l1.8-2.9-0.4-2.9-0.2-.3-4.2-4.2-0.3-1.4,3.5-2,2.3-1.2,0.6-2.8,2.4-1.8-0.8-3.9-1.6-2-0.4-6-2.2-5.3-2.2-.8-1.7-3-1.4,1.8-1.7-1.4v-2.3l-2.5-3.5-6.6.8-3.7-.9-10-1.2-1.2,3.1-3.2-.2-0.8-.4-2.3.2-1.9-1.3-3,3.5-0.4.5-0.2.2-0.2.3-3.1-3.1-1.9,1.8-3.5-.2,0.4-3.3-2.2-1.2-1.2-4.2-3.2-.4-1.9-1.9-3.6-2.8,0.7-2.2v-3.9l-3.5-3.5-0.4-2.8-3.4-3.5-1.2-4.8-1.4-.6-1.7-2.3-2,1.2,0.4,2.1-4.7,1.1h-5.5l0.2-2.1v-3.9l-4.7-1.4v-2.4l-3.8-.8-0.8-3.2h-2.1ZM131.6,293l0.2,2.8,0.3,0.7h-2l-0.3-1.2Z" transform="translate(-0.16 1.96)"/><path id="reg11" class="cls-2" d="M248.2,104.2l-1.9,2.3-1.2,4.4-1.2,1.9h0l-0.1.2-5.4,1.6-1,1.2,1.1,1.7v1.7l1.4,0.3-0.7.7,0.2,1.5,0.3-.2,1.7,1.7,0.6,2.3,1.5,1.5-0.7,2v2.2l1.3,1.5-1.3,2.3,1.5,3.6,2.7,1.9,0.4,2.2,2.3,0.4,0.6,4.2,1.9,2.3,3.3,0.6,0.7,0.1,0.3,2.3,0.4,0.7,0.4,5.5,6.7-.6,2.4-2.2,2,1.7,5.2,0.4,1.2,1.8,0.7,1.1,2.2,1.1,0.2,3-3.3,2.3,2.2,2L279,168l5.3,0.2,2.1-.4,0.6-1.5,1.7,0.2,0.4,1.8,5.2-2.9,4.4-5.2-1.6-1.8,1.2-2.7,3.3-1.7,7.7,0.4,1.6-1.2,0.4,0.4,0.5-3.9,0.8-3.8,1.4-1.8,0.2-2.2,2.7-1.2v-2.1l-3,.2-0.5-1,1-1.7-0.8-3.2-1.5-.9,0.4-2.4,1.6-1-0.2-1.2,0.8-1-3.6-.8-1-2.3-1.8-.6-5.1-4.9-0.6-4.3-2.4-1.8-1.4.7-1.8,1.5-1.9-.6-3.3,1.4-2.8-1.6-1.2,1.7-1.5.2-1.1-.9-2.1-1.2-2.3,1.5-0.3-.3-0.9-.8-4.3-2.6-4.2-2.2-2.2,1-2.2.6-1.5-1.1-3.3-2-2.6,2-3.6.4-5.1-.4-1.1-1.8-1.3-3h0Z" transform="translate(-0.16 1.96)"/><path id="reg32" class="cls-2" d="M278.5-1.3l-6.5,3-9.7,1.6-0.3.1h-0.1l-0.6.1h0l-10.4,2-8.8,6.8V39.2l-0.1.6-0.5,6.3,4.3,3.9v1.3l-5-3L234,56.6l2.1,0.9,2-.2,0.9,1.8,8.6,8.4,0.6,3.4,1.9,3.4-0.5.7-1.3,1.5-1,2.4h1.6l-0.7,1.6-0.8,4,1.2,2v3.6h1.8l-1.9,3.5-0.6,1.9,1.8,1.6,0.5,4.4,0.8,1.3-0.9.2-2-1.1-0.5,3.8,0.5-.6,0.6,1.3,1.3,2.1,5.5,0.4,3.8-.4,2.4-1.9,2.9,1.8,1.7,1.3,2.5-.7,2-.9,4,2.1,4.2,2.5,1.5,1.5,2.4-1.6,1.8,1,1.3,1,2-.2,1.1-1.4,2.6,1.5,3.4-1.4,2,0.6,2-1.6,1-.5,0.1,0.1h0l0.3,0.2,0.2,0.2L302,113l0.6,4.3,5.3,5.1,1.7,0.6,1,2.4,3.6,0.8,0.6-.7,1-2,2.9-1.4,1.6-4.1,1.9-1.3-1.3-1.8h-2.4l-0.2-.9,1.6-.7,1-1.5-1.8-1.2,0.4-1.4,4.7-.4-1-2.2-2.7-1.8V99.9l3.5-2.6h4.4L328,95.2l2-.8,3.3,2.2,1.7-.5-0.2-6.9,0.6-2.3,0.8-3-2.5-1.3,0.4-1.2,3.8-.8V78l2.9-1.5,0.8-2.6-1-1.6,0.2-2.7,1.8-1.6-1.8-3.4,0.6-3.7h-4.3L337,59.4l3.9-2.3L340.2,53l-3.4-.9,0.7-.7V48.9l3-2.2-0.9-1.8-6.4-5-11.2.6-1.2,1.9h-0.9l0.2-6.7-3.3-3.9-2.3.4-1.4-1.6-3.9,1.8-1.3-1.3-2.7-.4-0.7-2.3-0.2-8-1.8-.8-0.2-1.3h-1.2l-0.4-2.4-2.9.2-5,1.6-2.3,2.9h-2.1L287,18.8l-0.6-2.1-2.1-2.4h-2.7l-1-1.9v-3L282,7.2l-0.8-3.1Z" transform="translate(-0.16 1.96)"/><path id="reg93" class="cls-2" d="M439.9,333.9l-2,.9-0.4,2.9-3,.3-0.6-2.6-1.3-1.3-3.8.4-1.5,1.3-0.8,4.3,0.7,1.2,4,0.4,0.8,2.5,1.5,0.8v3.8l-3.5-.2-1.6,1.7-4.4-.8-2.5,2.1-1.8-.8-2.9,2.2,1,1.8-1.3,1.3h-5.1v2.8l1.5,0.8-0.4,1-3.2,1.3-4.2.4-1.3,4-0.2,2.5,2,1.6-1.8,2.1-2.5-1.2-3.5-.2-0.5,2.2,1.8,1.2-2.2,1.4,0.9,3.7,6.7,1.8,1.2,2.6,1.8,0.3-0.6,6v0.3l-0.8-.9-1.9-1.7-1.1,3.3-1.6,1.4h-1l-1.3-.1-2.8-2.1-0.8-2.6-5.7-.4-3.9-.4-0.3-2,1.3-2.9-0.5-.3-2.4,2.1-3.6-.4-0.6-1.1,2.8-3.8-3-2.8-3,.2-2.2,3.5,0.6,3.8,3.2,0.4-0.4,1-2.5.2-2.8,2.8-0.5-.6,0.6-3.9-1.4-1.5-5.6.8-1.2,2.5,0.8,0.4,3.2,5.4v4.5l5.8,5.8v2.2l-2.6,1.5-5.1,2.9-1.4,10.3-5.7-.8-1.8,4.8L359,424l-6.2,3.8-2,4.5,6.6,0.3,8.1,0.6,1,1h-2.4l-2.2,3.8,8.8,1.8,7.3-1.3-3.7-3.5,1.9-1.6,3.5,1.5,1.8,3.8,11.4,0.2,2.7-1.1,0.4,1.3-3.5,3.1,4.7,0.2-0.6,1.5-1.6,1.8h10.2l4.6,1.5,0.3,0.5,0.6,0.9,3.5,1.5,1,4,2.5,0.4,2.1-1.4,3.4-2.1,5.7,0.6-0.1,1.1-1.8.9,0.1,0.6,5.4,0.2-1.6-1.7-0.4-2.2,2.2-1.6,2.8,0.9,1.1,0.4,1.1,1.3,1.7-1.2,0.4-2.6,1.4-1.2h4.2l1.2-1.8,2.6,0.8,3.4-1.5v-5.6l-3.2.2,2.2-1.3,1.6-2.2,0.4-3,5.6-.8,3-3.3h0l0.2-.2,0.2-.2v-0.1l0.2-4.2,3.8,0.8,1.4-1.8,2.1,0.4,0.2-6.2,4.3-.3,3.9-3.5h3.7l0.2-2.3,3.6-2.2-2-4.5,2.9-2.5-0.6-2.8,4.2-1.3,1.2-4.5-0.6-3-1-1.8-0.8-2.8-3.2.2-9.2,3.3h-2.8l-5-4-5.2-1.4h-2.7v-3.4l-4.1-2.5v-3.5l3.2-.4-2.1-1.8-1.9-.6-0.9-2.3,0.7-1.6,3.6-3.8-0.6-2.8,0.3-.3,0.1-.1,0.5-.5,1.3-1.4,2.3,0.2V356l-2.7-1.4-0.6-5.7-2.4-.9-2.7.4-4.8-2.4-0.8-5.9-3-1-0.9-1.9-1.3-3-4.5-.3h0Z" transform="translate(-0.16 1.96)"/><path id="reg94" class="cls-2" d="M470.5,444.6l-3.2,2.2,0.4,2.1,1.4,1.8-1.7,1.3,0.4,0.8,0.4,0.8-1.1,1.3v2l2,1.8v2.5l-1.1,2.4-1,.4-0.6-.8-0.9-1.3-2.8.2-0.6-.4h-2.5l-2.3,2.1-0.8,3.2-5,.9-4,3.4-0.7,2-1.6-.2-1.3-1.6-0.6,3.8-1.4.6-0.4,3.4,0.5,1.2-2,1.5-0.5,1.4h-1.7V486l2.1,1.5,3.2,1.9,0.2,1.2-1.7.5-3.4.6v1.7l1.2,1.2,0.2,4,4.5,1.4,1.4,0.3,1.2,1.9-0.8,1.1-1.6.6-1.2,2.2-1.2,1.5,0.6,3.9,3.1-.2,0.8,0.6,2.8-1.3,0.5,0.5-1.4,2.9,1.3,1.3-2.1,1.6-1.8,3.9,4.7,1.1,5.5,0.5-2,2.3a2.7,2.7,0,0,0-1.8-.1,0.1,0.1,0,0,0-.1.1l-0.1.1a0.1,0.1,0,0,0-.1.1l-0.1.1h0v0.2a9.82,9.82,0,0,1-1.3,3.2l-0.1.2,2.1,2.3,3.6,2.2,6.7,1.8,1.9,0.8,1.5,0.6-1.3,2.4,3.4-.2,0.6,1.3h3.6l0.9-4.2-1.8-.3,2.6-2.7-1.1-1.1,0.2-1.5,3.5-1.9,0.2-2.6-2.8-.2-1.2,1v-1l3-.2,1-2.5,0.8-6.9v-0.1l-0.6-2.9L477,510l-0.1-5.8,4.7-6.6v-11l-0.1-.2-1.8-3.7L479.1,471l-1.4-2.2-2.5-1.9-0.4-7.1,1.2-3.3-1.6-5.3-1-4.3-0.9-1.3-2-1h0Z" transform="translate(-0.16 1.96)"/><path id="reg28" class="cls-2" d="M234.5,56.2l-1.4,1.7-8.3,6.4L210,68l-9.8,3.5-8,4.3-4.9,7.1-1.1,5.8,4.1,3.1,4.2,0.9-3.9.7-7.5,4.3-8.2,3.2-6.5-3.7-16.1-2.3-3.8-2-5.6,1.4-1.8.4-0.2-4.4-5-6,1.4-3.6h2.4l-2.1-5.9-8.7-.4-4.4,3.1-4.9-3.2L112,72.1l-1,2.4,4.2,3.4V82l-1.7,2.1,1.2,1.2,0.4,0.3-0.4,3.6,1.4,3.2,4.5,5.1,0.9,4.4,1,1.4v6.9l2.3,4.8v5.3l-2.6,5.1,2.8,7.3,4.2,0.9,0.3,1.6-1.9.8h-4l0.7,2.8,1.2,3.8,3.4,3,1.9,0.5,1.6-2.2,1.8-.2,2-2.4,1.8,1.4h2.4l1.3,0.7v0.5l3.7,0.4,1.9-1.5,2.7,1.1h0l0.2,0.3,1.1,1.9,2.4,1.8,2.9-2,1.9,1.4,5.4-3.2,5.2,0.8,3.1-1.2,0.8-1.9,1.6-.2,1.6,1.4,0.8,4.3,2.6,1,1,3.6,3.7,0.2,5.3-4.9,5-.2,1.4,1.9,1,7.2,3.4,1.2,2,3h4l0.2,1.1h0.6l0.2-1.7h0.4l2.7,4.1,2.6,0.4v-5.1l-1.3-1.8-0.3-1.3,2.7-1.6,3-.6,2.1-2.5-0.4-7.5-4.1-3.5-0.2-3.4-0.5-.3,2.4-2.3h2.6l7.1-3.7,2.2,0.9h5.2l1.3-1.6V127l3.9-1.9v-3.2l1.1-.9-0.1-.9,1.3-1.3-2.1-.4V117l-0.9-1.5,0.6-.7,5.5-1.6,1.4-2.5,1.2-4.3,1.5-1.8,0.2-1.9,1.5,0.8,1.9-.5-1.2-1.8-0.6-4.5-1.7-1.5,0.5-1.5,1.4-2.6,1-1.8h-2.2V86.1L248,84.2l0.8-3.7,0.9-2.4h-1.6l0.6-1.5,2-2.5-2-3.7-0.6-3.6-8.6-8.4-1.1-2.1-2.1.6-1.8-.7h0Z" transform="translate(-0.16 1.96)"/><path id="reg44" class="cls-2" d="M360.1,50.6l-2,3-1.8,1.8v4.1L354.1,61l-4.2,1.3-2.2.9L345,61.1h-4.1l-0.6,3.8,1.7,3.2-1.7,1.5-0.2,3.2,0.9,1.5-0.7,2.1-3,1.6v2.5l-3.7.8-0.7,2,2.6,1.4-0.7,2.5-0.6,2.4,0.1,5.2,0.1,1.2-1,.3-3.3-2.2-2.7,1.2,0.4,1.8H324l-3.9,2.9v5.6l2.8,1.8,0.6,1.3-4.3.3-0.7,2.2,1.7,1.1-0.6.9-1.9.8,0.5,1.8h2.6l0.7,1-1.6,1.1-1.6,4.1-2.9,1.4-1,2.2-1.1,1.3,0.2,1.1-1.5,1-0.5,3,1.6,1,0.7,2.7-1,1.8,0.8,1.7,2.8-.2v1l-2.7,1.2-0.2,2.4-1.3,1.7-0.8,4.1-0.5,3.4,1.4,1.2h2.3l4.9,5.1-0.6,5.3,3.8,2.9,1.9-1.3,2.9,3.4,0.4,3.5,2.2,2.9,1,2.3,8.1,0.4,3.7-1.9,1.1,2,1.8,0.2,1-2.2,6.2-.2,2.8-1.5,0.4-2.4h5.3l1.3,0.8,1.7,0.9,3.4,3.7,4.3,5.9-2.6,2.8,1.9,1.3,0.2,3.4,3.2-.2,0.8,1.6,2.6,0.2,1.6-.9,2.9,3.7,0.5,1.2,4.7-1,0.8-1.9,0.3,0.1v-2.2l2.4-1.1,3.1,1.2,3-1.2h1.9l0.6-4.1,1.3-1.5-2.1-.2-0.2-1.8,2.7-.6,0.2-1.5h2.8v-2.6l2.2-.8-0.6-1.6,0.2-.1h0.1l0.5-.3,1.2-.8-0.8-1.2,0.5-.3,1.3,1.6,2.3-1.6,0.6-1.8,3.4-.6,0.8,0.6-0.2,2.2,2.8,2.1,1.8-.2,1.7-1.4h3.8l2.9,3.3h1.2l1.8-1.1,0.2-1.1,1.3-.7,1.6,1.1,1.7,1.9,6.2,3.3,0.9,1.7,3.2,0.2,3.4,2.6,0.5,1.2-0.2,2.2-1,1.8,0.4,2.7,2.8-.4,0.5,1.9,1,4.4,2.2-.3-0.4,1.9,1.6,1.4,7.4-.2,3.9-3.1,0.2-4.3,2.1-2.7-2.7-3.1-1.2-2.9,1.5-2.1v-5l1-2.3v-3.9l1.8-2.6-2-2.8-0.2-5.1v-0.9l5.1-9.9,0.1-.1-0.6-5.7,2.3-7.6,0.6-6.5,5.1-3.7v-2.4l1.8-2.4H486l1.9-1.9-0.4-3.4,1.7-4.5,3.2-.7-3.3-2.6-4.9-.6-4.4-2.2-2.8,1.7-1.5-1.7h-2.2l-3.1.8h0l-0.6.2-0.3.1h-0.1l-1.2-1.8-3.9-2.4-1.4-2.2-5,.4-2.8,2.5-6.4.2-1.8-1.3a8.4,8.4,0,0,0-2-2.5l-0.1-.1h-0.3v0.3l-0.1-.3a8.16,8.16,0,0,1-2.8-1.1l-0.1-.1-3.1,1.3-0.2,2.3-2.9.3-1.9-3.6-1.1-.4V97l-2.8-1.2-0.2-4.6-2.1-2-4.2-2h-2.2l-0.6.4h-1.8l-2.7-2.3-3.2.2-2.4,2-0.6.9h-3l-1.2-1.2H402l-3.5-3.9h-4.8l-2.3,2.2-3.3.2-1.2,1.2h-0.8l-0.8-3.6-1.7-1.7-0.8-.1-0.6-.1-1-.2-0.8-3.8-1.7-1.3-5.4-.6-0.9-2.4-1.8-1.2-6.2-.8L364.1,67l0.8-.8v-2l-3.1-1.9,0.5-1.9,0.9-2.2-1.3-1.1,2-1.8V51.5l-1-.7h-2.8V50.6h0Z" transform="translate(-0.16 1.96)"/><path id="reg76" class="cls-2" d="M240,342l-4.2,2-1,.2,0.2,0.4-1.2,1.1v2.4l1.7,1.9-1.6,2.8-1.6,1.1-0.2,1.8-3.4.4,0.2,2.6,1,0.3-2.4,3.5-4.4.4-0.2,3.1-1.7,1.7-1,2.5-4.1.2,1.7,6.2,1.7,3.8,0.1,0.2-3.8.7-3.2-1.9-1.5,5,2.2,2.3-0.9,3.5-1.2,1.4,0.8,2.2-3.4.7-3.2.8,0.8,2.8-1,.3-0.5.2-0.2.1-0.9.8-2.8-2.8-6.1.6-1.6,2.8-3.4.4-3.1.5-1.5-2.1-3.2,3.2-2.4-2-1.6,3.3,0.2,2.4-1.7.5-0.8-1.2-1.1-3.3-2.9,2.5-1.8-.8-2.4.4-2.1,2.6,2.3,3.9-1.5,1.5,0.6,3.3-1.8,2.4-1.5,3.9,1.7,3,4.8,0.3,0.5,0.1,3.1,5.1-2.2,2,3.9,5.9-1.8,2.4-3.1,7-5.4,4.6,1.3,2.7-0.8.6-3.1-.6-0.8,6.6-1.6,1.2-0.3,4.8,0.8-.5,3.2,1.9,3.8,2.9,0.4,2.3,3.3,2.7h2.7l6.3-2.7,2.6,3,4,1.1,1.4-2.3,1.5,0.7,3.6,0.2,8.5,0.6,0.4-9.6,2.3,0.3,3.6,2.1,1.4,0.8,6.2,1.2H218l3.3,4.3,8.4-.4,3.4,5.3,3.1-1.2,8.3,1.2,0.6,3.1,0.1,0.6,0.3,1.8,3,2.8,5.8,1.6,0.2,3.4,3.3,2.9,2.6-.5,3.3-4.1,3.9-.8,6.3,2.1,5.7,4.8,1.7-2.1h1.1l1.4,1,1.5-.7,0.2-2.7,5.8-1.3,1.9-2.5,2.8-.9h3.9l2.6,2.7,3.6,0.2v-3.6l-1.7-2.3-2.7-1.2L301.3,469l-0.2-6.1,0.2-6.8-2.5.2-1.8-2.6,1.3-2.1,3.2,3,3.2-2.5,2.1-2,0.2-1.9,0.2-1.1,7-2.2,0.8-1.7,5.4-.2,1.8-2.2,10.5-8.4,6.6-4.6,1.8,0.1,3.4,0.2V432l4.8-.2,2.6,0.1,1.8-4.2,6.5-4-1.5-2.1,1.5-4,5.8,0.8,1.4-10.7,7.8-4.4v-2.8l-5.8-5.8v-3.8l-3.4-5.7-7.3-4.1-0.6,3.2-2.3.2-0.8-3.1-3.2.6-0.5,3.7-1.8-.7-4.8-3.2-1.9,1v-5.2l-3.3-2-0.8-.5,0.6-4.1-3.3-3.6-1.4-7.1-5.2-6.6-3.5.8-0.8-2.7h-2.5l-0.4,2.4-4.6,1.4-3.5-9-5.8,2.1-1.5,3.3-3.6-2.4-2.8,9-2.6,6-1.3-1.7-0.6-5.7H294l-0.9-5.6-3.8.6-0.5-3.3-0.8-1.2-5.9,5v4.5h-1.3l-0.6,4.5-1.3.5-1.1,2.4h-5.7l-0.5-.8h-3.1l-1.7,2.7h-0.3l-1.3-.2,1.1-3.2-2.5-1.1,2.5-5.8-3.4-2.5-1.1-7.2-3.4-.9-2.1,2-1.1-1.9-3.5,3.5-1.9.2L246,344Z" transform="translate(-0.16 1.96)"/><path id="reg84" class="cls-2" d="M294.1,242.7l-2.7,3.5-1.6.2-1.6,1.7-2-2.2-5.6,5.6v3.4l1,0.8,0.2,1.2-2.5,2-2.5-.8-5.1,1-2.6,3-1.2,2.6,0.5-.1,2.2,3.1V270l1.6,2.1,1.3-1.7,1.4,2.4,2.1,0.8,2.1,4.9,0.1,1.5h0l0.3,4.5,1.6,1.9,0.7,3.5-2.3,1.7-0.6,2.7-2,1.1-3.9,2.2,0.4,2.1,4.5,4.5,0.4,2.5-1.8,2.9v2.9l1.2,1.4,0.6,3.2-0.4,1.6-0.6,2,1,2.2-1,1.2h-1.7l-1.9-2.1-2.2-1.3-0.2,5.8-3.4,2.1-2.7,3.7,0.6,3.6-0.8,1.5-0.9,2.9h-1.5l-1.8,2.2,1.3,1.3,0.7,1.7-2.5,1.8,1.1,6.8,3.2,2.4-2.5,5.8,2.5,1.1-1.1,3.4,2.8,0.4,1.7-2.8h2.4l0.5,0.8h6.5l1.1-2.5,1.4-.6,0.6-4.3h1.4V353l5.2-4.4,0.3,0.5,0.6,3.8,3.9-.6,0.8,5.5h1.9l0.5,5.2v0.1l2.1,2.6,3-7,2.6-8.2,3.5,2.3,1.7-3.7,4.9-1.8,0.1-.1,3.5,9,5.5-1.7,0.4-2.3h1.5l0.8,2.8,3.7-.9,4.2,5.4L333,360l0.2,0.2,1.3,7.1v0.1l3.3,3.5-0.6,4.2,4.2,2.5v5.8l2.5-1.3,4.6,3,2.6,1,0.5-4.1,2.3-.4,0.8,3,3.2-.3,0.5-2.8,6.2,3.5,1.1-2.2,2.8-.4,2.2-.3,1,1.1-0.6,3.9,1.1,1.3,3.1-3.1,2.7-.2,0.8-2.1-3.5-.4-0.5-3.2,2-3.1,2.5-.2,2.4,2.3-2.7,3.7,1,1.7,4.2,0.4,1.6-1.3-0.8,1.8,0.5,2.7,4.3,0.4,5.3,0.4,0.8,2.4,3.1,2.3,2.8,0.2,1.9-1.7,0.9-2.6,1.2,1.1,1.6,1.9,0.9-8.2-2.1-.4-1.2-2.5-6.6-1.8-0.7-2.9,2.6-1.7-2.2-1.5,0.3-1.3,2.8,0.2,2.9,1.4,2.5-2.9-2.2-1.8,0.2-2.1,1.1-3.5,3.9-.4,3.5-1.4,0.3-.7,0.1-.2,0.2-.4h0l0.2-.5-1.7-.8v-1.8h4.7l1.8-1.8-0.9-1.7,2.2-1.7,1.8,0.8,2.6-2.2,4.5,0.8,1.6-1.8,3.9,0.2v-4.8l-1.6-.8L432,341l-4.2-.4-0.4-.8,0.7-3.9,1.2-1,3.3-.4,1,1,0.6,2.9,4-.5,0.4-3,1.5-.7,4.2,0.2-0.2-.3,5.4-2.2,2.1,1.3h2.5l0.2-2.5,2.4-1.3,1-1.2,5.2-2,0.7-3.6-1-1.5,2.8-4.8-2.8-1-0.8-2.7-5.2-3.1c0.1-1.1.3-5.9-.2-7l0.4-.3h-0.9c-0.6.2-2.9,0.3-3.5,0.4l-2.8-3.1,0.1-3.4,0.1-2.9,6.6-2.8,0.8-2.1-0.4-4.5-4.5-4.7-1.1.7v-4.4l-3.8-1.8-0.1-1.3,2.1-2.3v-3l-3.5-3.7-0.2-2.7h-7l-4.5.8-4.1,3.3-1.1-1.6-2.5.2-2,4.5v0.1l0.2,1.9,1.9,1.6-3.6,2.4-2.4,2.3h-6v-3.2l2.2-1.2,3.7-.4,0.3-2.4-1.1-.7,2.8-3.6-0.5-1.4-3.7-2-8.2,9h-5.2V268l-3.5-1.7-3.8,4.2-2.5.3v-2.6l-2.6-1.2-3.9-5.5-3.5-1.3-1.2-2.6-2.2-.5-2,1.4-1.4.4-2.1-1.8-2.4.2-1.5,2.8-3.7,14.4-0.5,1.2h0l-0.6,1.3-0.9-.1-0.7-3.8-1.1-3.3-2.5.2-1.6,1.6-1.2-1.6-1.8,1.6-2.3-1.5h-2.1l-0.9.7-0.5,2.5-0.7,3.6h-2l-1.4,1.4-1.1-1.1-6.3-1h-0.1l-2.4,1.4h-1.2l-0.3-1.3-2.9-.6-0.2-3.1-0.5-.2,3.8-2.9,0.2-7.8-1.5-2.2h-3.1l-1.2-1.6h-3.3l-0.8-1v-2.8l-4-7.5-2.3-1.7-3.8,5.2-1.2.3L315,248l-2.2-1-0.8,1.7h-2.7l-0.4-1.9-2.3,1.3-1.9,1.1-2.2-2.4-3.3-1.6-0.2-2.6-4.9.1h0Z" transform="translate(-0.16 1.96)"/><path id="reg24" class="cls-2" d="M239.8,120.7l-1.5,1.2V125l-3.9,1.9v3l-1,1.2h-4.7l-2.4-1-7.1,3.7h-2.8l-3.2,3,0.8,0.6,0.2,3.3,4.1,3.5,0.4,7-1.8,2.2-2.8.6-3.2,1.9,0.4,1.8,1.3,1.8v4.8l0.6,0.1,2.4,1.7-0.7.8-0.2.3-0.2.2-1.1,1.4-1.7,2.9,2,1.8-0.2,3.9-0.7,2.5h-2v3.9l-2.6,3.4-2.9,1.2-1.5,2,0.5,1.2,0.2,0.4,0.1,0.2,0.2,0.4-5.4,1.5-1.2,1.8-2.8-1.8,1.3,4.3H195l-4.1-2.9-2.2,4.4,1,1.2V202l-2,2.6,0.2,4.3-3.1,3.6-2.4,8.5h0.4l0.8,3.1,3.7,0.8v2.3l4.7,1.4v3.5l-0.2,2.7H198l5.4-1.2-0.4-2.2,1.2-.7,1.4,2,1.3,0.6,1.2,4.6,3.3,3.5,0.4,2.8,3.2,3.2,0.3,0.3v3.6l-0.8,2.5,3.9,3,2,2,3,0.4,1.2,4,2,1.1-0.3,2.5-1.3.2v0.6l0.6,0.1,5,0.4,1.7-1.6,3.1,3.1,3.9-4.5,1.6,1.1,2.3-.2,0.7,0.4,3.9,0.2,1.2-3.1,9.5,1.2,3.8,1,1.4-.2,0.5-.1h0.1l4.5-.6,1-2.1,2.4-2.8,4.7-1,2.7,0.8,3-2.3-0.2-1.8-1-.8v-2.9l5-5,2,2.2,1.9-1.9,1.6-.2,2.7-3.5,4.1,0.3v0.8l0.6,0.1,1.5-4.9-1-1.8,0.2-2.4,0.6-5.2-2.2-2.2,0.4-4.6-2-4.1-0.2-2.8-3.6-2.8-0.5-2.1,1.7-2.5v-3.9l-1.8-2.2-0.4-.4h0l-0.1-.1-0.2-1.6,4-1.2-0.7-2.4-0.6-3.1-2.5-3.6-0.5-1.7H295l2.9-2.1,0.4-3.2-1.6-1.8,4.9-4.2V174l-2.6-2.8-1-3.1-3.8-3.6-4.7,2.7-0.3-1.4-2.6-.2-0.6,1.6-1.7.3-5.4-.2-2,1.3-1.3-1.2,3-2-0.2-3.7-2.4-1.2-2-3-5.3-.4-2.3-1.9-2.6,2.5-5.1.4h0l-0.5.1h-0.3l-0.4-5-0.4-.6-0.4-2.7-4.2-.8-1.7-2-0.6-4.4-2.3-.4-0.4-2.1-2.8-2-1.3-3.1,1.4-2.4-1.5-1.6v-1.8l0.8-2.3-1.7-1.7-0.6-2.3-2-2.3h0Z" transform="translate(-0.16 1.96)"/><path id="reg27" class="cls-2" d="M311,152l-1.8,1.4-7.6-.4-3.7,1.8-1.5,3.2,1.5,1.7-4.2,4.9,3.7,3.5,0.9,3.1,2.6,2.8v3.3l-5.2,4.4,1.8,2.1-0.3,2.7-2.6,1.8h-4.2l0.7,2.5,2.5,3.5,0.6,3.1,0.5,1.9-2,.6-1.9.6,0.2,2.3,2.3,2.7V209l-1.8,2.6,0.6,2.6,3.5,2.7,0.2,2.6,2,4.2-0.4,4.8,2.2,2.1-0.6,5-0.2,2.6,0.9,1.7-1.5,4.7,0.2,1.7,3.4,1.6,2.5,2.7,2.3-1.3,1.6-1,0.4,1.6h3.3l0.7-1.5,1.3,0.6,0.6,2.7,2-.5,3.6-4.9,1.6,1.2,0.4,0.8,3.4,6.5v3l1.1,1.4h3.3l1.2,1.6h3.1l1.2,1.7-0.2,7.4-4,3.1-0.3.8,0.8-.1,0.3,0.1,0.2,3.2,3,0.6,0.4,1.4h1.9l2.3-1.4,6,0.9,1.3,1.3,1.7-1.7h2.3l1.2-6.4,0.6-.5h1.8l2.5,1.7,1.7-1.5,1.2,1.6,1.9-1.9,1.8-.2,0.9,2.8,0.8,4.1,1.8,0.2,1.3-3,3.7-14.4,1.3-2.4,1.9-.2,2.2,1.8,1.7-.4,1.9-1.3,1.7,0.3,1.2,2.5,1.2,0.5h0.1l2.2,0.9,3.9,5.5,2.4,1.1v2.9l3.4-.5,3.6-4,2.8,1.4v2.5h6.1l8.5-9.3-0.5-.3,0.3-3.8,3.2-3.8-2.1-.8,0.2-1,12-11.3,0.1-.1-0.4-9.3,4.1-2,2.9-1.4,2.9-2.7,0.2-3.7,2.6-1.3,6.5-7.4-0.9-2.2,1.9-.8,2.8-3.4-1.7-1.7-4.6.9-0.1-.3,4.5-5.2h0l0.4-.5,2.8-.4-1-4.5-0.7-2.4-2.7.4-0.3-1.9,0.9-1.7,0.2-2.5-0.6-1.5-3.7-2.8-3-.2-0.7-1.3-0.1-.2-6.3-3.3-1.7-1.9-2-1.3-1.5.6-0.2,1.2-1.4.9h-0.8l-2.9-3.3h-4.3l-1.8,1.4-1.4.2-2.3-1.8,0.2-2.2-1.2-1-4,.7-0.6,2-1.7,1.2-1.3-1.6-1.4.9,0.8,1.2-1.9,1.2,0.6,1.5-2.1.8v2.4h-2.7l-0.2,1.6-2.8.6,0.2,2.8,1.4,0.2-0.7.8-0.6,3.8h-1.5l-2.9,1.2-3.1-1.2-3,1.3v1.8h-0.1l-0.8,2.1-3.9.9-0.3-.7-3.3-4.2-1.9,1.1-2.1-.2-0.8-1.6-3,.2-0.2-3.2-1.6-1.1,2.5-2.7-4.7-6.3-3.5-3.7-3.3-1.8h-6l-0.4,2.6-2.3,1.3-6.1.2-0.2-.7-0.3.7h-0.2l0.1,0.2-0.9,1.9-1-.2-1.2-2.3-4.1,2.1-7.6-.4-0.9-2.1-2.1-2.8-0.4-3.5-3.4-4-2,1.4-3.2-2.5,0.6-5.2-5.2-5.5h-2.4L311,152h0Z" transform="translate(-0.16 1.96)"/><path id="reg53" class="cls-2" d="M62.5,117.8l-2,1.6L56,120l-0.9,1.2L52,118.9l-4.5,3,1.6,2.2-2.4,3.3-3.2-1.8-5.8.2v3.9h-1l-0.4-1.8-2.3.4-0.4-4.8-2.4,2.7-2.2-.9-4.6.4-0.8,2-2.1.5-0.4-2.1-5,.7v1.3l-2.7.2-1.4-1-1.9.9-0.4,2.2-5.2.2-3,3.7L3.8,136l-3,2.5,1.1,1.9-0.8,4.5,3.6,0.4,1.1-1L6.3,145l7.6-1,1.5-1.1-1.3,1.2,0.5,2.5,3.7-1.6-0.7,2.5,4.4,0.2-0.1.5-4.4-.2-3.7-.9-4.7-2.2-3.2,3.6,3.7,1.2-0.2,5.7,1.5-1.2L13,151l3.8,2.2,1.9,0.4,0.7,2.8-1.1,1.8L16,158H13.3l-3.9.6-6.8.4L1,161.2l2.3,1.4,2.1-.2L7.1,164l2.5-.2,4,4.5,0.9,4.9-1.5,3,4.5,0.9,4.7-.2,1.1-2.1-1.2-1.6,0.8,0.3,1.8-.2,3.1,1.8,2.3-.4v-1l0.2,0.8,2.6,4.3,5.9,0.4,0.1-.7,1,1.4,3.5,0.6h2.4l2.3,3.7,3.4,0.8,0.3-.4-0.2.6,2.9,1.3,3.5,3.4,1.1,2-0.8,5.2,2.7,2,1.5-1.8-1.3-1.7v-3l2.2,0.5,0.6-1.9,0.3,0.7,2.9,2.5,1.5-2.4-0.2-.4,0.7,0.9h0.2l-1.9,2.4,2.6,0.9,1.8,2.8,10.7-1,2.1,0.5-1,.8,0.2,2.1,0.6,0.4,1.1-.2,1.6-1.6,1,1.2h3.3l3.8-2,5.7-2.2,0.2-5.5,1.2-.7,3.6-1.9,12.2-.6,0.8-2.3,1.8-1.8,4.4-.6,0.2-2.1,2.5,0.3,1.7,2.3,4.3,1,0.9-1.8,1-3.5,2.5-6.2,1.2-.7,3.5,0.4v-5.8l-1.4-1.4v-5.5l-0.6-2v-3l2-2V149l-1-.8,0.2-5.5-1.7-.8h-2.4l-2.1-1.7-2.2,2.7-1.8.2-1.5,2.1-1.3-.3-3.2-2.8-1.1-3.6-0.7-2.7h-9.8l-3.2-1.9,2.5-3.3-5.4-.2-2.1,2.3h0l-1,1.2-3.8-.4-0.4,2.2-1.8.2L99,133.3l-2.4-.7-1,1.1V130l-2.7,2-3.6-.6-1.2,2.4-7.3,4v1.8h-1v-3.4l-4.1-1.9,0.4-3.5-3.7-2.7v-3.2l-2.7-.6,0.2-3.2-2.1-.2,0.2-2.2H63.6L63.2,120l-0.7-2.2h0Zm9.8,73.1,1.8,0.4,1.8,2.1-0.8,1.2-2.2-.7-3-1.4,2.9-.4Z" transform="translate(-0.16 1.96)"/></g></svg>